SplineFontDB: 3.0
FontName: Lavi-Regular
FullName: Lavi Regular
FamilyName: Lavi
Weight: Regular
Copyright: A creation by Ruben Holthuijsen aka Rholt (2009).\nMaintainance and modification by David Revoy for the webcomic www.peppercarrot.com.\nCorrection by Solve Svartskogen.\nAdaptation for Cyrillic glyph imported from a derivative done by Gleki "lagleki" Arxokuna ( https://github.com/lagleki ).\nGNU GPL V3 ( https://www.gnu.org/copyleft/gpl.html)\nRepository and sources available here: https://github.com/Deevad/peppercarrot_fonts/\n
Version: 2.0
ItalicAngle: 0
UnderlinePosition: -240
UnderlineWidth: 120
Ascent: 1638
Descent: 410
InvalidEm: 0
LayerCount: 2
Layer: 0 1 "Back" 1
Layer: 1 1 "Fore" 0
XUID: [1021 91 1847977381 16229978]
StyleMap: 0x0040
FSType: 0
OS2Version: 2
OS2_WeightWidthSlopeOnly: 0
OS2_UseTypoMetrics: 1
CreationTime: 1231154524
ModificationTime: 1564668310
PfmFamily: 65
TTFWeight: 400
TTFWidth: 5
LineGap: 122
VLineGap: 0
Panose: 3 0 0 0 0 0 0 0 0 0
OS2TypoAscent: 1556
OS2TypoAOffset: 0
OS2TypoDescent: -410
OS2TypoDOffset: 0
OS2TypoLinegap: 122
OS2WinAscent: 2030
OS2WinAOffset: 0
OS2WinDescent: 410
OS2WinDOffset: 0
HheadAscent: 2030
HheadAOffset: 0
HheadDescent: -410
HheadDOffset: 0
OS2SubXSize: 1434
OS2SubYSize: 1331
OS2SubXOff: 0
OS2SubYOff: 293
OS2SupXSize: 1434
OS2SupYSize: 1331
OS2SupXOff: 0
OS2SupYOff: 928
OS2StrikeYSize: 102
OS2StrikeYPos: 512
OS2CapHeight: 1434
OS2XHeight: 1300
OS2Vendor: 'RL  '
OS2CodePages: 20000007.00000000
OS2UnicodeRanges: 800002af.0000000b.00000000.00000000
Lookup: 258 0 0 "'kern' Horizontal Kerning in Latin lookup 0" { "'kern' Horizontal Kerning in Latin lookup 0 subtable"  } ['kern' ('latn' <'dflt' > ) ]
Lookup: 258 0 0 "ZLM-TEMPLATE-zlm-'kern' Horizontal Kerning lookup 1" { "ZLM-TEMPLATE-zlm-'kern' Horizontal Kerning lookup 1-1" [150,15,0] } ['kern' ('DFLT' <'dflt' > ) ]
MarkAttachClasses: 1
DEI: 91125
KernClass2: 22 22 "ZLM-TEMPLATE-zlm-'kern' Horizontal Kerning lookup 1-1"

StartChar: .notdef
Encoding: 1114112 -1 0
Width: 1556
Flags: W
LayerCount: 2
Fore
SplineSet
256 0 m 1,0,-1
 318 1536 l 1,1,-1
 1324 1536 l 1,2,-1
 1262 0 l 1,3,-1
 256 0 l 1,0,-1
384 128 m 1,4,-1
 1134 128 l 1,5,-1
 1196 1408 l 1,6,-1
 446 1408 l 1,7,-1
 384 128 l 1,4,-1
EndSplineSet
Validated: 1
EndChar

StartChar: exclam
Encoding: 33 33 4
Width: 699
GlyphClass: 2
Flags: W
LayerCount: 2
Fore
SplineSet
223 169 m 256,0,1
 223 202 223 202 236 232 c 128,-1,2
 249 262 249 262 271 284 c 128,-1,3
 293 306 293 306 323 319 c 128,-1,4
 353 332 353 332 387 332 c 0,5,6
 422 332 422 332 451 319 c 0,7,8
 482 305 482 305 501 284 c 0,9,10
 521 262 521 262 533 232 c 128,-1,11
 545 202 545 202 545 173 c 0,12,13
 545 171 545 171 545 169 c 256,14,15
 545 138 545 138 533 106 c 0,16,17
 523 79 523 79 501 54 c 0,18,19
 480 30 480 30 451 18 c 0,20,21
 420 5 420 5 387 5 c 0,22,23
 353 5 353 5 323 18 c 128,-1,24
 293 31 293 31 271 53 c 128,-1,25
 249 75 249 75 236 105 c 128,-1,26
 223 135 223 135 223 169 c 256,0,1
618 1468 m 2,27,-1
 618 1434 l 1,28,-1
 588 944 l 2,29,30
 588 937 588 937 585 920 c 0,31,32
 581 899 581 899 578 876 c 0,33,34
 574 848 574 848 568 815 c 128,-1,35
 562 782 562 782 557 750 c 128,-1,36
 552 718 552 718 547 689 c 128,-1,37
 542 660 542 660 538 639 c 0,38,39
 532 608 532 608 529 590 c 0,40,41
 524 563 524 563 513 536 c 0,42,43
 503 512 503 512 484 495 c 128,-1,44
 465 478 465 478 429 478 c 0,45,46
 392 478 392 478 369 502 c 0,47,48
 345 527 345 527 345 565 c 2,49,-1
 345 587 l 1,50,-1
 410 1015 l 1,51,-1
 442 1507 l 2,52,53
 444 1540 444 1540 469 1560 c 128,-1,54
 494 1580 494 1580 524 1580 c 0,55,56
 618 1580 618 1580 618 1468 c 2,27,-1
EndSplineSet
Validated: 1
EndChar

StartChar: numbersign
Encoding: 35 35 6
Width: 1421
GlyphClass: 2
Flags: W
LayerCount: 2
Fore
SplineSet
134 78 m 0,0,1
 134 129 134 129 155 177.5 c 128,-1,2
 176 226 176 226 200.5 274.5 c 128,-1,3
 225 323 225 323 246 372.5 c 128,-1,4
 267 422 267 422 267 475 c 1,5,-1
 102 475 l 2,6,7
 87 475 87 475 75.5 483.5 c 128,-1,8
 64 492 64 492 55.5 505 c 128,-1,9
 47 518 47 518 43 532 c 128,-1,10
 39 546 39 546 39 558 c 0,11,12
 39 569 39 569 42 582.5 c 128,-1,13
 45 596 45 596 51 608 c 128,-1,14
 57 620 57 620 67 635.5 c 128,-1,15
 77 651 77 651 91 651 c 2,16,-1
 313 651 l 1,17,-1
 359 953 l 1,18,-1
 154 953 l 2,19,20
 139 953 139 953 127.5 961.5 c 128,-1,21
 116 970 116 970 107.5 983 c 128,-1,22
 99 996 99 996 95 1010 c 128,-1,23
 91 1024 91 1024 91 1036 c 0,24,25
 91 1047 91 1047 94 1060.5 c 128,-1,26
 97 1074 97 1074 103 1086 c 128,-1,27
 109 1098 109 1098 119 1113.5 c 128,-1,28
 129 1129 129 1129 143 1129 c 2,29,-1
 382 1129 l 1,30,-1
 382 1433 l 2,31,32
 382 1449 382 1449 390.5 1463 c 128,-1,33
 399 1477 399 1477 411 1486 c 128,-1,34
 423 1495 423 1495 437.5 1499 c 128,-1,35
 452 1503 452 1503 466 1503 c 0,36,37
 494 1503 494 1503 510.5 1492 c 128,-1,38
 527 1481 527 1481 535.5 1463.5 c 128,-1,39
 544 1446 544 1446 546 1424 c 0,40,41
 550 1394 550 1394 549 1379 c 0,42,43
 546 1320 546 1320 544.5 1253.5 c 128,-1,44
 543 1187 543 1187 543 1129 c 1,45,-1
 926 1129 l 1,46,47
 926 1139 926 1139 926 1149 c 1,48,49
 927 1157 927 1157 928 1166 c 128,-1,50
 929 1175 929 1175 929 1180 c 1,51,52
 932 1194 932 1194 933.5 1233 c 128,-1,53
 935 1272 935 1272 936.5 1315.5 c 128,-1,54
 938 1359 938 1359 938 1398 c 128,-1,55
 938 1437 938 1437 941 1451 c 0,56,57
 949 1479 949 1479 969.5 1491 c 128,-1,58
 990 1503 990 1503 1019 1503 c 0,59,60
 1085 1503 1085 1503 1102 1439 c 1,61,-1
 1102 1353 l 2,62,63
 1102 1323 1102 1323 1102 1295.5 c 128,-1,64
 1102 1268 1102 1268 1101 1241 c 128,-1,65
 1100 1214 1100 1214 1100 1186 c 128,-1,66
 1100 1158 1100 1158 1096 1126 c 1,67,-1
 1264 1126 l 2,68,69
 1276 1126 1276 1126 1285 1116 c 128,-1,70
 1294 1106 1294 1106 1301 1092.5 c 128,-1,71
 1308 1079 1308 1079 1311.5 1065 c 128,-1,72
 1315 1051 1315 1051 1315 1042 c 0,73,74
 1315 1029 1315 1029 1310 1014.5 c 128,-1,75
 1305 1000 1305 1000 1296 987.5 c 128,-1,76
 1287 975 1287 975 1274 967 c 128,-1,77
 1261 959 1261 959 1246 959 c 2,78,-1
 1085 959 l 1,79,-1
 1042 648 l 1,80,-1
 1212 648 l 2,81,82
 1224 648 1224 648 1233.5 638 c 128,-1,83
 1243 628 1243 628 1249.5 614.5 c 128,-1,84
 1256 601 1256 601 1260 587 c 128,-1,85
 1264 573 1264 573 1264 564 c 0,86,87
 1264 551 1264 551 1259 536.5 c 128,-1,88
 1254 522 1254 522 1244.5 509.5 c 128,-1,89
 1235 497 1235 497 1222 489 c 128,-1,90
 1209 481 1209 481 1194 481 c 2,91,-1
 1004 481 l 1,92,93
 976 368 976 368 938.5 254 c 128,-1,94
 901 140 901 140 843 40 c 1,95,96
 828 20 828 20 811.5 10 c 128,-1,97
 795 0 795 0 771 0 c 0,98,99
 734 0 734 0 710.5 23 c 128,-1,100
 687 46 687 46 687 83 c 0,101,102
 687 133 687 133 708.5 181 c 128,-1,103
 730 229 730 229 756.5 277 c 128,-1,104
 783 325 783 325 804.5 374 c 128,-1,105
 826 423 826 423 826 475 c 1,106,107
 814 476 814 476 783.5 476 c 128,-1,108
 753 476 753 476 719 476.5 c 128,-1,109
 685 477 685 477 654 478 c 1,110,111
 613 478 613 478 612 478 c 0,112,113
 606 477 606 477 566 477 c 1,114,115
 563 475 563 475 513 475 c 1,116,117
 483 472 483 472 451 472 c 1,118,-1
 445 461 l 1,119,120
 439 441 439 441 430 399 c 128,-1,121
 421 357 421 357 408 305.5 c 128,-1,122
 395 254 395 254 376.5 200 c 128,-1,123
 358 146 358 146 334.5 101.5 c 128,-1,124
 311 57 311 57 281.5 28.5 c 128,-1,125
 252 0 252 0 215 0 c 0,126,127
 180 0 180 0 157 22.5 c 128,-1,128
 134 45 134 45 134 78 c 0,0,1
486 651 m 1,129,-1
 866 651 l 1,130,131
 868 661 868 661 871 671 c 0,132,133
 873 679 873 679 874.5 688 c 128,-1,134
 876 697 876 697 878 702 c 1,135,136
 882 727 882 727 888 768 c 128,-1,137
 894 809 894 809 899 849 c 128,-1,138
 904 889 904 889 908 918.5 c 128,-1,139
 912 948 912 948 912 950 c 2,140,-1
 912 959 l 1,141,142
 898 958 898 958 863 958 c 128,-1,143
 828 958 828 958 788.5 957.5 c 128,-1,144
 749 957 749 957 713.5 956.5 c 128,-1,145
 678 956 678 956 664 956 c 0,146,147
 649 955 649 955 626.5 954 c 128,-1,148
 604 953 604 953 583 953 c 0,149,150
 565 953 565 953 532 950 c 1,151,-1
 526 927 l 1,152,-1
 486 651 l 1,129,-1
EndSplineSet
Validated: 1
EndChar

StartChar: dollar
Encoding: 36 36 7
Width: 1280
GlyphClass: 2
Flags: W
LayerCount: 2
Fore
SplineSet
515 0 m 1,0,1
 476 0 476 0 427 9.5 c 128,-1,2
 378 19 378 19 326.5 34 c 128,-1,3
 275 49 275 49 226 71 c 128,-1,4
 177 93 177 93 138.5 123 c 128,-1,5
 100 153 100 153 76.5 191.5 c 128,-1,6
 53 230 53 230 53 278 c 0,7,8
 53 313 53 313 75 338 c 128,-1,9
 97 363 97 363 135 363 c 0,10,11
 155 363 155 363 177 350.5 c 128,-1,12
 199 338 199 338 224 318.5 c 128,-1,13
 249 299 249 299 278.5 276 c 128,-1,14
 308 253 308 253 343.5 232.5 c 128,-1,15
 379 212 379 212 421.5 194.5 c 128,-1,16
 464 177 464 177 515 177 c 1,17,-1
 515 757 l 1,18,-1
 410 785 l 2,19,20
 362 798 362 798 313.5 819 c 128,-1,21
 265 840 265 840 224 871 c 128,-1,22
 183 902 183 902 153 943 c 128,-1,23
 123 984 123 984 112 1037 c 1,24,-1
 112 1098 l 2,25,26
 112 1184 112 1184 139 1255.5 c 128,-1,27
 166 1327 166 1327 215 1380.5 c 128,-1,28
 264 1434 264 1434 333 1467.5 c 128,-1,29
 402 1501 402 1501 487 1511 c 1,30,-1
 515 1511 l 1,31,-1
 515 1664 l 1,32,-1
 689 1664 l 1,33,-1
 689 1513 l 1,34,35
 729 1509 729 1509 776 1509 c 128,-1,36
 823 1509 823 1509 870 1500 c 128,-1,37
 917 1491 917 1491 961 1480 c 128,-1,38
 1005 1469 1005 1469 1038.5 1453 c 128,-1,39
 1072 1437 1072 1437 1092.5 1414.5 c 128,-1,40
 1113 1392 1113 1392 1113 1362 c 0,41,42
 1113 1327 1113 1327 1091 1302 c 128,-1,43
 1069 1277 1069 1277 1031 1277 c 2,44,-1
 1019 1277 l 1,45,46
 936 1295 936 1295 854.5 1315.5 c 128,-1,47
 773 1336 773 1336 689 1336 c 1,48,-1
 689 892 l 1,49,-1
 850 849 l 2,50,51
 919 831 919 831 985.5 799.5 c 128,-1,52
 1052 768 1052 768 1103.5 722 c 128,-1,53
 1155 676 1155 676 1187 614.5 c 128,-1,54
 1219 553 1219 553 1219 475 c 0,55,56
 1219 407 1219 407 1197 349.5 c 128,-1,57
 1175 292 1175 292 1137 244 c 128,-1,58
 1099 196 1099 196 1047.5 158 c 128,-1,59
 996 120 996 120 937 91 c 128,-1,60
 878 62 878 62 814.5 42.5 c 128,-1,61
 751 23 751 23 689 13 c 1,62,-1
 689 -133 l 1,63,-1
 515 -133 l 1,64,-1
 515 0 l 1,0,1
689 711 m 1,65,-1
 689 191 l 1,66,67
 751 203 751 203 815 225.5 c 128,-1,68
 879 248 879 248 931 282.5 c 128,-1,69
 983 317 983 317 1016 364.5 c 128,-1,70
 1049 412 1049 412 1049 475 c 0,71,72
 1049 513 1049 513 1030.5 544.5 c 128,-1,73
 1012 576 1012 576 983 600.5 c 128,-1,74
 954 625 954 625 919 642 c 128,-1,75
 884 659 884 659 850 668 c 2,76,-1
 689 711 l 1,65,-1
282 1095 m 0,77,78
 282 1066 282 1066 296 1044 c 128,-1,79
 310 1022 310 1022 331 1005.5 c 128,-1,80
 352 989 352 989 378 978 c 128,-1,81
 404 967 404 967 428 961 c 2,82,-1
 515 940 l 1,83,-1
 515 1337 l 1,84,85
 465 1331 465 1331 422.5 1315 c 128,-1,86
 380 1299 380 1299 348.5 1270.5 c 128,-1,87
 317 1242 317 1242 299.5 1199 c 128,-1,88
 282 1156 282 1156 282 1095 c 0,77,78
EndSplineSet
Validated: 1
EndChar

StartChar: percent
Encoding: 37 37 8
Width: 1659
GlyphClass: 2
Flags: W
LayerCount: 2
Fore
SplineSet
165 50 m 0,0,1
 165 68 165 68 167 83.5 c 128,-1,2
 169 99 169 99 183 112 c 1,3,-1
 786 765 l 1,4,-1
 1078 1114 l 2,5,6
 1091 1129 1091 1129 1111 1164.5 c 128,-1,7
 1131 1200 1131 1200 1155 1243.5 c 128,-1,8
 1179 1287 1179 1287 1206 1334.5 c 128,-1,9
 1233 1382 1233 1382 1258.5 1421 c 128,-1,10
 1284 1460 1284 1460 1306 1486 c 0,11,12
 1328 1511 1328 1511 1346 1514 c 0,13,14
 1352 1515 1352 1515 1357 1515 c 0,15,16
 1385 1514 1385 1514 1407 1494 c 0,17,18
 1432 1471 1432 1471 1432 1432 c 0,19,20
 1432 1397 1432 1397 1420 1357 c 128,-1,21
 1408 1317 1408 1317 1389 1275 c 128,-1,22
 1370 1233 1370 1233 1345.5 1191.5 c 128,-1,23
 1321 1150 1321 1150 1296 1113 c 128,-1,24
 1271 1076 1271 1076 1248 1046 c 0,25,26
 1226 1017 1226 1017 1208 996 c 2,27,-1
 690 383 l 1,28,-1
 301 -12 l 2,29,30
 290 -23 290 -23 276 -26 c 0,31,32
 261 -29 261 -29 248 -29 c 0,33,34
 213 -29 213 -29 189 -6 c 128,-1,35
 165 17 165 17 165 50 c 0,0,1
974 357 m 0,36,37
 974 424 974 424 997 488 c 128,-1,38
 1020 552 1020 552 1061.5 602 c 128,-1,39
 1103 652 1103 652 1161.5 682.5 c 128,-1,40
 1220 713 1220 713 1292 713 c 0,41,42
 1365 713 1365 713 1423.5 683 c 128,-1,43
 1482 653 1482 653 1523.5 603.5 c 128,-1,44
 1565 554 1565 554 1587.5 489.5 c 128,-1,45
 1610 425 1610 425 1610 357 c 0,46,47
 1610 288 1610 288 1587.5 224 c 128,-1,48
 1565 160 1565 160 1523.5 110 c 128,-1,49
 1482 60 1482 60 1423.5 30 c 128,-1,50
 1365 0 1365 0 1292 0 c 0,51,52
 1220 0 1220 0 1161.5 30.5 c 128,-1,53
 1103 61 1103 61 1061.5 111 c 128,-1,54
 1020 161 1020 161 997 225 c 128,-1,55
 974 289 974 289 974 357 c 0,36,37
1145 357 m 256,56,57
 1145 326 1145 326 1154.5 294 c 128,-1,58
 1164 262 1164 262 1182.5 236 c 128,-1,59
 1201 210 1201 210 1228 193.5 c 128,-1,60
 1255 177 1255 177 1289 177 c 0,61,62
 1325 177 1325 177 1353 192.5 c 128,-1,63
 1381 208 1381 208 1400 233.5 c 128,-1,64
 1419 259 1419 259 1429 291.5 c 128,-1,65
 1439 324 1439 324 1439 357 c 256,66,67
 1439 390 1439 390 1429 422 c 128,-1,68
 1419 454 1419 454 1400 479.5 c 128,-1,69
 1381 505 1381 505 1353 520.5 c 128,-1,70
 1325 536 1325 536 1289 536 c 0,71,72
 1255 536 1255 536 1228 519.5 c 128,-1,73
 1201 503 1201 503 1182.5 477 c 128,-1,74
 1164 451 1164 451 1154.5 419.5 c 128,-1,75
 1145 388 1145 388 1145 357 c 256,56,57
107 1119 m 0,76,77
 107 1189 107 1189 131 1252.5 c 128,-1,78
 155 1316 155 1316 198 1365 c 128,-1,79
 241 1414 241 1414 301 1443 c 128,-1,80
 361 1472 361 1472 434 1472 c 0,81,82
 508 1472 508 1472 569 1444 c 128,-1,83
 630 1416 630 1416 674 1368.5 c 128,-1,84
 718 1321 718 1321 742.5 1257.5 c 128,-1,85
 767 1194 767 1194 767 1122 c 0,86,87
 767 1052 767 1052 743.5 988 c 128,-1,88
 720 924 720 924 677.5 874.5 c 128,-1,89
 635 825 635 825 575.5 795.5 c 128,-1,90
 516 766 516 766 443 766 c 256,91,92
 370 766 370 766 308.5 794.5 c 128,-1,93
 247 823 247 823 202 871.5 c 128,-1,94
 157 920 157 920 132 984 c 128,-1,95
 107 1048 107 1048 107 1119 c 0,76,77
278 1122 m 0,96,97
 278 1090 278 1090 289.5 1057 c 128,-1,98
 301 1024 301 1024 322 997 c 128,-1,99
 343 970 343 970 372.5 953 c 128,-1,100
 402 936 402 936 437 936 c 0,101,102
 474 936 474 936 504 952.5 c 128,-1,103
 534 969 534 969 554 995 c 128,-1,104
 574 1021 574 1021 585 1054.5 c 128,-1,105
 596 1088 596 1088 596 1122 c 0,106,107
 596 1155 596 1155 585.5 1187 c 128,-1,108
 575 1219 575 1219 554.5 1244.5 c 128,-1,109
 534 1270 534 1270 505 1286 c 128,-1,110
 476 1302 476 1302 440 1302 c 0,111,112
 405 1302 405 1302 375 1286.5 c 128,-1,113
 345 1271 345 1271 323.5 1246 c 128,-1,114
 302 1221 302 1221 290 1188.5 c 128,-1,115
 278 1156 278 1156 278 1122 c 0,96,97
EndSplineSet
Validated: 1
EndChar

StartChar: ampersand
Encoding: 38 38 9
Width: 1247
GlyphClass: 2
Flags: W
LayerCount: 2
Fore
SplineSet
868 234 m 1,0,1
 828 197 828 197 785 157.5 c 128,-1,2
 742 118 742 118 694 85 c 128,-1,3
 646 52 646 52 593 31 c 128,-1,4
 540 10 540 10 482 10 c 0,5,6
 398 10 398 10 318 35.5 c 128,-1,7
 238 61 238 61 176 109.5 c 128,-1,8
 114 158 114 158 76 228.5 c 128,-1,9
 38 299 38 299 38 389 c 0,10,11
 38 466 38 466 68 522.5 c 128,-1,12
 98 579 98 579 142 626 c 128,-1,13
 186 673 186 673 237 716.5 c 128,-1,14
 288 760 288 760 332 812 c 1,15,16
 296 848 296 848 261 884 c 128,-1,17
 226 920 226 920 199 959.5 c 128,-1,18
 172 999 172 999 156 1044.5 c 128,-1,19
 140 1090 140 1090 140 1144 c 0,20,21
 140 1220 140 1220 175 1284 c 128,-1,22
 210 1348 210 1348 267 1394 c 128,-1,23
 324 1440 324 1440 396 1465.5 c 128,-1,24
 468 1491 468 1491 538 1491 c 0,25,26
 604 1491 604 1491 670 1463.5 c 128,-1,27
 736 1436 736 1436 788 1389.5 c 128,-1,28
 840 1343 840 1343 872 1281.5 c 128,-1,29
 904 1220 904 1220 904 1152 c 0,30,31
 904 1095 904 1095 884 1046 c 128,-1,32
 864 997 864 997 831 955 c 128,-1,33
 798 913 798 913 757 876.5 c 128,-1,34
 716 840 716 840 674 807 c 1,35,-1
 670 803 l 2,36,37
 670 802 670 802 670 801 c 2,38,-1
 884 502 l 1,39,-1
 1038 716 l 2,40,41
 1050 732 1050 732 1065 737.5 c 128,-1,42
 1080 743 1080 743 1098 743 c 0,43,44
 1132 743 1132 743 1155 724 c 128,-1,45
 1178 705 1178 705 1178 670 c 0,46,47
 1178 654 1178 654 1172 637.5 c 128,-1,48
 1166 621 1166 621 1156 609 c 1,49,-1
 984 373 l 1,50,51
 984 371 984 371 982 368 c 128,-1,52
 980 365 980 365 980 363 c 2,53,-1
 980 360 l 1,54,-1
 980 357 l 2,55,56
 980 355 980 355 982 351 c 0,57,58
 982 349 982 349 984 347 c 2,59,-1
 1198 58 l 2,60,61
 1206 47 1206 47 1208 35.5 c 128,-1,62
 1210 24 1210 24 1210 12 c 0,63,64
 1210 -18 1210 -18 1189 -39 c 128,-1,65
 1168 -60 1168 -60 1138 -60 c 256,66,67
 1108 -60 1108 -60 1088 -45 c 128,-1,68
 1068 -30 1068 -30 1048 -6 c 1,69,-1
 872 229 l 1,70,-1
 868 234 l 1,0,1
198 392 m 0,71,72
 198 334 198 334 224 291 c 128,-1,73
 250 248 250 248 291 220 c 128,-1,74
 332 192 332 192 384 178.5 c 128,-1,75
 436 165 436 165 488 165 c 0,76,77
 512 165 512 165 538 176 c 128,-1,78
 564 187 564 187 589 203.5 c 128,-1,79
 614 220 614 220 636 238.5 c 128,-1,80
 658 257 658 257 674 272 c 0,81,82
 686 283 686 283 703 299.5 c 128,-1,83
 720 316 720 316 738 333 c 1,84,85
 756 352 756 352 776 373 c 1,86,-1
 572 668 l 1,87,88
 570 673 570 673 563 682.5 c 128,-1,89
 556 692 556 692 547 702 c 128,-1,90
 538 712 538 712 528 719 c 128,-1,91
 518 726 518 726 508 726 c 0,92,93
 480 726 480 726 446 709.5 c 128,-1,94
 412 693 412 693 377 666 c 128,-1,95
 342 639 342 639 310 604 c 128,-1,96
 278 569 278 569 253 532 c 128,-1,97
 228 495 228 495 213 458.5 c 128,-1,98
 198 422 198 422 198 392 c 0,71,72
294 1144 m 0,99,100
 294 1111 294 1111 315 1069 c 128,-1,101
 336 1027 336 1027 367 990 c 128,-1,102
 398 953 398 953 436 928 c 128,-1,103
 474 903 474 903 508 903 c 0,104,105
 532 903 532 903 559 915 c 128,-1,106
 586 927 586 927 613 946.5 c 128,-1,107
 640 966 640 966 664 992 c 128,-1,108
 688 1018 688 1018 707 1045.5 c 128,-1,109
 726 1073 726 1073 738 1100.5 c 128,-1,110
 750 1128 750 1128 750 1152 c 0,111,112
 750 1186 750 1186 729 1219 c 128,-1,113
 708 1252 708 1252 677 1278 c 128,-1,114
 646 1304 646 1304 609 1320 c 128,-1,115
 572 1336 572 1336 540 1336 c 0,116,117
 502 1336 502 1336 459 1321.5 c 128,-1,118
 416 1307 416 1307 379 1281.5 c 128,-1,119
 342 1256 342 1256 318 1221 c 128,-1,120
 294 1186 294 1186 294 1144 c 0,99,100
EndSplineSet
Validated: 1
EndChar

StartChar: quotesingle
Encoding: 39 39 10
Width: 542
GlyphClass: 2
Flags: W
LayerCount: 2
Fore
SplineSet
423 1497 m 1,0,-1
 423 1438 l 2,1,2
 423 1312 423 1312 366 1181 c 128,-1,3
 309 1050 309 1050 242 1002 c 0,4,5
 206 977 206 977 176 977 c 0,6,7
 126 977 126 977 92 1011 c 0,8,9
 69 1033 69 1033 69.2523364486 1049.44449297 c 0,10,11
 69.3943446329 1058.69901248 69.3943446329 1058.69901248 76 1066 c 0,12,13
 195 1204 195 1204 230 1374 c 0,14,15
 242 1428 242 1428 248 1473 c 0,16,17
 260 1553 260 1553 330.5 1553 c 128,-1,18
 401 1553 401 1553 423 1497 c 1,0,-1
EndSplineSet
Validated: 1
EndChar

StartChar: parenleft
Encoding: 40 40 11
Width: 720
GlyphClass: 2
Flags: W
LayerCount: 2
Fore
SplineSet
607 -341 m 0,0,1
 509 -251 509 -251 427.5 -147.5 c 128,-1,2
 346 -44 346 -44 288 71 c 128,-1,3
 230 186 230 186 198 312 c 128,-1,4
 166 438 166 438 166 573 c 0,5,6
 166 622 166 622 178.5 691.5 c 128,-1,7
 191 761 191 761 213.5 842 c 128,-1,8
 236 923 236 923 267.5 1009.5 c 128,-1,9
 299 1096 299 1096 338.5 1179 c 128,-1,10
 378 1262 378 1262 423.5 1337 c 128,-1,11
 469 1412 469 1412 519 1468 c 128,-1,12
 569 1524 569 1524 622.5 1557 c 128,-1,13
 676 1590 676 1590 731 1590 c 0,14,15
 775 1590 775 1590 801 1566 c 0,16,17
 825 1544 825 1544 827 1497 c 0,18,19
 828 1484 828 1484 828 1470 c 128,-1,20
 828 1456 828 1456 820 1446 c 1,21,22
 731 1357 731 1357 649 1259.5 c 128,-1,23
 567 1162 567 1162 504 1055 c 128,-1,24
 441 948 441 948 403 829.5 c 128,-1,25
 365 711 365 711 365 580 c 0,26,27
 365 479 365 479 394.5 385 c 128,-1,28
 424 291 424 291 468.5 207 c 128,-1,29
 513 123 513 123 565 50 c 128,-1,30
 617 -23 617 -23 661.5 -83.5 c 128,-1,31
 706 -144 706 -144 735.5 -190 c 128,-1,32
 765 -236 765 -236 765 -266 c 0,33,34
 765 -308 765 -308 739 -335 c 128,-1,35
 713 -362 713 -362 669 -362 c 0,36,37
 651 -362 651 -362 636.5 -358.5 c 128,-1,38
 622 -355 622 -355 607 -341 c 0,0,1
EndSplineSet
Validated: 1
EndChar

StartChar: parenright
Encoding: 41 41 12
Width: 871
GlyphClass: 2
Flags: W
LayerCount: 2
Fore
SplineSet
298 -339 m 0,0,1
 283 -353 283 -353 268.5 -356.5 c 128,-1,2
 254 -360 254 -360 236 -360 c 0,3,4
 192 -360 192 -360 166 -333 c 128,-1,5
 140 -306 140 -306 140 -264 c 0,6,7
 140 -234 140 -234 169.5 -188 c 128,-1,8
 199 -142 199 -142 243.5 -81.5 c 128,-1,9
 288 -21 288 -21 340 52 c 128,-1,10
 392 125 392 125 436.5 209 c 128,-1,11
 481 293 481 293 510.5 387 c 128,-1,12
 540 481 540 481 540 582 c 0,13,14
 540 713 540 713 502 831.5 c 128,-1,15
 464 950 464 950 401 1057 c 128,-1,16
 338 1164 338 1164 256 1261.5 c 128,-1,17
 174 1359 174 1359 85 1448 c 1,18,19
 78 1458 78 1458 78 1472 c 128,-1,20
 78 1486 78 1486 78 1499 c 0,21,22
 80 1546 80 1546 104 1568 c 0,23,24
 130 1592 130 1592 174 1592 c 0,25,26
 229 1592 229 1592 282.5 1559 c 128,-1,27
 336 1526 336 1526 386 1470 c 128,-1,28
 436 1414 436 1414 481.5 1339 c 128,-1,29
 527 1264 527 1264 566.5 1181 c 128,-1,30
 606 1098 606 1098 637.5 1011.5 c 128,-1,31
 669 925 669 925 691.5 844 c 128,-1,32
 714 763 714 763 726.5 693.5 c 128,-1,33
 739 624 739 624 739 575 c 0,34,35
 739 440 739 440 707 314 c 128,-1,36
 675 188 675 188 617 73 c 128,-1,37
 559 -42 559 -42 477.5 -145.5 c 128,-1,38
 396 -249 396 -249 298 -339 c 0,0,1
EndSplineSet
Validated: 1
EndChar

StartChar: asterisk
Encoding: 42 42 13
Width: 894
GlyphClass: 2
Flags: W
LayerCount: 2
Fore
SplineSet
253 899 m 2,0,1
 236 884 236 884 223 884 c 2,2,-1
 199 884 l 2,3,4
 162 884 162 884 135 906.5 c 128,-1,5
 108 929 108 929 108 969 c 0,6,7
 108 1024 108 1024 143 1042 c 2,8,-1
 355 1155 l 1,9,-1
 151 1269 l 1,10,11
 108 1298 108 1298 108 1342 c 128,-1,12
 108 1386 108 1386 127 1405 c 0,13,14
 158 1436 158 1436 193 1436 c 0,15,16
 232 1436 232 1436 247 1421 c 2,17,-1
 402 1273 l 1,18,-1
 382 1450 l 2,19,20
 381.375 1454.375 381.375 1454.375 381.375 1458.578125 c 0,21,22
 381.375 1488 381.375 1488 412 1509 c 0,23,24
 440 1529 440 1529 464 1529 c 0,25,26
 503 1529 503 1529 516 1511 c 0,27,28
 556 1458 556 1458 557.5 1403 c 128,-1,29
 559 1348 559 1348 559 1318 c 2,30,-1
 559 1291 l 1,31,-1
 572 1310 l 1,32,33
 581 1318 581 1318 614 1350 c 128,-1,34
 647 1382 647 1382 657.5 1392 c 128,-1,35
 668 1402 668 1402 673 1406 c 0,36,37
 706 1436 706 1436 728 1436 c 2,38,-1
 741 1436 l 2,39,40
 804 1436 804 1436 824 1381 c 0,41,42
 830 1365 830 1365 830 1350 c 0,43,44
 830 1308 830 1308 819 1295 c 0,45,46
 807 1280 807 1280 798 1273 c 2,47,-1
 604 1149 l 1,48,-1
 786 1051 l 2,49,50
 830 1027 830 1027 830 979 c 0,51,52
 830 884 830 884 743 884 c 0,53,54
 692 884 692 884 576 1016 c 0,55,56
 563 1031 563 1031 551 1045 c 1,57,-1
 551 822 l 2,58,59
 551 814 551 814 555 805 c 0,60,61
 557.083333333 800.208333333 557.083333333 800.208333333 557.083333333 795.807291667 c 0,62,63
 557.083333333 779.083333333 557.083333333 779.083333333 527 768 c 0,64,65
 506 760 506 760 493 760 c 0,66,67
 458 760 458 760 439 771 c 0,68,69
 413.285714286 787.285714286 413.285714286 787.285714286 413.285714286 805.040816327 c 0,70,71
 413.285714286 808 413.285714286 808 414 811 c 0,72,73
 416 820 416 820 417 833 c 2,74,-1
 417 1047 l 1,75,-1
 253 899 l 2,0,1
EndSplineSet
Validated: 1
EndChar

StartChar: plus
Encoding: 43 43 14
Width: 1650
GlyphClass: 2
Flags: W
LayerCount: 2
Fore
SplineSet
660 149 m 1,0,1
 663 164 663 164 669 200 c 128,-1,2
 675 236 675 236 682.5 282 c 128,-1,3
 690 328 690 328 698 379 c 128,-1,4
 706 430 706 430 713 476 c 0,5,6
 724 548 724 548 726 558 c 0,7,8
 735 600 735 600 735 609 c 0,9,10
 735 612 735 612 736 621.5 c 128,-1,11
 737 631 737 631 738.5 642 c 128,-1,12
 740 653 740 653 741.5 662.5 c 128,-1,13
 743 672 743 672 743 675 c 1,14,15
 725 680 725 680 686.5 680 c 128,-1,16
 648 680 648 680 599 680.5 c 128,-1,17
 550 681 550 681 495.5 681 c 128,-1,18
 441 681 441 681 391.5 681.5 c 128,-1,19
 342 682 342 682 303.5 682 c 128,-1,20
 265 682 265 682 247 686 c 0,21,22
 233 689 233 689 192 696 c 1,23,24
 162 700 162 700 137.5 710.5 c 128,-1,25
 113 721 113 721 97 740 c 128,-1,26
 81 759 81 759 81 793 c 0,27,28
 81 821 81 821 90.5 838 c 128,-1,29
 100 855 100 855 117 864.5 c 128,-1,30
 134 874 134 874 156 877 c 0,31,32
 198 883 198 883 206 880 c 2,33,-1
 247 867 l 1,34,-1
 793 867 l 1,35,-1
 793 1410 l 2,36,37
 793 1454 793 1454 809.5 1482 c 128,-1,38
 826 1510 826 1510 864 1510 c 0,39,40
 900 1510 900 1510 924.5 1499 c 128,-1,41
 949 1488 949 1488 964.5 1468 c 128,-1,42
 980 1448 980 1448 986 1420 c 1,43,44
 995 1385 995 1385 993 1360 c 0,45,46
 984 1239 984 1239 979.5 1141 c 128,-1,47
 975 1043 975 1043 975 921 c 2,48,-1
 975 845 l 1,49,-1
 1482 821 l 1,50,51
 1504 821 1504 821 1519.5 818 c 128,-1,52
 1535 815 1535 815 1545 809 c 128,-1,53
 1555 803 1555 803 1560 792 c 128,-1,54
 1565 781 1565 781 1565 762 c 0,55,56
 1565 712 1565 712 1545.5 686.5 c 128,-1,57
 1526 661 1526 661 1482 642 c 1,58,-1
 1337 642 l 1,59,60
 1246 646 1246 646 1156.5 648 c 128,-1,61
 1067 650 1067 650 976 650 c 2,62,-1
 951 650 l 1,63,-1
 943 625 l 1,64,65
 941 611 941 611 936.5 580 c 128,-1,66
 932 549 932 549 926 509 c 128,-1,67
 920 469 920 469 914 424.5 c 128,-1,68
 908 380 908 380 902 340 c 128,-1,69
 896 300 896 300 891.5 268.5 c 128,-1,70
 887 237 887 237 885 224 c 0,71,72
 879 193 879 193 878 154 c 128,-1,73
 877 115 877 115 870 81 c 128,-1,74
 863 47 863 47 843.5 23.5 c 128,-1,75
 824 0 824 0 781 0 c 0,76,77
 727 0 727 0 693.5 33.5 c 128,-1,78
 660 67 660 67 660 120 c 2,79,-1
 660 149 l 1,0,1
EndSplineSet
Validated: 1
EndChar

StartChar: comma
Encoding: 44 44 15
Width: 720
GlyphClass: 2
Flags: W
LayerCount: 2
Fore
SplineSet
76 -185 m 0,0,1
 121 -133 121 -133 151 -83 c 128,-1,2
 181 -33 181 -33 200 18 c 128,-1,3
 219 69 219 69 230 122.5 c 128,-1,4
 241 176 241 176 249 234 c 0,5,6
 254 266 254 266 280 284 c 128,-1,7
 306 302 306 302 336 302 c 0,8,9
 368 302 368 302 389.5 289 c 128,-1,10
 411 276 411 276 423 246 c 1,11,-1
 423 187 l 2,12,13
 423 155 423 155 415.5 108 c 128,-1,14
 408 61 408 61 393 9.5 c 128,-1,15
 378 -42 378 -42 356 -92.5 c 128,-1,16
 334 -143 334 -143 305.5 -183.5 c 128,-1,17
 277 -224 277 -224 242 -249 c 128,-1,18
 207 -274 207 -274 166 -274 c 0,19,20
 146 -274 146 -274 126 -264 c 128,-1,21
 106 -254 106 -254 91.5 -240 c 128,-1,22
 77 -226 77 -226 71.5 -211 c 128,-1,23
 66 -196 66 -196 76 -185 c 0,0,1
EndSplineSet
Validated: 1
EndChar

StartChar: hyphen
Encoding: 45 45 16
AltUni2: 0000ad.ffffffff.0
Width: 679
GlyphClass: 2
Flags: W
LayerCount: 2
Fore
SplineSet
564 522 m 0,0,1
 392.125 497 392.125 497 236.423469388 497 c 0,2,3
 18.5008635579 497 18.5008635579 497 18.5008635579 570.770001283 c 0,4,5
 18.5008635579 574.300518135 18.5008635579 574.300518135 19 578 c 0,6,7
 34 697 34 697 104 705 c 0,8,9
 316.671232877 730.684931507 316.671232877 730.684931507 449.355601426 730.684931507 c 0,10,11
 669.487965336 730.684931507 669.487965336 730.684931507 669.487965336 661.680290908 c 0,12,13
 669.487965336 660.848917197 669.487965336 660.848917197 669.45601173 660.007527025 c 0,14,15
 669 648 669 648 664 636 c 8,16,17
 619 530 619 530 564 522 c 0,0,1
EndSplineSet
Validated: 1
EndChar

StartChar: period
Encoding: 46 46 17
Width: 720
GlyphClass: 2
Flags: W
LayerCount: 2
Fore
SplineSet
106 151 m 256,0,1
 106 181 106 181 117.5 208 c 128,-1,2
 129 235 129 235 148.5 255 c 128,-1,3
 168 275 168 275 195 286.5 c 128,-1,4
 222 298 222 298 252 298 c 256,5,6
 282 298 282 298 309 286.5 c 128,-1,7
 336 275 336 275 356 255 c 128,-1,8
 376 235 376 235 387.5 208 c 128,-1,9
 399 181 399 181 399 151 c 256,10,11
 399 121 399 121 387.5 94 c 128,-1,12
 376 67 376 67 356 47.5 c 128,-1,13
 336 28 336 28 309 16.5 c 128,-1,14
 282 5 282 5 252 5 c 256,15,16
 222 5 222 5 195 16.5 c 128,-1,17
 168 28 168 28 148.5 47.5 c 128,-1,18
 129 67 129 67 117.5 94 c 128,-1,19
 106 121 106 121 106 151 c 256,0,1
EndSplineSet
Validated: 1
EndChar

StartChar: slash
Encoding: 47 47 18
Width: 944
GlyphClass: 2
Flags: W
LayerCount: 2
Fore
SplineSet
119 0 m 4,0,1
 119 22 119 22 124.5 47 c 132,-1,2
 130 72 130 72 139 96 c 132,-1,3
 148 120 148 120 158.5 143 c 132,-1,4
 169 166 169 166 179 186 c 5,5,-1
 490 895 l 5,6,7
 517 950 517 950 545.5 1024.5 c 132,-1,8
 574 1099 574 1099 600 1177 c 132,-1,9
 626 1255 626 1255 647 1327.5 c 132,-1,10
 668 1400 668 1400 682 1451 c 5,11,12
 703 1511 703 1511 765 1511 c 4,13,14
 785 1511 785 1511 803.5 1504.5 c 132,-1,15
 822 1498 822 1498 836.5 1486 c 132,-1,16
 851 1474 851 1474 859.5 1459 c 132,-1,17
 868 1444 868 1444 868 1422 c 4,18,19
 868 1372 868 1372 856.5 1312.5 c 132,-1,20
 845 1253 845 1253 825.5 1189.5 c 132,-1,21
 806 1126 806 1126 781 1062 c 132,-1,22
 756 998 756 998 729.5 937.5 c 132,-1,23
 703 877 703 877 677 823.5 c 132,-1,24
 651 770 651 770 629 729 c 5,25,-1
 351 94 l 5,26,27
 337 68 337 68 328 35.5 c 132,-1,28
 319 3 319 3 305.5 -25.5 c 132,-1,29
 292 -54 292 -54 270.5 -73 c 132,-1,30
 249 -92 249 -92 212 -92 c 4,31,32
 172 -92 172 -92 145.5 -66 c 132,-1,33
 119 -40 119 -40 119 0 c 4,0,1
EndSplineSet
Validated: 1
EndChar

StartChar: zero
Encoding: 48 48 19
Width: 1366
GlyphClass: 2
Flags: W
LayerCount: 2
Fore
SplineSet
115 767 m 0,0,1
 115 833 115 833 131 952 c 0,2,3
 142 1030 142 1030 180 1128 c 0,4,5
 212 1213 212 1213 260.5 1286.5 c 128,-1,6
 309 1360 309 1360 374 1413.5 c 128,-1,7
 439 1467 439 1467 520.5 1498 c 128,-1,8
 602 1529 602 1529 700 1529 c 0,9,10
 797 1529 797 1529 872.5 1491.5 c 128,-1,11
 948 1454 948 1454 1005 1391 c 128,-1,12
 1062 1328 1062 1328 1102 1245 c 128,-1,13
 1142 1162 1142 1162 1167 1071.5 c 128,-1,14
 1192 981 1192 981 1203 888.5 c 128,-1,15
 1214 796 1214 796 1214 713 c 0,16,17
 1214 637 1214 637 1201.5 557 c 128,-1,18
 1189 477 1189 477 1163 400.5 c 128,-1,19
 1137 324 1137 324 1097 254 c 128,-1,20
 1057 184 1057 184 1003 128 c 128,-1,21
 949 72 949 72 880 33.5 c 128,-1,22
 811 -5 811 -5 727 -19 c 1,23,-1
 639 -19 l 2,24,25
 526 -19 526 -19 443 9 c 128,-1,26
 360 37 360 37 302 88 c 128,-1,27
 244 139 244 139 207.5 211 c 128,-1,28
 171 283 171 283 146.5 370 c 128,-1,29
 122 457 122 457 118.5 557.5 c 128,-1,30
 115 658 115 658 115 767 c 0,0,1
286 761 m 0,31,32
 286 677 286 677 287 599.5 c 128,-1,33
 288 522 288 522 299.5 454.5 c 128,-1,34
 311 387 311 387 332.5 331.5 c 128,-1,35
 354 276 354 276 393.5 236 c 128,-1,36
 433 196 433 196 492.5 174 c 128,-1,37
 552 152 552 152 639 152 c 0,38,39
 709 152 709 152 766 176.5 c 128,-1,40
 823 201 823 201 868 243 c 128,-1,41
 913 285 913 285 946 340.5 c 128,-1,42
 979 396 979 396 1000.5 458 c 128,-1,43
 1022 520 1022 520 1032 584 c 1,44,45
 1044 653 1044 653 1044 691 c 0,46,47
 1044 702 1044 702 1043 710 c 0,48,49
 1038 750 1038 750 1038 838 c 0,50,51
 1038 908 1038 908 1020.5 979 c 128,-1,52
 1003 1050 1003 1050 978 1117.5 c 128,-1,53
 953 1185 953 1185 914.5 1237 c 128,-1,54
 876 1289 876 1289 822.5 1320.5 c 128,-1,55
 769 1352 769 1352 697 1352 c 0,56,57
 623 1352 623 1352 563.5 1327.5 c 128,-1,58
 504 1303 504 1303 458 1260 c 128,-1,59
 412 1217 412 1217 379.5 1159.5 c 128,-1,60
 347 1102 347 1102 326 1036 c 1,61,62
 304 963 304 963 296 900 c 0,63,64
 286 819 286 819 286 761 c 0,31,32
EndSplineSet
Validated: 1
EndChar

StartChar: one
Encoding: 49 49 20
Width: 1013
GlyphClass: 2
Flags: W
LayerCount: 2
Fore
SplineSet
732 204 m 1,0,-1
 852 181 l 2,1,2
 874 177 874 177 882 172 c 0,3,4
 896 162 896 162 906 148 c 128,-1,5
 916 134 916 134 921.5 117.5 c 128,-1,6
 927 101 927 101 927 87 c 0,7,8
 927 75 927 75 922.5 60.5 c 128,-1,9
 918 46 918 46 910 33.5 c 128,-1,10
 902 21 902 21 890.5 12 c 128,-1,11
 879 3 879 3 865 3 c 2,12,-1
 221 3 l 2,13,14
 197 3 197 3 173.5 6 c 128,-1,15
 150 9 150 9 131.5 18.5 c 128,-1,16
 113 28 113 28 101.5 45.5 c 128,-1,17
 90 63 90 63 90 91 c 0,18,19
 90 106 90 106 93.5 123 c 128,-1,20
 97 140 97 140 105.5 154 c 128,-1,21
 114 168 114 168 127 177.5 c 128,-1,22
 140 187 140 187 159 187 c 2,23,-1
 534 187 l 1,24,-1
 534 1164 l 1,25,-1
 534 1183 l 1,26,27
 500 1157 500 1157 462 1132.5 c 128,-1,28
 424 1108 424 1108 383.5 1088.5 c 128,-1,29
 343 1069 343 1069 300 1057.5 c 128,-1,30
 257 1046 257 1046 212 1046 c 2,31,-1
 178 1046 l 1,32,33
 147 1057 147 1057 134 1078.5 c 128,-1,34
 121 1100 121 1100 121 1133 c 0,35,36
 121 1160 121 1160 136 1180 c 128,-1,37
 151 1200 151 1200 175 1215 c 128,-1,38
 199 1230 199 1230 228.5 1241.5 c 128,-1,39
 258 1253 258 1253 288 1263.5 c 128,-1,40
 318 1274 318 1274 345 1284.5 c 128,-1,41
 372 1295 372 1295 390 1308 c 0,42,43
 447 1350 447 1350 498 1401 c 128,-1,44
 549 1452 549 1452 596 1501 c 1,45,46
 606 1509 606 1509 618 1512 c 0,47,48
 630 1514 630 1514 643 1514 c 0,49,50
 683 1514 683 1514 708 1486 c 128,-1,51
 733 1458 733 1458 733 1417 c 2,52,-1
 733 1408 l 1,53,-1
 732 204 l 1,0,-1
EndSplineSet
Validated: 1
EndChar

StartChar: two
Encoding: 50 50 21
Width: 1315
GlyphClass: 2
Flags: W
LayerCount: 2
Fore
SplineSet
115 88 m 0,0,1
 115 117 115 117 150 161 c 128,-1,2
 185 205 185 205 242.5 260.5 c 128,-1,3
 300 316 300 316 373 381.5 c 128,-1,4
 446 447 446 447 522.5 520 c 128,-1,5
 599 593 599 593 672.5 672 c 128,-1,6
 746 751 746 751 803.5 833 c 128,-1,7
 861 915 861 915 896 998.5 c 128,-1,8
 931 1082 931 1082 931 1164 c 0,9,10
 931 1212 931 1212 904.5 1245.5 c 128,-1,11
 878 1279 878 1279 837.5 1300 c 128,-1,12
 797 1321 797 1321 750 1330 c 128,-1,13
 703 1339 703 1339 662 1339 c 0,14,15
 599 1339 599 1339 546 1308.5 c 128,-1,16
 493 1278 493 1278 449 1232 c 128,-1,17
 405 1186 405 1186 369 1133.5 c 128,-1,18
 333 1081 333 1081 302 1037 c 0,19,20
 288 1018 288 1018 270.5 1012 c 128,-1,21
 253 1006 253 1006 230 1006 c 0,22,23
 196 1006 196 1006 170 1029 c 0,24,25
 145 1051 145 1051 145 1083 c 0,26,27
 145 1086 145 1086 145 1088 c 0,28,29
 146 1099 146 1099 146 1107.5 c 128,-1,30
 146 1116 146 1116 151 1127 c 1,31,32
 201 1196 201 1196 252 1265.5 c 128,-1,33
 303 1335 303 1335 363 1390 c 128,-1,34
 423 1445 423 1445 496 1479.5 c 128,-1,35
 569 1514 569 1514 662 1514 c 0,36,37
 742 1514 742 1514 822.5 1492.5 c 128,-1,38
 903 1471 903 1471 967.5 1427.5 c 128,-1,39
 1032 1384 1032 1384 1072 1317.5 c 128,-1,40
 1112 1251 1112 1251 1112 1160 c 0,41,42
 1112 1070 1112 1070 1083 980.5 c 128,-1,43
 1054 891 1054 891 1005.5 805 c 128,-1,44
 957 719 957 719 894 638 c 128,-1,45
 831 557 831 557 763 483.5 c 128,-1,46
 695 410 695 410 627.5 345 c 128,-1,47
 560 280 560 280 502 227 c 1,48,-1
 511 227 l 1,49,50
 577 233 577 233 641 236 c 128,-1,51
 705 239 705 239 771 239 c 1,52,53
 771 242 771 242 788 242 c 128,-1,54
 805 242 805 242 840 239 c 0,55,56
 883 236 883 236 933 236 c 128,-1,57
 983 236 983 236 1034.5 226 c 128,-1,58
 1086 216 1086 216 1127 199.5 c 128,-1,59
 1168 183 1168 183 1194.5 156 c 128,-1,60
 1221 129 1221 129 1221 88 c 0,61,62
 1221 50 1221 50 1198 30 c 1,63,64
 1175 8 1175 8 1146 8 c 0,65,66
 1141 8 1141 8 1136 9 c 0,67,68
 1093 14 1093 14 1047.5 14 c 128,-1,69
 1002 14 1002 14 955.5 23 c 128,-1,70
 909 32 909 32 862 35 c 1,71,72
 805 37 805 37 782 37 c 0,73,74
 776 37 776 37 771 37 c 0,75,76
 766 36 766 36 634 36 c 1,77,78
 573 33 573 33 501 33 c 0,79,80
 431 33 431 33 369 23 c 1,81,82
 303 16 303 16 236 3 c 1,83,-1
 206 3 l 2,84,85
 167 3 167 3 141 26.5 c 128,-1,86
 115 50 115 50 115 88 c 0,0,1
EndSplineSet
Validated: 1
EndChar

StartChar: three
Encoding: 51 51 22
Width: 1306
GlyphClass: 2
Flags: W
LayerCount: 2
Fore
SplineSet
78 290 m 0,0,1
 78 308 78 308 85 324.5 c 128,-1,2
 92 341 92 341 103.5 353.5 c 128,-1,3
 115 366 115 366 131 373 c 128,-1,4
 147 380 147 380 165 380 c 0,5,6
 207 380 207 380 250.5 365.5 c 128,-1,7
 294 351 294 351 340 330 c 128,-1,8
 386 309 386 309 434 283.5 c 128,-1,9
 482 258 482 258 532.5 237 c 128,-1,10
 583 216 583 216 636 201.5 c 128,-1,11
 689 187 689 187 745 187 c 0,12,13
 772 187 772 187 806 190.5 c 128,-1,14
 840 194 840 194 874.5 202 c 128,-1,15
 909 210 909 210 942 223.5 c 128,-1,16
 975 237 975 237 1000.5 257.5 c 128,-1,17
 1026 278 1026 278 1041.5 306 c 128,-1,18
 1057 334 1057 334 1057 371 c 0,19,20
 1057 416 1057 416 1038.5 454.5 c 128,-1,21
 1020 493 1020 493 989.5 526.5 c 128,-1,22
 959 560 959 560 920 587.5 c 128,-1,23
 881 615 881 615 728.5 650.5 c 128,-1,24
 576 686 576 686 535 705 c 128,-1,25
 494 724 494 724 461 739 c 1,26,27
 448 749 448 749 440.5 757.5 c 128,-1,28
 433 766 433 766 428.5 775 c 128,-1,29
 424 784 424 784 423.5 795.5 c 128,-1,30
 423 807 423 807 423 823 c 2,31,32
 423 838 l 0,33,34
 423 844 423 844 423.5 849 c 128,-1,35
 424 854 424 854 427 860 c 0,36,37
 431 871 431 871 436 875 c 2,38,-1
 954 1302 l 1,39,-1
 954 1308 l 1,40,41
 857 1308 857 1308 760.5 1301.5 c 128,-1,42
 664 1295 664 1295 564 1295 c 0,43,44
 542 1295 542 1295 502 1293 c 128,-1,45
 462 1291 462 1291 414.5 1291 c 128,-1,46
 367 1291 367 1291 317.5 1296.5 c 128,-1,47
 268 1302 268 1302 227.5 1316 c 128,-1,48
 187 1330 187 1330 161.5 1356 c 128,-1,49
 136 1382 136 1382 136 1424 c 0,50,51
 136 1460 136 1460 160 1486 c 0,52,53
 186 1514 186 1514 226 1514 c 0,54,55
 231 1514 231 1514 236 1514 c 0,56,57
 240 1514 240 1514 244 1514 c 0,58,59
 267 1514 267 1514 312 1510 c 0,60,61
 353 1506 353 1506 400 1501 c 0,62,63
 443 1496 443 1496 486.5 1491 c 128,-1,64
 530 1486 530 1486 574 1486 c 0,65,66
 708 1486 708 1486 839.5 1497 c 128,-1,67
 971 1508 971 1508 1105 1508 c 0,68,69
 1130 1508 1130 1508 1155 1504 c 0,70,71
 1170 1503 1170 1503 1200 1491 c 0,72,73
 1242 1474 1242 1474 1245 1467 c 0,74,75
 1255 1443 1255 1443 1255 1382 c 0,76,77
 1255 1372 1255 1372 1244 1356 c 0,78,79
 1239 1348 1239 1348 1234 1340 c 24,80,-1
 716 863 l 1,81,-1
 717 851 l 1,82,83
 855 813 855 813 933 784 c 0,84,85
 1058 737 1058 737 1130 653 c 0,86,87
 1183 591 1183 591 1216.5 523.5 c 128,-1,88
 1250 456 1250 456 1250 374 c 0,89,90
 1250 308 1250 308 1228.5 254.5 c 128,-1,91
 1207 201 1207 201 1170 159.5 c 128,-1,92
 1133 118 1133 118 1083.5 88 c 128,-1,93
 1034 58 1034 58 978 38.5 c 128,-1,94
 922 19 922 19 863 9.5 c 128,-1,95
 804 0 804 0 748 0 c 0,96,97
 721 0 721 0 678.5 5 c 128,-1,98
 636 10 636 10 583.5 20 c 128,-1,99
 531 30 531 30 473.5 45 c 128,-1,100
 416 60 416 60 360 79 c 128,-1,101
 304 98 304 98 253 120.5 c 128,-1,102
 202 143 202 143 163 170 c 128,-1,103
 124 197 124 197 101 227 c 128,-1,104
 78 257 78 257 78 290 c 0,0,1
EndSplineSet
Validated: 1
EndChar

StartChar: four
Encoding: 52 52 23
Width: 1045
GlyphClass: 2
Flags: W
LayerCount: 2
Fore
SplineSet
677 79 m 0,0,1
 677 136 677 136 694.5 202 c 128,-1,2
 712 268 712 268 733.5 339 c 128,-1,3
 755 410 755 410 772.5 484 c 128,-1,4
 790 558 790 558 790 632 c 2,5,-1
 790 660 l 1,6,7
 761 678 761 678 713.5 689.5 c 128,-1,8
 666 701 666 701 609 710 c 128,-1,9
 552 719 552 719 488.5 726 c 128,-1,10
 425 733 425 733 363 741 c 128,-1,11
 301 749 301 749 245 759.5 c 128,-1,12
 189 770 189 770 146.5 786 c 128,-1,13
 104 802 104 802 78.5 824.5 c 128,-1,14
 53 847 53 847 53 879 c 2,15,-1
 53 904 l 1,16,-1
 132 1142 l 2,17,18
 141 1167 141 1167 147 1209 c 128,-1,19
 153 1251 153 1251 157.5 1295.5 c 128,-1,20
 162 1340 162 1340 164 1380 c 128,-1,21
 166 1420 166 1420 166 1443 c 1,22,23
 167 1458 167 1458 174 1470.5 c 128,-1,24
 181 1483 181 1483 191.5 1492 c 128,-1,25
 202 1501 202 1501 215.5 1506 c 128,-1,26
 229 1511 229 1511 243 1511 c 0,27,28
 283 1511 283 1511 306.5 1487.5 c 128,-1,29
 330 1464 330 1464 330 1423 c 0,30,31
 330 1303 330 1303 311 1188.5 c 128,-1,32
 292 1074 292 1074 251 961 c 1,33,-1
 251 955 l 2,34,35
 251 949 251 949 255.5 945.5 c 128,-1,36
 260 942 260 942 268 944 c 1,37,38
 325 935 325 935 396.5 925 c 128,-1,39
 468 915 468 915 541 902.5 c 128,-1,40
 614 890 614 890 683.5 873.5 c 128,-1,41
 753 857 753 857 807 836 c 1,42,-1
 824 1454 l 2,43,44
 824 1466 824 1466 833 1475 c 128,-1,45
 842 1484 842 1484 854.5 1491 c 128,-1,46
 867 1498 867 1498 880.5 1501.5 c 128,-1,47
 894 1505 894 1505 904 1505 c 0,48,49
 936 1505 936 1505 956 1486 c 128,-1,50
 976 1467 976 1467 983 1437 c 1,51,52
 983 1426 983 1426 983.5 1400 c 128,-1,53
 984 1374 984 1374 984.5 1345 c 128,-1,54
 985 1316 985 1316 985.5 1289.5 c 128,-1,55
 986 1263 986 1263 986 1253 c 0,56,57
 986 1236 986 1236 985.5 1206 c 128,-1,58
 985 1176 985 1176 984.5 1146.5 c 128,-1,59
 984 1117 984 1117 983.5 1094 c 128,-1,60
 983 1071 983 1071 983 1068 c 0,61,62
 982 1048 982 1048 980 1005 c 128,-1,63
 978 962 978 962 975 907.5 c 128,-1,64
 972 853 972 853 968 793.5 c 128,-1,65
 964 734 964 734 960.5 679.5 c 128,-1,66
 957 625 957 625 954 582 c 128,-1,67
 951 539 951 539 949 519 c 0,68,69
 947 504 947 504 941 467.5 c 128,-1,70
 935 431 935 431 929 390 c 128,-1,71
 923 349 923 349 917 313 c 128,-1,72
 911 277 911 277 909 263 c 0,73,74
 904 234 904 234 894 190 c 128,-1,75
 884 146 884 146 866.5 104.5 c 128,-1,76
 849 63 849 63 822 33 c 128,-1,77
 795 3 795 3 756 3 c 0,78,79
 720 3 720 3 698.5 23 c 128,-1,80
 677 43 677 43 677 79 c 0,0,1
EndSplineSet
Validated: 1
EndChar

StartChar: five
Encoding: 53 53 24
Width: 1380
GlyphClass: 2
Flags: W
LayerCount: 2
Fore
SplineSet
105 255 m 0,0,1
 105 300 105 300 133 324.5 c 128,-1,2
 161 349 161 349 206 349 c 0,3,4
 260 349 260 349 318 326 c 128,-1,5
 376 303 376 303 439 275 c 128,-1,6
 502 247 502 247 570.5 224 c 128,-1,7
 639 201 639 201 713 201 c 0,8,9
 746 201 746 201 789.5 205.5 c 128,-1,10
 833 210 833 210 880 220 c 128,-1,11
 927 230 927 230 972 247.5 c 128,-1,12
 1017 265 1017 265 1053 290.5 c 128,-1,13
 1089 316 1089 316 1111 351.5 c 128,-1,14
 1133 387 1133 387 1133 433 c 0,15,16
 1133 505 1133 505 1092.5 553 c 128,-1,17
 1052 601 1052 601 986 632.5 c 128,-1,18
 920 664 920 664 835.5 682.5 c 128,-1,19
 751 701 751 701 663 714.5 c 128,-1,20
 575 728 575 728 490.5 740 c 128,-1,21
 406 752 406 752 340 770.5 c 128,-1,22
 274 789 274 789 233.5 817.5 c 128,-1,23
 193 846 193 846 193 893 c 2,24,-1
 193 926 l 1,25,26
 199 944 199 944 209.5 970.5 c 128,-1,27
 220 997 220 997 231 1027 c 128,-1,28
 242 1057 242 1057 250 1087 c 128,-1,29
 258 1117 258 1117 260 1141 c 2,30,-1
 273 1430 l 1,31,32
 273 1458 273 1458 294 1480 c 128,-1,33
 315 1502 315 1502 340 1510 c 1,34,-1
 417 1510 l 1,35,-1
 495 1510 l 1,36,37
 522 1509 522 1509 578.5 1507 c 128,-1,38
 635 1505 635 1505 706.5 1502.5 c 128,-1,39
 778 1500 778 1500 857 1497 c 128,-1,40
 936 1494 936 1494 1007.5 1491 c 128,-1,41
 1079 1488 1079 1488 1136 1486 c 128,-1,42
 1193 1484 1193 1484 1220 1483 c 1,43,44
 1252 1473 1252 1473 1269.5 1447.5 c 128,-1,45
 1287 1422 1287 1422 1287 1389 c 0,46,47
 1287 1351 1287 1351 1264 1327 c 128,-1,48
 1241 1303 1241 1303 1206 1295 c 1,49,-1
 1035 1295 l 2,50,51
 908 1295 908 1295 781.5 1302 c 128,-1,52
 655 1309 655 1309 528 1309 c 2,53,-1
 468 1309 l 1,54,55
 466 1271 466 1271 460 1229.5 c 128,-1,56
 454 1188 454 1188 446.5 1146.5 c 128,-1,57
 439 1105 439 1105 433.5 1064 c 128,-1,58
 428 1023 428 1023 428 987 c 2,59,-1
 428 980 l 1,60,61
 481 963 481 963 547.5 948.5 c 128,-1,62
 614 934 614 934 687.5 917.5 c 128,-1,63
 761 901 761 901 836.5 881.5 c 128,-1,64
 912 862 912 862 983 835.5 c 128,-1,65
 1054 809 1054 809 1116.5 773.5 c 128,-1,66
 1179 738 1179 738 1226 689.5 c 128,-1,67
 1273 641 1273 641 1300 578 c 128,-1,68
 1327 515 1327 515 1327 433 c 0,69,70
 1327 357 1327 357 1299 295 c 128,-1,71
 1271 233 1271 233 1224.5 185 c 128,-1,72
 1178 137 1178 137 1116 102 c 128,-1,73
 1054 67 1054 67 985.5 44.5 c 128,-1,74
 917 22 917 22 847 11 c 128,-1,75
 777 0 777 0 713 0 c 0,76,77
 682 0 682 0 625 7 c 128,-1,78
 568 14 568 14 500.5 28 c 128,-1,79
 433 42 433 42 362.5 63.5 c 128,-1,80
 292 85 292 85 235 113 c 128,-1,81
 178 141 178 141 141.5 176.5 c 128,-1,82
 105 212 105 212 105 255 c 0,0,1
EndSplineSet
Validated: 1
EndChar

StartChar: six
Encoding: 54 54 25
Width: 1205
GlyphClass: 2
Flags: W
LayerCount: 2
Fore
SplineSet
99 880 m 1,0,1
 117 1010 117 1010 171.5 1126.5 c 128,-1,2
 226 1243 226 1243 312 1331.5 c 128,-1,3
 398 1420 398 1420 513 1472 c 128,-1,4
 628 1524 628 1524 767 1524 c 0,5,6
 787 1524 787 1524 816 1526.5 c 128,-1,7
 845 1529 845 1529 876.5 1530 c 128,-1,8
 908 1531 908 1531 940 1528.5 c 128,-1,9
 972 1526 972 1526 997 1517 c 128,-1,10
 1022 1508 1022 1508 1037.5 1489.5 c 128,-1,11
 1053 1471 1053 1471 1053 1441 c 0,12,13
 1053 1403 1053 1403 1026 1380 c 128,-1,14
 999 1357 999 1357 963 1357 c 0,15,16
 914 1357 914 1357 866 1351 c 128,-1,17
 818 1345 818 1345 767 1345 c 0,18,19
 675 1345 675 1345 587 1308.5 c 128,-1,20
 499 1272 499 1272 430.5 1208.5 c 128,-1,21
 362 1145 362 1145 320 1059.5 c 128,-1,22
 278 974 278 974 278 877 c 2,23,-1
 278 862 l 1,24,25
 318 892 318 892 362 919.5 c 128,-1,26
 406 947 406 947 453 967 c 128,-1,27
 500 987 500 987 550 999 c 128,-1,28
 600 1011 600 1011 653 1011 c 0,29,30
 764 1011 764 1011 852 968 c 128,-1,31
 940 925 940 925 1002 853 c 128,-1,32
 1064 781 1064 781 1097 686 c 128,-1,33
 1130 591 1130 591 1130 487 c 0,34,35
 1130 424 1130 424 1107 362 c 128,-1,36
 1084 300 1084 300 1044 244.5 c 128,-1,37
 1004 189 1004 189 950.5 141.5 c 128,-1,38
 897 94 897 94 835.5 59.5 c 128,-1,39
 774 25 774 25 707.5 5.5 c 128,-1,40
 641 -14 641 -14 576 -14 c 0,41,42
 469 -14 469 -14 392 17.5 c 128,-1,43
 315 49 315 49 262 103.5 c 128,-1,44
 209 158 209 158 177 232 c 128,-1,45
 145 306 145 306 127.5 391.5 c 128,-1,46
 110 477 110 477 104.5 569.5 c 128,-1,47
 99 662 99 662 99 755 c 2,48,-1
 99 880 l 1,0,1
278 603 m 0,49,50
 278 519 278 519 290 440 c 128,-1,51
 302 361 302 361 334.5 300 c 128,-1,52
 367 239 367 239 423 202 c 128,-1,53
 479 165 479 165 567 165 c 2,54,-1
 624 165 l 1,55,56
 658 173 658 173 696 190 c 128,-1,57
 734 207 734 207 771 230 c 128,-1,58
 808 253 808 253 842 282 c 128,-1,59
 876 311 876 311 901.5 343.5 c 128,-1,60
 927 376 927 376 942 411.5 c 128,-1,61
 957 447 957 447 957 484 c 0,62,63
 957 554 957 554 937.5 617.5 c 128,-1,64
 918 681 918 681 880 728.5 c 128,-1,65
 842 776 842 776 785 804 c 128,-1,66
 728 832 728 832 653 832 c 0,67,68
 627 832 627 832 589 823.5 c 128,-1,69
 551 815 551 815 509.5 799.5 c 128,-1,70
 468 784 468 784 426.5 762.5 c 128,-1,71
 385 741 385 741 352 715.5 c 128,-1,72
 319 690 319 690 298.5 661.5 c 128,-1,73
 278 633 278 633 278 603 c 0,49,50
EndSplineSet
Validated: 1
EndChar

StartChar: seven
Encoding: 55 55 26
Width: 1338
GlyphClass: 2
Flags: W
LayerCount: 2
Fore
SplineSet
458 134 m 2,0,1
 458 238 458 238 480 342 c 128,-1,2
 502 446 502 446 539.5 548.5 c 128,-1,3
 577 651 577 651 626.5 750.5 c 128,-1,4
 676 850 676 850 732 945 c 128,-1,5
 788 1040 788 1040 847 1129 c 128,-1,6
 906 1218 906 1218 961 1299 c 1,7,-1
 961 1305 l 1,8,9
 879 1305 879 1305 796 1302 c 128,-1,10
 713 1299 713 1299 631 1299 c 0,11,12
 604 1299 604 1299 551 1296 c 128,-1,13
 498 1293 498 1293 434 1292 c 0,14,15
 417 1291 417 1291 399 1291 c 0,16,17
 345 1291 345 1291 303 1294 c 0,18,19
 233 1299 233 1299 182 1312 c 0,20,21
 127 1326 127 1326 92 1353 c 128,-1,22
 57 1380 57 1380 57 1426 c 0,23,24
 57 1436 57 1436 60 1449.5 c 128,-1,25
 63 1463 63 1463 69.5 1475.5 c 128,-1,26
 76 1488 76 1488 86.5 1496.5 c 128,-1,27
 97 1505 97 1505 112 1505 c 2,28,-1
 185 1505 l 1,29,30
 266 1495 266 1495 324 1489 c 128,-1,31
 382 1483 382 1483 433.5 1479.5 c 128,-1,32
 485 1476 485 1476 536.5 1475 c 128,-1,33
 588 1474 588 1474 655 1474 c 0,34,35
 719 1474 719 1474 782 1480 c 128,-1,36
 845 1486 845 1486 908.5 1492.5 c 128,-1,37
 972 1499 972 1499 1035 1505 c 128,-1,38
 1098 1511 1098 1511 1162 1511 c 0,39,40
 1198 1511 1198 1511 1225.5 1491 c 128,-1,41
 1253 1471 1253 1471 1253 1429 c 0,42,43
 1253 1399 1253 1399 1235 1371 c 1,44,45
 1154 1260 1154 1260 1076 1145.5 c 128,-1,46
 998 1031 998 1031 927.5 911.5 c 128,-1,47
 857 792 857 792 796 668 c 128,-1,48
 735 544 735 544 688 413 c 0,49,50
 680 390 680 390 675.5 350.5 c 128,-1,51
 671 311 671 311 666 265.5 c 128,-1,52
 661 220 661 220 654 172.5 c 128,-1,53
 647 125 647 125 633 87 c 128,-1,54
 619 49 619 49 597 24.5 c 128,-1,55
 575 0 575 0 540 0 c 0,56,57
 512 0 512 0 489.5 17 c 128,-1,58
 467 34 467 34 458 61 c 1,59,-1
 458 134 l 2,0,1
EndSplineSet
Validated: 1
EndChar

StartChar: eight
Encoding: 56 56 27
Width: 1059
GlyphClass: 2
Flags: W
LayerCount: 2
Fore
SplineSet
1029 399 m 4,0,1
 1029 343 1029 343 1008.5 292.5 c 132,-1,2
 988 242 988 242 953 198 c 132,-1,3
 918 154 918 154 871 118.5 c 132,-1,4
 824 83 824 83 771.5 58 c 132,-1,5
 719 33 719 33 663 19.5 c 132,-1,6
 607 6 607 6 554 6 c 4,7,8
 463 6 463 6 370.5 38 c 132,-1,9
 278 70 278 70 203 128.5 c 132,-1,10
 128 187 128 187 81 269.5 c 132,-1,11
 34 352 34 352 34 452 c 4,12,13
 34 524 34 524 50 573 c 132,-1,14
 66 622 66 622 91.5 656 c 132,-1,15
 117 690 117 690 150 714 c 132,-1,16
 183 738 183 738 216.5 761 c 132,-1,17
 250 784 250 784 281.5 809.5 c 132,-1,18
 313 835 313 835 336 873 c 5,19,20
 307 907 307 907 276 934.5 c 132,-1,21
 245 962 245 962 215 988 c 132,-1,22
 185 1014 185 1014 158 1040.5 c 132,-1,23
 131 1067 131 1067 110 1098 c 132,-1,24
 89 1129 89 1129 77 1167 c 132,-1,25
 65 1205 65 1205 65 1254 c 4,26,27
 65 1336 65 1336 99 1403 c 132,-1,28
 133 1470 133 1470 189 1517 c 132,-1,29
 245 1564 245 1564 317 1590 c 132,-1,30
 389 1616 389 1616 465 1616 c 4,31,32
 525 1616 525 1616 589.5 1598.5 c 132,-1,33
 654 1581 654 1581 716 1549.5 c 132,-1,34
 778 1518 778 1518 833.5 1474 c 132,-1,35
 889 1430 889 1430 931 1377.5 c 132,-1,36
 973 1325 973 1325 997.5 1265.5 c 132,-1,37
 1022 1206 1022 1206 1022 1143 c 4,38,39
 1022 1082 1022 1082 1000 1032.5 c 132,-1,40
 978 983 978 983 941.5 942.5 c 132,-1,41
 905 902 905 902 858.5 869.5 c 132,-1,42
 812 837 812 837 764 811 c 5,43,-1
 764 808 l 6,44,45
 764 791 764 791 783.5 767.5 c 132,-1,46
 803 744 803 744 832.5 714.5 c 132,-1,47
 862 685 862 685 896.5 650 c 132,-1,48
 931 615 931 615 960.5 575.5 c 132,-1,49
 990 536 990 536 1009.5 491.5 c 132,-1,50
 1029 447 1029 447 1029 399 c 4,0,1
850 403 m 4,51,52
 850 426 850 426 842 445 c 132,-1,53
 834 464 834 464 820 483 c 5,54,55
 812 491 812 491 790 513.5 c 132,-1,56
 768 536 768 536 738 564.5 c 132,-1,57
 708 593 708 593 673 623.5 c 132,-1,58
 638 654 638 654 606 679.5 c 132,-1,59
 574 705 574 705 547 721.5 c 132,-1,60
 520 738 520 738 505 738 c 4,61,62
 475 738 475 738 441.5 725.5 c 132,-1,63
 408 713 408 713 376 692 c 132,-1,64
 344 671 344 671 314 642.5 c 132,-1,65
 284 614 284 614 262 583 c 132,-1,66
 240 552 240 552 226.5 519 c 132,-1,67
 213 486 213 486 213 455 c 4,68,69
 213 393 213 393 246 342.5 c 132,-1,70
 279 292 279 292 329 256.5 c 132,-1,71
 379 221 379 221 439.5 202 c 132,-1,72
 500 183 500 183 554 183 c 4,73,74
 582 183 582 183 614.5 191 c 132,-1,75
 647 199 647 199 680 213 c 132,-1,76
 713 227 713 227 743.5 247 c 132,-1,77
 774 267 774 267 798 291.5 c 132,-1,78
 822 316 822 316 836 344 c 132,-1,79
 850 372 850 372 850 403 c 4,51,52
839 1146 m 4,80,81
 839 1183 839 1183 821 1219 c 132,-1,82
 803 1255 803 1255 773 1287.5 c 132,-1,83
 743 1320 743 1320 704 1347.5 c 132,-1,84
 665 1375 665 1375 623.5 1395 c 132,-1,85
 582 1415 582 1415 541 1426.5 c 132,-1,86
 500 1438 500 1438 465 1438 c 4,87,88
 425 1438 425 1438 386.5 1425.5 c 132,-1,89
 348 1413 348 1413 317.5 1389 c 132,-1,90
 287 1365 287 1365 268.5 1331 c 132,-1,91
 250 1297 250 1297 250 1254 c 4,92,93
 250 1212 250 1212 268 1181.5 c 132,-1,94
 286 1151 286 1151 318 1125 c 6,95,-1
 533 953 l 5,96,97
 537 948 537 948 541.5 947 c 132,-1,98
 546 946 546 946 551 946 c 4,99,100
 574 946 574 946 604.5 954 c 132,-1,101
 635 962 635 962 667 976 c 132,-1,102
 699 990 699 990 729.5 1009 c 132,-1,103
 760 1028 760 1028 784.5 1050.5 c 132,-1,104
 809 1073 809 1073 824 1097 c 132,-1,105
 839 1121 839 1121 839 1146 c 4,80,81
EndSplineSet
Validated: 1
EndChar

StartChar: nine
Encoding: 57 57 28
Width: 1205
GlyphClass: 2
Flags: W
LayerCount: 2
Fore
SplineSet
1130 655 m 1,0,1
 1112 525 1112 525 1054 407.5 c 128,-1,2
 996 290 996 290 906 201 c 128,-1,3
 816 112 816 112 697.5 59.5 c 128,-1,4
 579 7 579 7 440 7 c 0,5,6
 420 7 420 7 391 4.5 c 128,-1,7
 362 2 362 2 330.5 1 c 128,-1,8
 299 0 299 0 267 2.5 c 128,-1,9
 235 5 235 5 210 14 c 128,-1,10
 185 23 185 23 169.5 41 c 128,-1,11
 154 59 154 59 154 90 c 0,12,13
 154 128 154 128 181 151 c 128,-1,14
 208 174 208 174 244 174 c 0,15,16
 293 174 293 174 341 180 c 128,-1,17
 389 186 389 186 440 186 c 0,18,19
 501 186 501 186 563 203 c 128,-1,20
 625 220 625 220 681.5 251 c 128,-1,21
 738 282 738 282 787.5 325 c 128,-1,22
 837 368 837 368 873 420.5 c 128,-1,23
 909 473 909 473 930 533 c 128,-1,24
 951 593 951 593 951 658 c 2,25,-1
 951 673 l 1,26,27
 911 643 911 643 861 615.5 c 128,-1,28
 811 588 811 588 756.5 568 c 128,-1,29
 702 548 702 548 645.5 536 c 128,-1,30
 589 524 589 524 537 524 c 0,31,32
 426 524 426 524 344 567 c 128,-1,33
 262 610 262 610 207.5 682 c 128,-1,34
 153 754 153 754 126 849 c 128,-1,35
 99 944 99 944 99 1048 c 0,36,37
 99 1112 99 1112 121.5 1173.5 c 128,-1,38
 144 1235 144 1235 183.5 1290.5 c 128,-1,39
 223 1346 223 1346 276 1393.5 c 128,-1,40
 329 1441 329 1441 390 1475.5 c 128,-1,41
 451 1510 451 1510 517 1529.5 c 128,-1,42
 583 1549 583 1549 648 1549 c 0,43,44
 755 1549 755 1549 832.5 1517.5 c 128,-1,45
 910 1486 910 1486 963.5 1431.5 c 128,-1,46
 1017 1377 1017 1377 1050 1303 c 128,-1,47
 1083 1229 1083 1229 1100.5 1143.5 c 128,-1,48
 1118 1058 1118 1058 1124 965 c 128,-1,49
 1130 872 1130 872 1130 780 c 2,50,-1
 1130 655 l 1,0,1
951 932 m 0,51,52
 951 1016 951 1016 938 1095 c 128,-1,53
 925 1174 925 1174 892 1235 c 128,-1,54
 859 1296 859 1296 802 1333 c 128,-1,55
 745 1370 745 1370 657 1370 c 2,56,-1
 600 1370 l 1,57,58
 549 1358 549 1358 491 1327 c 128,-1,59
 433 1296 433 1296 384.5 1253 c 128,-1,60
 336 1210 336 1210 304 1158 c 128,-1,61
 272 1106 272 1106 272 1051 c 0,62,63
 272 980 272 980 285.5 917 c 128,-1,64
 299 854 299 854 329.5 806.5 c 128,-1,65
 360 759 360 759 411 731 c 128,-1,66
 462 703 462 703 537 703 c 0,67,68
 563 703 563 703 604 711.5 c 128,-1,69
 645 720 645 720 691 735.5 c 128,-1,70
 737 751 737 751 783 772.5 c 128,-1,71
 829 794 829 794 866.5 819.5 c 128,-1,72
 904 845 904 845 927.5 873.5 c 128,-1,73
 951 902 951 902 951 932 c 0,51,52
EndSplineSet
Validated: 1
EndChar

StartChar: colon
Encoding: 58 58 29
Width: 613
GlyphClass: 2
Flags: W
LayerCount: 2
Fore
SplineSet
238.12890625 151 m 256,0,1
 238.12890625 181 238.12890625 181 249.62890625 208 c 128,-1,2
 261.12890625 235 261.12890625 235 280.62890625 255 c 128,-1,3
 300.12890625 275 300.12890625 275 327.12890625 286.5 c 128,-1,4
 354.12890625 298 354.12890625 298 384.12890625 298 c 256,5,6
 414.12890625 298 414.12890625 298 441.12890625 286.5 c 128,-1,7
 468.12890625 275 468.12890625 275 488.12890625 255 c 128,-1,8
 508.12890625 235 508.12890625 235 519.62890625 208 c 128,-1,9
 531.12890625 181 531.12890625 181 531.12890625 151 c 256,10,11
 531.12890625 121 531.12890625 121 519.62890625 94 c 128,-1,12
 508.12890625 67 508.12890625 67 488.12890625 47.5 c 128,-1,13
 468.12890625 28 468.12890625 28 441.12890625 16.5 c 128,-1,14
 414.12890625 5 414.12890625 5 384.12890625 5 c 256,15,16
 354.12890625 5 354.12890625 5 327.12890625 16.5 c 128,-1,17
 300.12890625 28 300.12890625 28 280.62890625 47.5 c 128,-1,18
 261.12890625 67 261.12890625 67 249.62890625 94 c 128,-1,19
 238.12890625 121 238.12890625 121 238.12890625 151 c 256,0,1
230.12890625 979 m 256,20,21
 230.12890625 1009 230.12890625 1009 241.62890625 1036 c 128,-1,22
 253.12890625 1063 253.12890625 1063 272.62890625 1083 c 128,-1,23
 292.12890625 1103 292.12890625 1103 319.12890625 1114.5 c 128,-1,24
 346.12890625 1126 346.12890625 1126 376.12890625 1126 c 256,25,26
 406.12890625 1126 406.12890625 1126 433.12890625 1114.5 c 128,-1,27
 460.12890625 1103 460.12890625 1103 480.12890625 1083 c 128,-1,28
 500.12890625 1063 500.12890625 1063 511.62890625 1036 c 128,-1,29
 523.12890625 1009 523.12890625 1009 523.12890625 979 c 256,30,31
 523.12890625 949 523.12890625 949 511.62890625 922 c 128,-1,32
 500.12890625 895 500.12890625 895 480.12890625 875.5 c 128,-1,33
 460.12890625 856 460.12890625 856 433.12890625 844.5 c 128,-1,34
 406.12890625 833 406.12890625 833 376.12890625 833 c 256,35,36
 346.12890625 833 346.12890625 833 319.12890625 844.5 c 128,-1,37
 292.12890625 856 292.12890625 856 272.62890625 875.5 c 128,-1,38
 253.12890625 895 253.12890625 895 241.62890625 922 c 128,-1,39
 230.12890625 949 230.12890625 949 230.12890625 979 c 256,20,21
EndSplineSet
Validated: 1
EndChar

StartChar: semicolon
Encoding: 59 59 30
Width: 513
GlyphClass: 2
Flags: W
LayerCount: 2
Fore
SplineSet
76 -185 m 0,0,1
 121 -133 121 -133 151 -83 c 128,-1,2
 181 -33 181 -33 200 18 c 128,-1,3
 219 69 219 69 230 122.5 c 128,-1,4
 241 176 241 176 249 234 c 0,5,6
 254 266 254 266 280 284 c 128,-1,7
 306 302 306 302 336 302 c 0,8,9
 368 302 368 302 389.5 289 c 128,-1,10
 411 276 411 276 423 246 c 1,11,-1
 423 187 l 2,12,13
 423 155 423 155 415.5 108 c 128,-1,14
 408 61 408 61 393 9.5 c 128,-1,15
 378 -42 378 -42 356 -92.5 c 128,-1,16
 334 -143 334 -143 305.5 -183.5 c 128,-1,17
 277 -224 277 -224 242 -249 c 128,-1,18
 207 -274 207 -274 166 -274 c 0,19,20
 146 -274 146 -274 126 -264 c 128,-1,21
 106 -254 106 -254 91.5 -240 c 128,-1,22
 77 -226 77 -226 71.5 -211 c 128,-1,23
 66 -196 66 -196 76 -185 c 0,0,1
169 978 m 256,24,25
 169 1008 169 1008 180.5 1035 c 128,-1,26
 192 1062 192 1062 211.5 1082 c 128,-1,27
 231 1102 231 1102 258 1113.5 c 128,-1,28
 285 1125 285 1125 315 1125 c 256,29,30
 345 1125 345 1125 372 1113.5 c 128,-1,31
 399 1102 399 1102 419 1082 c 128,-1,32
 439 1062 439 1062 450.5 1035 c 128,-1,33
 462 1008 462 1008 462 978 c 256,34,35
 462 948 462 948 450.5 921 c 128,-1,36
 439 894 439 894 419 874.5 c 128,-1,37
 399 855 399 855 372 843.5 c 128,-1,38
 345 832 345 832 315 832 c 256,39,40
 285 832 285 832 258 843.5 c 128,-1,41
 231 855 231 855 211.5 874.5 c 128,-1,42
 192 894 192 894 180.5 921 c 128,-1,43
 169 948 169 948 169 978 c 256,24,25
EndSplineSet
Validated: 1
EndChar

StartChar: less
Encoding: 60 60 31
Width: 1038
GlyphClass: 2
Flags: W
LayerCount: 2
Fore
SplineSet
885 1228 m 128,-1,1
 915 1228 915 1228 937.5 1204 c 128,-1,2
 960 1180 960 1180 960 1145 c 128,-1,3
 960 1110 960 1110 928 1065.5 c 128,-1,4
 896 1021 896 1021 845.5 974 c 128,-1,5
 795 927 795 927 732 880 c 128,-1,6
 669 833 669 833 606 790.5 c 128,-1,7
 543 748 543 748 487 713 c 128,-1,8
 431 678 431 678 395 655 c 1,9,10
 460 605 460 605 533.5 553 c 128,-1,11
 607 501 607 501 730 409 c 128,-1,12
 853 317 853 317 907 255 c 0,13,14
 960.504587156 193.568807339 960.504587156 193.568807339 960.504587156 182.20612743 c 0,15,16
 960.504587156 182.100917431 960.504587156 182.100917431 960.5 182 c 0,17,18
 960 171 960 171 960 148.5 c 128,-1,19
 960 126 960 126 939 103.5 c 128,-1,20
 918 81 918 81 886.5 81 c 128,-1,21
 855 81 855 81 811 114 c 128,-1,22
 767 147 767 147 709 197.5 c 128,-1,23
 651 248 651 248 581.5 308 c 128,-1,24
 512 368 512 368 385.5 459.5 c 128,-1,25
 259 551 259 551 175.5 565 c 128,-1,26
 92 579 92 579 76 603 c 128,-1,27
 60 627 60 627 63.5 650.5 c 128,-1,28
 67 674 67 674 92.5 696 c 128,-1,29
 118 718 118 718 156.5 741 c 128,-1,30
 195 764 195 764 240.5 787 c 128,-1,31
 286 810 286 810 360.5 847.5 c 128,-1,32
 435 885 435 885 451 897 c 2,33,-1
 831 1212 l 1,34,0
 855 1228 855 1228 885 1228 c 128,-1,1
EndSplineSet
Validated: 1
EndChar

StartChar: equal
Encoding: 61 61 32
Width: 1187
GlyphClass: 2
Flags: W
LayerCount: 2
Fore
SplineSet
1033 366 m 1,0,-1
 136 366 l 1,1,-1
 172 552 l 1,2,-1
 1069 552 l 1,3,-1
 1033 366 l 1,0,-1
1033 808 m 1,4,-1
 136 808 l 1,5,-1
 172 978 l 1,6,-1
 1069 978 l 1,7,-1
 1033 808 l 1,4,-1
EndSplineSet
Validated: 1
EndChar

StartChar: greater
Encoding: 62 62 33
Width: 1032
GlyphClass: 2
Flags: W
LayerCount: 2
Fore
SplineSet
249 1200 m 128,-1,1
 279 1200 279 1200 303 1184 c 1,2,-1
 683 869 l 2,3,4
 699 857 699 857 773.5 819.5 c 128,-1,5
 848 782 848 782 893.5 759 c 128,-1,6
 939 736 939 736 977.5 713 c 128,-1,7
 1016 690 1016 690 1041.5 668 c 128,-1,8
 1067 646 1067 646 1070.5 622.5 c 128,-1,9
 1074 599 1074 599 1058 575 c 128,-1,10
 1042 551 1042 551 958.5 537 c 128,-1,11
 875 523 875 523 748.5 431.5 c 128,-1,12
 622 340 622 340 552.5 280 c 128,-1,13
 483 220 483 220 425 169.5 c 128,-1,14
 367 119 367 119 323 86 c 128,-1,15
 279 53 279 53 247.5 53 c 128,-1,16
 216 53 216 53 195 75.5 c 128,-1,17
 174 98 174 98 174 120.5 c 128,-1,18
 174 143 174 143 173.5 154 c 0,19,20
 173.495117188 154.100585938 173.495117188 154.100585938 173.495117188 154.206054688 c 0,21,22
 173.495117188 165.568359375 173.495117188 165.568359375 227 227 c 0,23,24
 281 289 281 289 404 381 c 128,-1,25
 527 473 527 473 600.5 525 c 128,-1,26
 674 577 674 577 739 627 c 1,27,28
 703 650 703 650 647 685 c 128,-1,29
 591 720 591 720 528 762.5 c 128,-1,30
 465 805 465 805 402 852 c 128,-1,31
 339 899 339 899 288.5 946 c 128,-1,32
 238 993 238 993 206 1037.5 c 128,-1,33
 174 1082 174 1082 174 1117 c 128,-1,34
 174 1152 174 1152 196.5 1176 c 128,-1,0
 219 1200 219 1200 249 1200 c 128,-1,1
EndSplineSet
Validated: 1
EndChar

StartChar: question
Encoding: 63 63 34
Width: 971
GlyphClass: 2
Flags: W
LayerCount: 2
Fore
SplineSet
235 176 m 256,0,1
 235 243 235 243 283 290.5 c 128,-1,2
 331 338 331 338 399 338 c 0,3,4
 468 338 468 338 513 290 c 0,5,6
 557 244 557 244 557 176 c 256,7,8
 557 108 557 108 513 60 c 0,9,10
 468 12 468 12 399 12 c 0,11,12
 331 12 331 12 283 60 c 128,-1,13
 235 108 235 108 235 176 c 256,0,1
453 437 m 1,14,-1
 388 437 l 2,15,16
 372 437 372 437 360 450 c 128,-1,17
 348 463 348 463 338 475 c 1,18,-1
 317 539 l 1,19,20
 315.777173913 557.260869565 315.777173913 557.260869565 315.777173913 574.338787807 c 0,21,22
 315.777173913 766.75 315.777173913 766.75 471 809 c 0,23,24
 529.652173913 824.695652174 529.652173913 824.695652174 580.797731569 824.695652174 c 0,25,26
 591.565217391 824.695652174 591.565217391 824.695652174 602 824 c 0,27,28
 610.888888889 823.407407407 610.888888889 823.407407407 619.119341564 823.407407407 c 0,29,30
 666.444444444 823.407407407 666.444444444 823.407407407 692 843 c 0,31,32
 779.508928571 908.410714286 779.508928571 908.410714286 779.508928571 1119.9300861 c 0,33,34
 779.508928571 1147.70535714 779.508928571 1147.70535714 778 1178 c 0,35,36
 764.108527132 1432.01550388 764.108527132 1432.01550388 616.31740881 1432.01550388 c 0,37,38
 615.162790698 1432.01550388 615.162790698 1432.01550388 614 1432 c 0,39,40
 548 1430 548 1430 514 1414 c 0,41,42
 440 1380 440 1380 321 1279 c 0,43,44
 260 1228 260 1228 242 1188 c 0,45,46
 196 1088 196 1088 146 1086 c 0,47,48
 114 1084 114 1084 88.5 1110 c 128,-1,49
 63 1136 63 1136 62 1185 c 0,50,51
 61.9655172414 1186.68965517 61.9655172414 1186.68965517 61.9655172414 1188.38882283 c 0,52,53
 61.9655172414 1235.96551724 61.9655172414 1235.96551724 89 1291 c 0,54,55
 142 1400 142 1400 261 1482 c 0,56,57
 444 1606 444 1606 614 1608 c 0,58,59
 746 1608 746 1608 822 1532 c 0,60,61
 844 1510 844 1510 883.5 1452 c 128,-1,62
 923 1394 923 1394 936 1366 c 1,63,-1
 968 1226 l 1,64,-1
 971 1106 l 2,65,66
 971 1006 971 1006 960 932 c 128,-1,67
 949 858 949 858 887 770.5 c 128,-1,68
 825 683 825 683 736 661 c 128,-1,69
 647 639 647 639 594 639 c 128,-1,70
 541 639 541 639 521 619 c 1,71,-1
 505 583 l 1,72,73
 506.5625 573.9375 506.5625 573.9375 506.5625 562.3359375 c 0,74,75
 506.5625 536.8125 506.5625 536.8125 499 499 c 0,76,77
 488 444 488 444 453 437 c 1,14,-1
EndSplineSet
Validated: 1
EndChar

StartChar: at
Encoding: 64 64 35
Width: 1945
GlyphClass: 2
Flags: W
LayerCount: 2
Fore
SplineSet
128 586 m 0,0,1
 128 713 128 713 157.5 827 c 128,-1,2
 187 941 187 941 241.5 1037.5 c 128,-1,3
 296 1134 296 1134 374 1211 c 128,-1,4
 452 1288 452 1288 549 1342.5 c 128,-1,5
 646 1397 646 1397 760 1426 c 128,-1,6
 874 1455 874 1455 1001 1455 c 0,7,8
 1136 1455 1136 1455 1248.5 1421 c 128,-1,9
 1361 1387 1361 1387 1451.5 1326 c 128,-1,10
 1542 1265 1542 1265 1610 1179 c 128,-1,11
 1678 1093 1678 1093 1723 990 c 128,-1,12
 1768 887 1768 887 1791 769 c 128,-1,13
 1814 651 1814 651 1814 525 c 0,14,15
 1814 476 1814 476 1809 416.5 c 128,-1,16
 1804 357 1804 357 1791.5 296.5 c 128,-1,17
 1779 236 1779 236 1757 178.5 c 128,-1,18
 1735 121 1735 121 1700 76.5 c 128,-1,19
 1665 32 1665 32 1616 5 c 128,-1,20
 1567 -22 1567 -22 1501 -22 c 0,21,22
 1442 -22 1442 -22 1400.5 -5.5 c 128,-1,23
 1359 11 1359 11 1329.5 38 c 128,-1,24
 1300 65 1300 65 1279.5 100 c 128,-1,25
 1259 135 1259 135 1243 172.5 c 128,-1,26
 1227 210 1227 210 1212 247.5 c 128,-1,27
 1197 285 1197 285 1179 317 c 1,28,29
 1156 299 1156 299 1127 275 c 128,-1,30
 1098 251 1098 251 1066 229.5 c 128,-1,31
 1034 208 1034 208 1000.5 193 c 128,-1,32
 967 178 967 178 936 178 c 2,33,-1
 771 178 l 2,34,35
 724 178 724 178 688.5 198 c 128,-1,36
 653 218 653 218 627 251.5 c 128,-1,37
 601 285 601 285 584 327 c 128,-1,38
 567 369 567 369 556.5 413 c 128,-1,39
 546 457 546 457 541.5 498.5 c 128,-1,40
 537 540 537 540 537 573 c 2,41,-1
 537 673 l 1,42,43
 556 777 556 777 611.5 844.5 c 128,-1,44
 667 912 667 912 744 951 c 128,-1,45
 821 990 821 990 913.5 1005.5 c 128,-1,46
 1006 1021 1006 1021 1101 1021 c 0,47,48
 1120 1021 1120 1021 1152 1020.5 c 128,-1,49
 1184 1020 1184 1020 1216.5 1014 c 128,-1,50
 1249 1008 1249 1008 1275.5 993.5 c 128,-1,51
 1302 979 1302 979 1310 951 c 1,52,53
 1310 936 1310 936 1311 904.5 c 128,-1,54
 1312 873 1312 873 1313.5 833.5 c 128,-1,55
 1315 794 1315 794 1317 751 c 128,-1,56
 1319 708 1319 708 1321 668.5 c 128,-1,57
 1323 629 1323 629 1324.5 597.5 c 128,-1,58
 1326 566 1326 566 1327 551 c 0,59,60
 1328 533 1328 533 1333 497.5 c 128,-1,61
 1338 462 1338 462 1347.5 419.5 c 128,-1,62
 1357 377 1357 377 1371.5 332.5 c 128,-1,63
 1386 288 1386 288 1405 251.5 c 128,-1,64
 1424 215 1424 215 1448 192 c 128,-1,65
 1472 169 1472 169 1501 169 c 256,66,67
 1530 169 1530 169 1551 190.5 c 128,-1,68
 1572 212 1572 212 1586.5 245.5 c 128,-1,69
 1601 279 1601 279 1610 320 c 128,-1,70
 1619 361 1619 361 1623.5 399.5 c 128,-1,71
 1628 438 1628 438 1629.5 470 c 128,-1,72
 1631 502 1631 502 1631 517 c 0,73,74
 1631 670 1631 670 1592.5 806 c 128,-1,75
 1554 942 1554 942 1475 1043.5 c 128,-1,76
 1396 1145 1396 1145 1276 1204.5 c 128,-1,77
 1156 1264 1156 1264 993 1264 c 0,78,79
 846 1264 846 1264 721.5 1215 c 128,-1,80
 597 1166 597 1166 505.5 1077 c 128,-1,81
 414 988 414 988 362.5 864.5 c 128,-1,82
 311 741 311 741 311 591 c 0,83,84
 311 464 311 464 353 351 c 128,-1,85
 395 238 395 238 472 153.5 c 128,-1,86
 549 69 549 69 657 19.5 c 128,-1,87
 765 -30 765 -30 897 -30 c 2,88,-1
 980 -30 l 1,89,90
 1002 -17 1002 -17 1018.5 -15 c 128,-1,91
 1035 -13 1035 -13 1058 -13 c 0,92,93
 1100 -13 1100 -13 1122.5 -35 c 128,-1,94
 1145 -57 1145 -57 1145 -96 c 0,95,96
 1145 -143 1145 -143 1118.5 -168.5 c 128,-1,97
 1092 -194 1092 -194 1053 -206 c 128,-1,98
 1014 -218 1014 -218 970.5 -220 c 128,-1,99
 927 -222 927 -222 893 -222 c 0,100,101
 779 -222 779 -222 678 -192.5 c 128,-1,102
 577 -163 577 -163 492 -110 c 128,-1,103
 407 -57 407 -57 339.5 17.5 c 128,-1,104
 272 92 272 92 225 182 c 128,-1,105
 178 272 178 272 153 374 c 128,-1,106
 128 476 128 476 128 586 c 0,0,1
702 573 m 0,107,108
 702 535 702 535 708 494.5 c 128,-1,109
 714 454 714 454 730.5 420.5 c 128,-1,110
 747 387 747 387 777 365 c 128,-1,111
 807 343 807 343 854 343 c 0,112,113
 918 343 918 343 964 365 c 128,-1,114
 1010 387 1010 387 1041 424 c 128,-1,115
 1072 461 1072 461 1091 509.5 c 128,-1,116
 1110 558 1110 558 1120 610.5 c 128,-1,117
 1130 663 1130 663 1133 716 c 128,-1,118
 1136 769 1136 769 1136 816 c 0,119,120
 1136 819 1136 819 1136.5 824.5 c 128,-1,121
 1137 830 1137 830 1136.5 835 c 128,-1,122
 1136 840 1136 840 1134 843.5 c 128,-1,123
 1132 847 1132 847 1127 847 c 2,124,-1
 1054 847 l 2,125,126
 984 847 984 847 920 834.5 c 128,-1,127
 856 822 856 822 807.5 791 c 128,-1,128
 759 760 759 760 730.5 707 c 128,-1,129
 702 654 702 654 702 573 c 0,107,108
EndSplineSet
Validated: 1
EndChar

StartChar: A
Encoding: 65 65 36
Width: 1276
GlyphClass: 2
Flags: W
LayerCount: 2
Fore
SplineSet
1113 998 m 0,0,1
 1143 878 1143 878 1148 762 c 1,2,3
 1159.26666667 649.333333333 1159.26666667 649.333333333 1159.26666667 556.946666667 c 0,4,5
 1159.26666667 542.733333333 1159.26666667 542.733333333 1159 529 c 0,6,7
 1157 438 1157 438 1157 430 c 0,8,9
 1154 355 1154 355 1151 285 c 0,10,11
 1150 251 1150 251 1146 202 c 0,12,13
 1144 176 1144 176 1144 176 c 0,14,15
 1143 164 1143 164 1142 153 c 0,16,17
 1142 142 1142 142 1141 132 c 0,18,19
 1141 116 1141 116 1141 112 c 0,20,21
 1141 105 1141 105 1141 98 c 0,22,23
 1141 93 1141 93 1141 88 c 0,24,25
 1141 78 1141 78 1141 78 c 0,26,27
 1140 75 1140 75 1140 73 c 2,28,-1
 1140 68 l 1,29,30
 1130 20 1130 20 1086 -1 c 0,31,32
 1061 -13 1061 -13 1040 -13 c 0,33,34
 1021 -13 1021 -13 1003 -4 c 0,35,36
 942 26 942 26 942 81 c 0,37,38
 942 89 942 89 942 89 c 0,39,40
 941 92 941 92 943 97 c 0,41,42
 943 160 943 160 943 160 c 0,43,44
 942.666666667 173.666666667 942.666666667 173.666666667 942.666666667 197.777777778 c 0,45,46
 942.666666667 246 942.666666667 246 944 336 c 0,47,48
 944 390 944 390 946 459 c 0,49,50
 946 459 946 459 946 530 c 1,51,52
 925 526 925 526 892 519 c 0,53,54
 885 518 885 518 790 499 c 0,55,56
 604 462 604 462 556 456 c 0,57,58
 514 450 514 450 511 450 c 0,59,60
 489 446 489 446 469 442 c 0,61,62
 429 434 429 434 429 434 c 0,63,64
 410 430 410 430 392 426 c 0,65,66
 387 425 387 425 374 422 c 0,67,68
 358 418 358 418 358 418 c 0,69,70
 343 414 343 414 329 411 c 1,71,72
 322 391 322 391 318 382 c 0,73,74
 312 368 312 368 305 352 c 0,75,76
 299 336 299 336 293 319 c 0,77,78
 266 250 266 250 247 199 c 2,79,-1
 196 58 l 2,80,81
 191 49 191 49 189 45 c 0,82,83
 178 28 178 28 157 9 c 0,84,85
 130 -15 130 -15 98 -15 c 0,86,87
 78 -15 78 -15 56 -4 c 0,88,89
 13 18 13 18 4 52 c 0,90,91
 4 52 4 52 4 63 c 0,92,93
 4 72 4 72 4 72 c 0,94,95
 5 76 5 76 5 81 c 0,96,97
 5 85 5 85 5 85 c 0,98,99
 2 88 2 88 5 90 c 0,100,101
 7 92 7 92 6 94 c 128,-1,102
 5 96 5 96 6 100 c 0,103,104
 8 106 8 106 7 107 c 128,-1,105
 6 108 6 108 8 111 c 2,106,-1
 12 153 l 1,107,-1
 12 154 l 1,108,-1
 13 155 l 2,109,110
 85 304 85 304 113 404 c 0,111,112
 175 625 175 625 194 704 c 0,113,114
 215 792 215 792 223 820 c 0,115,116
 228 840 228 840 230 850 c 0,117,118
 233 860 233 860 234 862 c 0,119,120
 236 872 236 872 262 954 c 0,121,122
 275 997 275 997 277 1003 c 0,123,124
 315 1157 315 1157 490 1362 c 0,125,126
 551 1434 551 1434 615 1473 c 0,127,128
 646 1492 646 1492 678 1501 c 128,-1,129
 710 1510 710 1510 742 1510 c 0,130,131
 910.515532726 1510 910.515532726 1510 1027.54296875 1242 c 0,132,133
 1083 1115 1083 1115 1113 998 c 0,0,1
452.54296875 893 m 0,134,135
 427.54296875 831 427.54296875 831 407.54296875 764 c 0,136,137
 402.54296875 748 402.54296875 748 398.54296875 731 c 128,-1,138
 394.54296875 714 394.54296875 714 390.04296875 697 c 128,-1,139
 385.54296875 680 385.54296875 680 382.04296875 663 c 128,-1,140
 378.54296875 646 378.54296875 646 374.54296875 629 c 1,141,142
 386.54296875 630 386.54296875 630 396.04296875 631 c 128,-1,143
 405.54296875 632 405.54296875 632 415.54296875 633 c 0,144,145
 437.54296875 635 437.54296875 635 456.54296875 638 c 128,-1,146
 475.54296875 641 475.54296875 641 492.54296875 645 c 0,147,148
 507.54296875 648 507.54296875 648 520.04296875 650.5 c 128,-1,149
 532.54296875 653 532.54296875 653 543.04296875 655 c 128,-1,150
 553.54296875 657 553.54296875 657 561.54296875 658 c 0,151,152
 564.54296875 659 564.54296875 659 567.04296875 659.5 c 128,-1,153
 569.54296875 660 569.54296875 660 572.04296875 660.5 c 128,-1,154
 574.54296875 661 574.54296875 661 576.54296875 661 c 0,155,156
 582.54296875 662 582.54296875 662 586.54296875 662 c 128,-1,157
 590.54296875 662 590.54296875 662 593.54296875 663 c 0,158,159
 599.54296875 664 599.54296875 664 670.54296875 677 c 0,160,161
 771.54296875 695 771.54296875 695 838.04296875 712.5 c 128,-1,162
 904.54296875 730 904.54296875 730 934.54296875 747 c 2,163,-1
 939.54296875 750 l 2,164,165
 940.54296875 751 940.54296875 751 940.54296875 756 c 0,166,167
 940.54296875 827 940.54296875 827 923.04296875 910.5 c 128,-1,168
 905.54296875 994 905.54296875 994 870.54296875 1091 c 0,169,170
 835.54296875 1184 835.54296875 1184 797.54296875 1236 c 0,171,172
 789.54296875 1247 789.54296875 1247 781.04296875 1256 c 128,-1,173
 772.54296875 1265 772.54296875 1265 764.54296875 1272 c 128,-1,174
 756.54296875 1279 756.54296875 1279 749.04296875 1283.5 c 128,-1,175
 741.54296875 1288 741.54296875 1288 733.54296875 1290 c 0,176,177
 726.54296875 1292 726.54296875 1292 719.54296875 1294 c 0,178,179
 678.54296875 1279 678.54296875 1279 635.54296875 1230 c 128,-1,180
 592.54296875 1181 592.54296875 1181 546.54296875 1096.5 c 128,-1,181
 500.54296875 1012 500.54296875 1012 452.54296875 893 c 0,134,135
EndSplineSet
Validated: 1
EndChar

StartChar: B
Encoding: 66 66 37
Width: 1288
GlyphClass: 2
Flags: W
LayerCount: 2
Fore
SplineSet
133.892578125 19 m 0,0,-1
 132.892578125 19 l 1,1,-1
 131.892578125 19 l 1,2,-1
 130.892578125 19 l 2,3,4
 118.892578125 19 118.892578125 19 88.892578125 55 c 0,5,6
 78.892578125 67 78.892578125 67 78.892578125 107 c 0,7,8
 78.892578125 122 78.892578125 122 81.892578125 138 c 128,-1,9
 84.892578125 154 84.892578125 154 90.892578125 173 c 0,10,11
 102.892578125 209 102.892578125 209 117.892578125 246 c 0,12,13
 119.892578125 251 119.892578125 251 122.392578125 256 c 128,-1,14
 124.892578125 261 124.892578125 261 126.892578125 266 c 128,-1,15
 128.892578125 271 128.892578125 271 131.392578125 276 c 128,-1,16
 133.892578125 281 133.892578125 281 135.892578125 286 c 128,-1,17
 137.892578125 291 137.892578125 291 139.892578125 296 c 128,-1,18
 141.892578125 301 141.892578125 301 144.392578125 305.5 c 128,-1,19
 146.892578125 310 146.892578125 310 148.892578125 315 c 0,20,21
 153.892578125 326 153.892578125 326 157.892578125 335 c 128,-1,22
 161.892578125 344 161.892578125 344 164.892578125 352 c 0,23,24
 165.892578125 356 165.892578125 356 166.892578125 360 c 128,-1,25
 167.892578125 364 167.892578125 364 168.892578125 367 c 0,26,27
 203.892578125 479 203.892578125 479 229.892578125 598 c 128,-1,28
 255.892578125 717 255.892578125 717 271.392578125 838.5 c 128,-1,29
 286.892578125 960 286.892578125 960 294.892578125 1082 c 0,30,31
 301.892578125 1198 301.892578125 1198 301.892578125 1310 c 1,32,33
 271.892578125 1309 271.892578125 1309 243.892578125 1304 c 0,34,35
 226.892578125 1301 226.892578125 1301 209.892578125 1297.5 c 128,-1,36
 192.892578125 1294 192.892578125 1294 175.892578125 1290 c 0,37,38
 141.892578125 1282 141.892578125 1282 108.892578125 1276 c 0,39,40
 74.892578125 1269 74.892578125 1269 39.892578125 1269 c 0,41,42
 19.892578125 1269 19.892578125 1269 2.892578125 1275 c 128,-1,43
 -14.107421875 1281 -14.107421875 1281 -27.107421875 1293 c 128,-1,44
 -40.107421875 1305 -40.107421875 1305 -46.607421875 1321 c 128,-1,45
 -53.107421875 1337 -53.107421875 1337 -53.107421875 1357 c 0,46,47
 -53.107421875 1400 -53.107421875 1400 -12.107421875 1428 c 0,48,49
 25.892578125 1454 25.892578125 1454 84.892578125 1470 c 128,-1,50
 143.892578125 1486 143.892578125 1486 213.892578125 1494 c 0,51,52
 285.892578125 1502 285.892578125 1502 353.892578125 1505 c 0,53,54
 420.892578125 1508 420.892578125 1508 475.892578125 1508 c 2,55,-1
 556.892578125 1508 l 2,56,57
 753.892578125 1508 753.892578125 1508 882.892578125 1483 c 0,58,59
 898.892578125 1480 898.892578125 1480 913.892578125 1477 c 0,60,61
 921.892578125 1475 921.892578125 1475 928.892578125 1473 c 128,-1,62
 935.892578125 1471 935.892578125 1471 943.892578125 1469 c 0,63,64
 948.892578125 1468 948.892578125 1468 953.392578125 1467 c 128,-1,65
 957.892578125 1466 957.892578125 1466 962.392578125 1464.5 c 128,-1,66
 966.892578125 1463 966.892578125 1463 971.392578125 1461.5 c 128,-1,67
 975.892578125 1460 975.892578125 1460 980.392578125 1459 c 128,-1,68
 984.892578125 1458 984.892578125 1458 988.892578125 1456.5 c 128,-1,69
 992.892578125 1455 992.892578125 1455 996.892578125 1453 c 0,70,71
 1008.89257812 1449 1008.89257812 1449 1020.89257812 1444 c 0,72,73
 1026.89257812 1442 1026.89257812 1442 1032.89257812 1439.5 c 128,-1,74
 1038.89257812 1437 1038.89257812 1437 1043.89257812 1435 c 0,75,76
 1054.89257812 1430 1054.89257812 1430 1064.89257812 1424.5 c 128,-1,77
 1074.89257812 1419 1074.89257812 1419 1083.89257812 1414 c 0,78,79
 1102.89257812 1403 1102.89257812 1403 1118.39257812 1390.5 c 128,-1,80
 1133.89257812 1378 1133.89257812 1378 1147.39257812 1364.5 c 128,-1,81
 1160.89257812 1351 1160.89257812 1351 1170.89257812 1336.5 c 128,-1,82
 1180.89257812 1322 1180.89257812 1322 1188.89257812 1306 c 0,83,84
 1203.89257812 1275 1203.89257812 1275 1210.89257812 1242 c 128,-1,85
 1217.89257812 1209 1217.89257812 1209 1217.89257812 1172 c 0,86,87
 1217.89257812 1141 1217.89257812 1141 1209.89257812 1115 c 128,-1,88
 1201.89257812 1089 1201.89257812 1089 1185.89257812 1068 c 128,-1,89
 1169.89257812 1047 1169.89257812 1047 1149.89257812 1030 c 128,-1,90
 1129.89257812 1013 1129.89257812 1013 1104.89257812 999 c 0,91,92
 1056.89257812 971 1056.89257812 971 995.892578125 952 c 0,93,94
 934.892578125 934 934.892578125 934 873.892578125 919 c 0,95,96
 853.892578125 914 853.892578125 914 834.392578125 909 c 128,-1,97
 814.892578125 904 814.892578125 904 795.892578125 899 c 128,-1,98
 776.892578125 894 776.892578125 894 758.892578125 889 c 0,99,100
 719.892578125 878 719.892578125 878 689.892578125 863 c 1,101,102
 737.892578125 846 737.892578125 846 788.892578125 825 c 0,103,104
 851.892578125 800 851.892578125 800 912.392578125 770 c 128,-1,105
 972.892578125 740 972.892578125 740 1026.89257812 703 c 0,106,107
 1053.89257812 684 1053.89257812 684 1077.89257812 663 c 128,-1,108
 1101.89257812 642 1101.89257812 642 1122.89257812 619 c 0,109,110
 1136.89257812 603 1136.89257812 603 1148.89257812 586.5 c 128,-1,111
 1160.89257812 570 1160.89257812 570 1170.89257812 552 c 0,112,113
 1173.89257812 546 1173.89257812 546 1177.39257812 540 c 128,-1,114
 1180.89257812 534 1180.89257812 534 1183.39257812 527.5 c 128,-1,115
 1185.89257812 521 1185.89257812 521 1188.89257812 515 c 0,116,117
 1196.89257812 496 1196.89257812 496 1202.89257812 476 c 0,118,119
 1205.89257812 466 1205.89257812 466 1207.89257812 455.5 c 128,-1,120
 1209.89257812 445 1209.89257812 445 1210.89257812 434 c 0,121,122
 1211.89257812 427 1211.89257812 427 1212.39257812 419.5 c 128,-1,123
 1212.89257812 412 1212.89257812 412 1213.39257812 404.5 c 128,-1,124
 1213.89257812 397 1213.89257812 397 1213.89257812 390 c 0,125,126
 1213.89257812 345 1213.89257812 345 1204.39257812 306 c 128,-1,127
 1194.89257812 267 1194.89257812 267 1175.89257812 235 c 0,128,129
 1137.89257812 171 1137.89257812 171 1075.89257812 128 c 0,130,131
 1044.89257812 107 1044.89257812 107 1009.89257812 89.5 c 128,-1,132
 974.892578125 72 974.892578125 72 934.892578125 60 c 0,133,134
 862.892578125 37 862.892578125 37 769.892578125 22 c 0,135,136
 685.892578125 8 685.892578125 8 603.892578125 5 c 0,137,138
 520.892578125 2 520.892578125 2 454.892578125 2 c 0,139,140
 415.892578125 2 415.892578125 2 377.892578125 3 c 0,141,142
 320.892578125 3 320.892578125 3 307.892578125 4 c 0,143,144
 274.892578125 8 274.892578125 8 230.892578125 10 c 0,145,146
 177.892578125 13 177.892578125 13 133.892578125 19 c 0,0,-1
651.392578125 744.5 m 128,-1,148
 630.892578125 752 630.892578125 752 612.892578125 758 c 0,149,150
 605.892578125 760 605.892578125 760 598.392578125 762 c 128,-1,151
 590.892578125 764 590.892578125 764 581.892578125 766 c 128,-1,152
 572.892578125 768 572.892578125 768 562.892578125 771 c 0,153,154
 532.892578125 779 532.892578125 779 505.892578125 785 c 0,155,156
 502.892578125 786 502.892578125 786 499.892578125 786.5 c 128,-1,157
 496.892578125 787 496.892578125 787 494.392578125 788 c 128,-1,158
 491.892578125 789 491.892578125 789 489.392578125 789.5 c 128,-1,159
 486.892578125 790 486.892578125 790 484.392578125 790.5 c 128,-1,160
 481.892578125 791 481.892578125 791 479.892578125 792 c 0,161,162
 467.892578125 795 467.892578125 795 457.892578125 796 c 0,163,164
 450.892578125 797 450.892578125 797 446.892578125 798 c 1,165,-1
 444.892578125 795 l 1,166,167
 432.892578125 724 432.892578125 724 417.892578125 647 c 0,168,169
 402.892578125 568 402.892578125 568 384.392578125 488 c 128,-1,170
 365.892578125 408 365.892578125 408 342.892578125 330 c 0,171,172
 332.892578125 295 332.892578125 295 320.892578125 260 c 128,-1,173
 308.892578125 225 308.892578125 225 296.892578125 195 c 1,174,-1
 307.892578125 192 l 2,175,176
 312.892578125 192 312.892578125 192 326.892578125 191 c 0,177,178
 334.892578125 191 334.892578125 191 343.892578125 191 c 128,-1,179
 352.892578125 191 352.892578125 191 362.892578125 190 c 0,180,181
 382.892578125 190 382.892578125 190 400.892578125 189 c 0,182,183
 409.892578125 189 409.892578125 189 416.892578125 189 c 0,184,185
 420.892578125 189 420.892578125 189 423.892578125 189 c 128,-1,186
 426.892578125 189 426.892578125 189 428.892578125 189 c 0,187,188
 457.892578125 190 457.892578125 190 514.892578125 190 c 0,189,190
 542.892578125 190 542.892578125 190 573.892578125 191.5 c 128,-1,191
 604.892578125 193 604.892578125 193 638.892578125 195 c 0,192,193
 705.892578125 200 705.892578125 200 776.892578125 213 c 0,194,195
 799.892578125 217 799.892578125 217 821.892578125 222 c 128,-1,196
 843.892578125 227 843.892578125 227 864.892578125 234 c 0,197,198
 869.892578125 236 869.892578125 236 874.892578125 237.5 c 128,-1,199
 879.892578125 239 879.892578125 239 884.892578125 240.5 c 128,-1,200
 889.892578125 242 889.892578125 242 894.392578125 244 c 128,-1,201
 898.892578125 246 898.892578125 246 903.892578125 248 c 0,202,203
 917.892578125 254 917.892578125 254 930.892578125 260.5 c 128,-1,204
 943.892578125 267 943.892578125 267 954.892578125 275 c 0,205,206
 958.892578125 277 958.892578125 277 962.392578125 279.5 c 128,-1,207
 965.892578125 282 965.892578125 282 969.392578125 285 c 128,-1,208
 972.892578125 288 972.892578125 288 976.892578125 291 c 0,209,210
 981.892578125 295 981.892578125 295 986.392578125 299 c 128,-1,211
 990.892578125 303 990.892578125 303 994.892578125 308 c 0,212,213
 1028.89257812 343 1028.89257812 343 1028.89257812 395 c 0,214,215
 1028.89257812 406 1028.89257812 406 1027.89257812 417.5 c 128,-1,216
 1026.89257812 429 1026.89257812 429 1023.89257812 440 c 0,217,218
 1018.89257812 462 1018.89257812 462 1008.89257812 482 c 0,219,220
 988.892578125 524 988.892578125 524 955.892578125 561 c 0,221,222
 921.892578125 598 921.892578125 598 877.892578125 628 c 0,223,224
 832.892578125 659 832.892578125 659 785.892578125 685 c 0,225,226
 762.892578125 698 762.892578125 698 739.892578125 708.5 c 128,-1,227
 716.892578125 719 716.892578125 719 694.392578125 728 c 128,-1,147
 671.892578125 737 671.892578125 737 651.392578125 744.5 c 128,-1,148
563.892578125 1328 m 0,228,229
 561.892578125 1328 561.892578125 1328 559.892578125 1328 c 2,230,-1
 496.892578125 1328 l 1,231,232
 496.892578125 1321 496.892578125 1321 496.392578125 1313 c 128,-1,233
 495.892578125 1305 495.892578125 1305 494.892578125 1294 c 0,234,235
 492.892578125 1263 492.892578125 1263 490.392578125 1224.5 c 128,-1,236
 487.892578125 1186 487.892578125 1186 485.392578125 1143.5 c 128,-1,237
 482.892578125 1101 482.892578125 1101 480.392578125 1062.5 c 128,-1,238
 477.892578125 1024 477.892578125 1024 476.892578125 994 c 0,239,240
 475.892578125 979 475.892578125 979 475.392578125 968.5 c 128,-1,241
 474.892578125 958 474.892578125 958 473.892578125 951 c 1,242,243
 475.892578125 951 475.892578125 951 476.892578125 951.5 c 128,-1,244
 477.892578125 952 477.892578125 952 479.892578125 952 c 0,245,246
 482.892578125 953 482.892578125 953 486.892578125 953.5 c 128,-1,247
 490.892578125 954 490.892578125 954 494.892578125 954 c 0,248,249
 496.892578125 954 496.892578125 954 499.392578125 955 c 128,-1,250
 501.892578125 956 501.892578125 956 503.892578125 956 c 0,251,252
 519.892578125 959 519.892578125 959 539.392578125 963.5 c 128,-1,253
 558.892578125 968 558.892578125 968 580.892578125 974 c 0,254,255
 624.892578125 985 624.892578125 985 678.392578125 1001 c 128,-1,256
 731.892578125 1017 731.892578125 1017 786.392578125 1035.5 c 128,-1,257
 840.892578125 1054 840.892578125 1054 891.892578125 1076 c 0,258,259
 916.892578125 1087 916.892578125 1087 939.392578125 1097.5 c 128,-1,260
 961.892578125 1108 961.892578125 1108 980.892578125 1119 c 0,261,262
 998.892578125 1130 998.892578125 1130 1013.89257812 1141 c 128,-1,263
 1028.89257812 1152 1028.89257812 1152 1040.89257812 1163 c 0,264,265
 1051.89257812 1174 1051.89257812 1174 1057.39257812 1184.5 c 128,-1,266
 1062.89257812 1195 1062.89257812 1195 1062.89257812 1205 c 0,267,268
 1062.89257812 1222 1062.89257812 1222 1058.39257812 1235.5 c 128,-1,269
 1053.89257812 1249 1053.89257812 1249 1045.89257812 1260 c 0,270,271
 1026.89257812 1284 1026.89257812 1284 994.892578125 1300 c 0,272,273
 979.892578125 1308 979.892578125 1308 961.392578125 1314 c 128,-1,274
 942.892578125 1320 942.892578125 1320 920.892578125 1324 c 0,275,276
 875.892578125 1332 875.892578125 1332 829.892578125 1336 c 0,277,278
 817.892578125 1337 817.892578125 1337 805.392578125 1337.5 c 128,-1,279
 792.892578125 1338 792.892578125 1338 780.892578125 1338.5 c 128,-1,280
 768.892578125 1339 768.892578125 1339 757.892578125 1339 c 2,281,-1
 736.892578125 1339 l 2,282,283
 732.892578125 1339 732.892578125 1339 728.392578125 1339 c 128,-1,284
 723.892578125 1339 723.892578125 1339 718.892578125 1339 c 0,285,286
 709.892578125 1339 709.892578125 1339 701.392578125 1338.5 c 128,-1,287
 692.892578125 1338 692.892578125 1338 684.892578125 1337.5 c 128,-1,288
 676.892578125 1337 676.892578125 1337 668.892578125 1336 c 0,289,290
 666.892578125 1336 666.892578125 1336 664.892578125 1336 c 128,-1,291
 662.892578125 1336 662.892578125 1336 660.892578125 1336 c 128,-1,292
 658.892578125 1336 658.892578125 1336 656.892578125 1336 c 128,-1,293
 654.892578125 1336 654.892578125 1336 652.892578125 1336 c 0,294,295
 633.892578125 1335 633.892578125 1335 618.392578125 1333.5 c 128,-1,296
 602.892578125 1332 602.892578125 1332 590.892578125 1331 c 0,297,298
 584.892578125 1330 584.892578125 1330 579.892578125 1329.5 c 128,-1,299
 574.892578125 1329 574.892578125 1329 570.892578125 1328.5 c 128,-1,300
 566.892578125 1328 566.892578125 1328 563.892578125 1328 c 0,228,229
EndSplineSet
Validated: 1025
EndChar

StartChar: C
Encoding: 67 67 38
Width: 1484
GlyphClass: 2
Flags: W
LayerCount: 2
Fore
SplineSet
1400 288 m 2,0,1
 1401 278 l 1,2,-1
 1401 274 l 2,3,4
 1401 146 1401 146 1113 54 c 0,5,6
 956 4 956 4 869 -6 c 0,7,8
 741 -22 741 -22 698 -22 c 0,9,10
 356 -22 356 -22 186 266 c 0,11,12
 72 460 72 460 72 752 c 0,13,14
 72 1093 72 1093 249 1296 c 0,15,16
 331 1393 331 1393 474 1453 c 0,17,18
 608 1509 608 1509 787 1509 c 0,19,20
 795 1509 795 1509 803 1509 c 2,21,-1
 823 1508 l 2,22,23
 829 1508 829 1508 849 1506.5 c 128,-1,24
 869 1505 869 1505 912.5 1502 c 128,-1,25
 956 1499 956 1499 1007 1493 c 0,26,27
 1058 1488 1058 1488 1109 1478 c 0,28,29
 1268 1448 1268 1448 1319 1406 c 0,30,31
 1324 1402 1324 1402 1330 1397 c 0,32,33
 1372 1367 1372 1367 1372 1322 c 0,34,35
 1372 1261 1372 1261 1314 1240 c 0,36,37
 1298 1234 1298 1234 1279 1234 c 2,38,-1
 1251 1234 l 1,39,-1
 1250 1235 l 1,40,41
 1009 1321 1009 1321 787 1321 c 0,42,43
 652 1321 652 1321 577 1291 c 0,44,45
 354 1200 354 1200 291 992 c 0,46,47
 259.96969697 889.212121212 259.96969697 889.212121212 259.96969697 815.573921028 c 0,48,49
 259.96969697 813.272727273 259.96969697 813.272727273 260 811 c 0,50,51
 260 808 260 808 260 806 c 0,52,53
 260 603 260 603 289 507 c 128,-1,54
 318 411 318 411 338 377 c 128,-1,55
 358 343 358 343 364 334.5 c 128,-1,56
 370 326 370 326 376.5 317 c 128,-1,57
 383 308 383 308 390 300 c 128,-1,58
 397 292 397 292 404 284 c 0,59,60
 516 165 516 165 710 165 c 0,61,62
 723 165 723 165 736 165.5 c 128,-1,63
 749 166 749 166 762 166.5 c 128,-1,64
 775 167 775 167 788 168.5 c 128,-1,65
 801 170 801 170 814 171.5 c 128,-1,66
 827 173 827 173 840 175 c 128,-1,67
 853 177 853 177 862.5 178.5 c 128,-1,68
 872 180 872 180 878.5 181.5 c 128,-1,69
 885 183 885 183 895 185 c 0,70,71
 1029 212 1029 212 1161 285 c 0,72,73
 1174 293 1174 293 1191 306 c 0,74,75
 1246 347 1246 347 1268 357 c 128,-1,76
 1290 367 1290 367 1310 367 c 0,77,78
 1383 367 1383 367 1400 292 c 0,79,80
 1400 290 1400 290 1400 288 c 2,0,1
EndSplineSet
Validated: 1
EndChar

StartChar: D
Encoding: 68 68 39
Width: 1452
GlyphClass: 2
Flags: W
LayerCount: 2
Fore
SplineSet
128 112 m 1,0,-1
 129 113 l 1,1,-1
 129 114 l 1,2,3
 199 250 199 250 244 400 c 0,4,5
 290 551 290 551 318.5 707.5 c 128,-1,6
 347 864 347 864 358 1023 c 0,7,8
 369 1176 369 1176 369 1323 c 1,9,10
 366 1323 366 1323 363.5 1322.5 c 128,-1,11
 361 1322 361 1322 358 1322 c 128,-1,12
 355 1322 355 1322 353 1322 c 0,13,14
 342 1321 342 1321 331.5 1319.5 c 128,-1,15
 321 1318 321 1318 311 1315 c 0,16,17
 300 1312 300 1312 289 1309.5 c 128,-1,18
 278 1307 278 1307 267 1304 c 128,-1,19
 256 1301 256 1301 245 1297 c 0,20,21
 212 1287 212 1287 178 1279 c 128,-1,22
 144 1271 144 1271 109 1271 c 0,23,24
 88 1271 88 1271 72 1276 c 0,25,26
 55 1282 55 1282 43 1293 c 0,27,28
 19 1315 19 1315 19 1359 c 128,-1,29
 19 1403 19 1403 48 1433 c 0,30,31
 62 1447 62 1447 81 1458 c 0,32,33
 90 1464 90 1464 100 1468.5 c 128,-1,34
 110 1473 110 1473 121 1477 c 0,35,36
 143 1485 143 1485 167 1491 c 128,-1,37
 191 1497 191 1497 218 1500 c 0,38,39
 226 1501 226 1501 233.5 1502 c 128,-1,40
 241 1503 241 1503 248.5 1504 c 128,-1,41
 256 1505 256 1505 263.5 1506 c 128,-1,42
 271 1507 271 1507 278.5 1507.5 c 128,-1,43
 286 1508 286 1508 294 1508 c 0,44,45
 298 1508 298 1508 302 1508.5 c 128,-1,46
 306 1509 306 1509 310 1509 c 2,47,-1
 325 1510 l 2,48,49
 335 1510 335 1510 345.5 1510.5 c 128,-1,50
 356 1511 356 1511 366 1511 c 0,51,52
 386 1512 386 1512 405 1512 c 2,53,-1
 423 1512 l 2,54,55
 439 1512 439 1512 453 1512 c 128,-1,56
 467 1512 467 1512 478.5 1511.5 c 128,-1,57
 490 1511 490 1511 499 1511 c 0,58,59
 608 1511 608 1511 720 1487 c 0,60,61
 775 1475 775 1475 828.5 1457.5 c 128,-1,62
 882 1440 882 1440 933.5 1416.5 c 128,-1,63
 985 1393 985 1393 1033 1364.5 c 128,-1,64
 1081 1336 1081 1336 1126 1303 c 0,65,66
 1137 1295 1137 1295 1148 1286 c 128,-1,67
 1159 1277 1159 1277 1170 1268 c 0,68,69
 1191 1250 1191 1250 1210 1231 c 128,-1,70
 1229 1212 1229 1212 1246 1192 c 0,71,72
 1252 1185 1252 1185 1258 1178 c 128,-1,73
 1264 1171 1264 1171 1269.5 1164 c 128,-1,74
 1275 1157 1275 1157 1280 1150 c 0,75,76
 1313 1107 1313 1107 1339 1059.5 c 128,-1,77
 1365 1012 1365 1012 1383.5 960.5 c 128,-1,78
 1402 909 1402 909 1411.5 853.5 c 128,-1,79
 1421 798 1421 798 1421 739 c 0,80,81
 1421 692 1421 692 1416 648.5 c 128,-1,82
 1411 605 1411 605 1400.5 564.5 c 128,-1,83
 1390 524 1390 524 1375 487 c 0,84,85
 1329 376 1329 376 1248 294 c 0,86,87
 1208 252 1208 252 1159 217 c 0,88,89
 1111 182 1111 182 1055 154 c 0,90,91
 944 97 944 97 815 62 c 0,92,93
 685 27 685 27 545 13 c 0,94,95
 430 1 430 1 314 1 c 0,96,97
 306 1 306 1 297.5 1 c 128,-1,98
 289 1 289 1 281 1 c 0,99,100
 278 1 278 1 273.5 1.5 c 128,-1,101
 269 2 269 2 267 2 c 0,102,103
 259 -1 259 -1 253 -2 c 128,-1,104
 247 -3 247 -3 242 -3 c 0,105,106
 240 -3 240 -3 237 -3.5 c 128,-1,107
 234 -4 234 -4 231 -4 c 128,-1,108
 228 -4 228 -4 225 -4 c 128,-1,109
 222 -4 222 -4 219 -4 c 0,110,111
 209 -4 209 -4 199.5 -2.5 c 128,-1,112
 190 -1 190 -1 182 2 c 0,113,114
 165 8 165 8 153 21 c 0,115,116
 149 25 149 25 145.5 29.5 c 128,-1,117
 142 34 142 34 139 39 c 128,-1,118
 136 44 136 44 134 50 c 0,119,120
 128 66 128 66 128 86 c 2,121,-1
 128 109 l 1,122,-1
 128 110 l 1,123,-1
 128 112 l 1,0,-1
569 1323 m 1,124,125
 569 1055 569 1055 504 649 c 1,126,127
 462 424 462 424 379 200 c 1,128,-1
 383 200 l 1,129,130
 422 198 422 198 475.5 198 c 128,-1,131
 529 198 529 198 581 203.5 c 128,-1,132
 633 209 633 209 668 214 c 0,133,134
 842 242 842 242 948 302.5 c 128,-1,135
 1054 363 1054 363 1112 426 c 0,136,137
 1234 557 1234 557 1234 742 c 0,138,139
 1234 913 1234 913 1114 1056 c 0,140,141
 1104 1068 1104 1068 1093.5 1080.5 c 128,-1,142
 1083 1093 1083 1093 1072 1104 c 0,143,144
 968 1208 968 1208 851 1260 c 0,145,146
 842 1264 842 1264 832 1268 c 0,147,148
 702 1323 702 1323 585 1323 c 2,149,-1
 569 1323 l 1,124,125
EndSplineSet
Validated: 1
EndChar

StartChar: E
Encoding: 69 69 40
Width: 1231
GlyphClass: 2
Flags: W
LayerCount: 2
Fore
SplineSet
300 187 m 1,0,1
 330 180 330 180 424 180 c 0,2,3
 517 180 517 180 584 184 c 0,4,5
 705 191 705 191 716 192 c 0,6,7
 925 207 925 207 977 207 c 0,8,9
 989 207 989 207 993 206 c 0,10,11
 1036 198 1036 198 1050 181 c 0,12,13
 1075 150 1075 150 1075 112 c 0,14,15
 1075 76 1075 76 1053 51 c 0,16,17
 1032 27 1032 27 993 24 c 2,18,-1
 699 3 l 1,19,-1
 690 2 l 1,20,-1
 193 2 l 2,21,22
 112 2 112 2 81 61 c 0,23,24
 71 80 71 80 71 105 c 2,25,-1
 71 130 l 1,26,27
 153 284 153 284 200 585 c 0,28,29
 220 711 220 711 221 718 c 0,30,31
 231 773 231 773 234 798 c 0,32,33
 283 1195 283 1195 283 1431 c 2,34,-1
 283 1432 l 1,35,36
 303 1502 303 1502 386 1502 c 1,37,-1
 707 1496 l 1,38,-1
 1065 1506 l 1,39,40
 1143 1506 1143 1506 1156 1447 c 0,41,42
 1158 1438 1158 1438 1158 1429 c 0,43,44
 1158 1383 1158 1383 1136 1364 c 0,45,46
 1099 1332 1099 1332 1070 1323 c 0,47,48
 1036 1312 1036 1312 1025 1311 c 0,49,50
 961 1302 961 1302 915 1302 c 2,51,-1
 900 1302 l 1,52,-1
 893 1302 l 2,53,54
 865 1302 865 1302 854 1303 c 2,55,-1
 695 1310 l 1,56,-1
 468 1316 l 1,57,-1
 435 863 l 1,58,-1
 435 857 l 1,59,60
 500 857 500 857 568 865 c 0,61,62
 623 871 623 871 676 875 c 0,63,64
 751 880 751 880 757 880 c 0,65,66
 781 880 781 880 790 879 c 0,67,68
 890 868 890 868 890 789 c 0,69,70
 890 726 890 726 826 706 c 0,71,72
 807 700 807 700 789 699 c 2,73,-1
 420 671 l 1,74,-1
 404 668 l 1,75,76
 393 610 393 610 384 549 c 0,77,78
 366 421 366 421 340 316 c 0,79,80
 321 239 321 239 300 187 c 1,0,1
EndSplineSet
Validated: 1
EndChar

StartChar: F
Encoding: 70 70 41
Width: 1231
GlyphClass: 2
Flags: W
LayerCount: 2
Fore
SplineSet
775 1300 m 1,0,1
 667 1305 l 1,2,3
 645 1305 645 1305 480 1310 c 1,4,-1
 438 1311 l 1,5,-1
 419 1311 l 1,6,-1
 386 858 l 1,7,8
 434 858 434 858 482 858 c 1,9,-1
 494 859 l 1,10,11
 507 859 507 859 520 859 c 2,12,-1
 696 869 l 1,13,-1
 714 869 l 2,14,15
 811 869 811 869 811 779 c 0,16,17
 811 714 811 714 733 691 c 0,18,19
 703 682 703 682 662 680 c 0,20,21
 623 679 623 679 615 678.5 c 128,-1,22
 607 678 607 678 600 678 c 2,23,-1
 560 677 l 1,24,-1
 537 677 l 1,25,-1
 428 674 l 1,26,-1
 381 673 l 2,27,28
 369 673 369 673 361 672 c 1,29,30
 359 660 359 660 350.5 626 c 128,-1,31
 342 592 342 592 332 550.5 c 128,-1,32
 322 509 322 509 317.5 493.5 c 128,-1,33
 313 478 313 478 310.5 467 c 128,-1,34
 308 456 308 456 306.5 450.5 c 128,-1,35
 305 445 305 445 304.5 441.5 c 128,-1,36
 304 438 304 438 301 429 c 0,37,38
 299 420 299 420 296 409 c 0,39,40
 292 389 292 389 289 380 c 0,41,42
 283 362 283 362 276 278 c 0,43,44
 269 193 269 193 263 169 c 2,45,-1
 256 137 l 2,46,47
 228 2 228 2 144 2 c 0,48,49
 106 2 106 2 81.5 25 c 128,-1,50
 57 48 57 48 57 90 c 2,51,-1
 57 114 l 1,52,-1
 58 115 l 1,53,-1
 58 116 l 1,54,55
 129 252 129 252 156 548 c 0,56,57
 163 626 163 626 174 702 c 0,58,59
 187 792 187 792 190 810 c 0,60,61
 235 1147 235 1147 235 1428 c 2,62,-1
 235 1430 l 1,63,64
 256 1499 256 1499 338 1499 c 1,65,-1
 692 1493 l 1,66,-1
 707 1493 l 1,67,-1
 740 1494 l 2,68,69
 766 1495 766 1495 809 1496.5 c 128,-1,70
 852 1498 852 1498 911.5 1501.5 c 128,-1,71
 971 1505 971 1505 1013.5 1506.5 c 128,-1,72
 1056 1508 1056 1508 1081.5 1509 c 128,-1,73
 1107 1510 1107 1510 1121 1510 c 0,74,75
 1163 1510 1163 1510 1193 1488 c 128,-1,76
 1223 1466 1223 1466 1223 1425 c 0,77,78
 1223 1296 1223 1296 916 1296 c 2,79,-1
 890 1296 l 1,80,-1
 775 1300 l 1,0,1
EndSplineSet
Validated: 1
EndChar

StartChar: G
Encoding: 71 71 42
Width: 1369
GlyphClass: 2
Flags: W
LayerCount: 2
Fore
SplineSet
1125 111 m 1,0,1
 902 -26 902 -26 585 -26 c 128,-1,2
 268 -26 268 -26 145 228 c 0,3,4
 47 431 47 431 47 819 c 0,5,6
 47 1381 47 1381 625 1497 c 0,7,8
 710 1514 710 1514 752 1514 c 128,-1,9
 794 1514 794 1514 823 1512 c 0,10,11
 1139 1490 1139 1490 1245 1374 c 0,12,13
 1278 1338 1278 1338 1278 1293.5 c 128,-1,14
 1278 1249 1278 1249 1253 1225 c 128,-1,15
 1228 1201 1228 1201 1191 1201 c 2,16,-1
 1164 1201 l 1,17,18
 1097 1227 1097 1227 1060 1245 c 0,19,20
 902 1322 902 1322 804 1322 c 2,21,-1
 791 1322 l 2,22,23
 666 1322 666 1322 556 1284 c 0,24,25
 221 1168 221 1168 221 819 c 0,26,27
 221 605 221 605 237 510 c 0,28,29
 274 289 274 289 387 217 c 0,30,31
 467 166 467 166 569 166 c 128,-1,32
 671 166 671 166 895.5 231 c 128,-1,33
 1120 296 1120 296 1120 358 c 2,34,-1
 1120 646 l 1,35,36
 903 668 903 668 857.5 677 c 128,-1,37
 812 686 812 686 784 703 c 0,38,39
 738 730 738 730 732 783 c 0,40,41
 731 794 731 794 732 801 c 0,42,43
 744 863 744 863 794 881 c 0,44,45
 805 885 805 885 818 885 c 2,46,-1
 825 885 l 1,47,-1
 941 861 l 1,48,-1
 1082 849 l 2,49,50
 1231 836 1231 836 1242 830 c 0,51,52
 1257 823 1257 823 1259 821 c 0,53,54
 1294 786 1294 786 1294 768 c 2,55,-1
 1294 108 l 2,56,57
 1294 58 1294 58 1228 41 c 0,58,59
 1219 39 1219 39 1212 39 c 0,60,61
 1156 39 1156 39 1125 111 c 1,0,1
EndSplineSet
Validated: 1
EndChar

StartChar: H
Encoding: 72 72 43
Width: 1405
GlyphClass: 2
Flags: W
LayerCount: 2
Fore
SplineSet
405 666 m 1,0,-1
 404 654 l 1,1,-1
 403 644 l 2,2,3
 403 636 403 636 401.5 611 c 128,-1,4
 400 586 400 586 398 534 c 0,5,6
 385 192 385 192 324 101 c 0,7,8
 322 98 322 98 320 94 c 0,9,10
 319 90 319 90 317 87 c 2,11,-1
 302 65 l 2,12,13
 300 63 300 63 300 62 c 0,14,15
 254 3 254 3 188 3 c 0,16,17
 153 3 153 3 144 11 c 0,18,19
 112 39 112 39 112 95 c 2,20,-1
 112 102 l 1,21,-1
 113 117 l 1,22,23
 113 147 113 147 136 204 c 0,24,25
 158 260 158 260 160.5 269.5 c 128,-1,26
 163 279 163 279 164.5 282.5 c 128,-1,27
 166 286 166 286 167 289.5 c 128,-1,28
 168 293 168 293 168.5 296 c 128,-1,29
 169 299 169 299 170 302.5 c 128,-1,30
 171 306 171 306 171 309 c 0,31,32
 213 512 213 512 221 792 c 1,33,-1
 223 856 l 1,34,-1
 225 895 l 2,35,36
 226 922 226 922 228 949 c 2,37,-1
 256 1433 l 1,38,39
 256 1465 256 1465 286 1485 c 0,40,41
 288 1486 288 1486 289 1487 c 128,-1,42
 290 1488 290 1488 292 1488 c 0,43,44
 292 1489 292 1489 298 1492 c 0,45,46
 328 1507 328 1507 357 1507 c 0,47,48
 389 1507 389 1507 402.5 1499 c 128,-1,49
 416 1491 416 1491 419 1489.5 c 128,-1,50
 422 1488 422 1488 424.5 1486 c 128,-1,51
 427 1484 427 1484 428.5 1482.5 c 128,-1,52
 430 1481 430 1481 432 1480 c 0,53,54
 444 1468 444 1468 460 1436 c 1,55,-1
 460 1330 l 2,56,57
 460 1127 460 1127 448.5 1031 c 128,-1,58
 437 935 437 935 436.5 930 c 128,-1,59
 436 925 436 925 435.5 920 c 128,-1,60
 435 915 435 915 434.5 910 c 128,-1,61
 434 905 434 905 433.5 899.5 c 128,-1,62
 433 894 433 894 432 889 c 128,-1,63
 431 884 431 884 430.5 878.5 c 128,-1,64
 430 873 430 873 429 868 c 1,65,-1
 429 861 l 1,66,67
 449 861 449 861 469 861 c 2,68,-1
 880 871 l 1,69,-1
 908 872 l 1,70,-1
 1054 872 l 1,71,-1
 1058 900 l 1,72,-1
 1058 902 l 1,73,-1
 1059 908 l 1,74,-1
 1059 912 l 1,75,-1
 1079 1152 l 1,76,-1
 1081 1172 l 1,77,-1
 1081 1185 l 1,78,-1
 1082 1187 l 1,79,-1
 1082 1197 l 1,80,-1
 1083 1213 l 1,81,-1
 1084 1237 l 1,82,-1
 1086 1300 l 2,83,84
 1088 1366 1088 1366 1088 1382 c 2,85,-1
 1088 1403 l 1,86,-1
 1089 1414 l 2,87,88
 1089 1418 1089 1418 1090.5 1423.5 c 128,-1,89
 1092 1429 1092 1429 1093 1434 c 0,90,91
 1094 1440 1094 1440 1096 1444 c 0,92,93
 1128 1507 1128 1507 1196 1507 c 0,94,95
 1271 1507 1271 1507 1291 1424 c 1,96,-1
 1292 1424 l 1,97,-1
 1292 1325 l 1,98,-1
 1291 1313 l 2,99,100
 1291 1310 1291 1310 1291 1307 c 2,101,-1
 1290 1277 l 1,102,103
 1284 1142 1284 1142 1274.5 1027 c 128,-1,104
 1265 912 1265 912 1263.5 892.5 c 128,-1,105
 1262 873 1262 873 1261.5 865.5 c 128,-1,106
 1261 858 1261 858 1260 850 c 0,107,108
 1258 836 1258 836 1258 835 c 0,109,110
 1258 810 1258 810 1236 631 c 0,111,112
 1159 3 1159 3 1028 3 c 0,113,114
 983 3 983 3 950 28 c 128,-1,115
 917 53 917 53 917 88.5 c 128,-1,116
 917 124 917 124 923.5 171.5 c 128,-1,117
 930 219 930 219 940.5 277 c 128,-1,118
 951 335 951 335 963 400 c 128,-1,119
 975 465 975 465 987.5 524.5 c 128,-1,120
 1000 584 1000 584 1005.5 609.5 c 128,-1,121
 1011 635 1011 635 1011 641 c 128,-1,122
 1011 647 1011 647 1021 687 c 1,123,124
 1010 687 1010 687 1000 687 c 2,125,-1
 966 686 l 2,126,127
 915 685 915 685 850 683 c 128,-1,128
 785 681 785 681 714 679.5 c 128,-1,129
 643 678 643 678 578 676 c 128,-1,130
 513 674 513 674 478 673.5 c 128,-1,131
 443 673 443 673 430 672 c 0,132,133
 416 672 416 672 405 672 c 1,134,-1
 405 666 l 1,0,-1
EndSplineSet
Validated: 1
EndChar

StartChar: I
Encoding: 73 73 44
Width: 897
GlyphClass: 2
Flags: W
LayerCount: 2
Fore
SplineSet
187 1432 m 128,-1,1
 189 1441 189 1441 190 1447.5 c 128,-1,2
 191 1454 191 1454 198 1469 c 0,3,4
 206 1483 206 1483 213 1488.5 c 128,-1,5
 220 1494 220 1494 227.5 1500 c 128,-1,6
 235 1506 235 1506 251 1506 c 2,7,-1
 301 1506 l 2,8,9
 426 1506 426 1506 587 1499 c 2,10,-1
 794 1490 l 1,11,-1
 796 1490 l 1,12,-1
 797 1489 l 1,13,14
 853 1471 853 1471 853 1416 c 1,15,-1
 854 1405 l 1,16,-1
 854 1400 l 1,17,-1
 853 1392 l 2,18,19
 853 1389 853 1389 852.5 1387 c 128,-1,20
 852 1385 852 1385 851.5 1382.5 c 128,-1,21
 851 1380 851 1380 847 1367 c 0,22,23
 842 1353 842 1353 832.5 1345.5 c 128,-1,24
 823 1338 823 1338 816 1332 c 0,25,26
 810 1325 810 1325 786 1325 c 2,27,-1
 603 1325 l 1,28,-1
 555 634 l 1,29,-1
 484 190 l 1,30,-1
 484 188 l 1,31,32
 483 188 483 188 485 186 c 1,33,-1
 485 185 l 1,34,35
 494 182 494 182 514 182 c 2,36,-1
 542 182 l 1,37,-1
 616 184 l 2,38,39
 642 185 642 185 653.5 186 c 128,-1,40
 665 187 665 187 666 187 c 0,41,42
 696 184 696 184 707.5 161 c 128,-1,43
 719 138 719 138 719.5 135 c 128,-1,44
 720 132 720 132 723 124.5 c 128,-1,45
 726 117 726 117 726 99 c 0,46,47
 726 24 726 24 661 5 c 1,48,-1
 658 5 l 1,49,-1
 534 -5 l 1,50,51
 473 -6 473 -6 428 -6 c 2,52,-1
 398 -6 l 2,53,54
 282 -6 282 -6 203 0 c 128,-1,55
 124 6 124 6 116 10 c 0,56,57
 91 22 91 22 74 55 c 128,-1,58
 57 88 57 88 57 108 c 0,59,60
 57 127 57 127 62 142 c 0,61,62
 79 201 79 201 123 201 c 2,63,-1
 284 201 l 1,64,-1
 344 520 l 1,65,-1
 402 1321 l 1,66,-1
 255 1331 l 1,67,68
 213 1336 213 1336 192 1384 c 0,69,70
 185 1400 185 1400 185 1411 c 0,71,0
 185 1423 185 1423 187 1432 c 128,-1,1
EndSplineSet
Validated: 1
EndChar

StartChar: J
Encoding: 74 74 45
Width: 984
GlyphClass: 2
Flags: W
LayerCount: 2
Fore
SplineSet
44 229 m 128,-1,1
 39 239 39 239 34 249 c 0,2,3
 15 290 15 290 15 331 c 0,4,5
 15 373 15 373 40 394 c 0,6,7
 64 415 64 415 104 415 c 0,8,9
 122 415 122 415 138 410 c 0,10,11
 143 408 143 408 148.5 406 c 128,-1,12
 154 404 154 404 158.5 401 c 128,-1,13
 163 398 163 398 168 395 c 0,14,15
 194 376 194 376 216 348 c 0,16,17
 223 339 223 339 230.5 329.5 c 128,-1,18
 238 320 238 320 245 309.5 c 128,-1,19
 252 299 252 299 258 288 c 0,20,21
 278 257 278 257 302 230 c 0,22,23
 304 228 304 228 306 226 c 128,-1,24
 308 224 308 224 309.5 222 c 128,-1,25
 311 220 311 220 313 218 c 128,-1,26
 315 216 315 216 317 214 c 0,27,28
 325 206 325 206 333.5 199.5 c 128,-1,29
 342 193 342 193 351 187 c 0,30,31
 377 171 377 171 412 171 c 0,32,33
 439 171 439 171 460.5 178 c 128,-1,34
 482 185 482 185 499 199 c 0,35,36
 534 228 534 228 555 274 c 0,37,38
 566 297 566 297 574 323.5 c 128,-1,39
 582 350 582 350 587 379 c 0,40,41
 598 437 598 437 601 494 c 0,42,43
 602 506 602 506 603 518 c 0,44,45
 603 524 603 524 603.5 529.5 c 128,-1,46
 604 535 604 535 604 541 c 0,47,48
 604 552 604 552 604 563 c 0,49,50
 604 573 604 573 605 584 c 2,51,-1
 604 592 l 2,52,53
 604 594 604 594 604 596 c 128,-1,54
 604 598 604 598 604 600 c 2,55,-1
 604 677 l 1,56,-1
 604 1314 l 2,57,58
 602 1314 602 1314 600 1314.5 c 128,-1,59
 598 1315 598 1315 595 1315 c 128,-1,60
 592 1315 592 1315 589 1315 c 0,61,62
 585 1315 585 1315 581 1315 c 128,-1,63
 577 1315 577 1315 572 1315 c 128,-1,64
 567 1315 567 1315 562 1315 c 128,-1,65
 557 1315 557 1315 551.5 1314.5 c 128,-1,66
 546 1314 546 1314 540.5 1314 c 128,-1,67
 535 1314 535 1314 528 1314 c 2,68,-1
 489 1314 l 1,69,-1
 447 1314 l 2,70,71
 403 1315 403 1315 365 1324 c 0,72,73
 324 1334 324 1334 299 1355 c 0,74,75
 270 1379 270 1379 270 1421 c 0,76,77
 270 1422 270 1422 270 1422 c 0,78,79
 270 1464 270 1464 300 1487 c 128,-1,80
 330 1510 330 1510 371 1510 c 0,81,82
 498 1510 498 1510 630 1504 c 0,83,84
 759 1498 759 1498 880 1493 c 2,85,-1
 882 1493 l 1,86,87
 917 1483 917 1483 934.5 1460 c 128,-1,88
 952 1437 952 1437 952 1401 c 0,89,90
 952 1389 952 1389 949 1375 c 0,91,92
 948 1371 948 1371 947 1367.5 c 128,-1,93
 946 1364 946 1364 944.5 1361 c 128,-1,94
 943 1358 943 1358 942 1354.5 c 128,-1,95
 941 1351 941 1351 939 1348 c 0,96,97
 932 1335 932 1335 921 1325 c 0,98,99
 909 1315 909 1315 892 1314 c 2,100,-1
 799 1304 l 1,101,-1
 788 502 l 2,102,103
 787 446 787 446 779 387 c 0,104,105
 776 367 776 367 773 348 c 128,-1,106
 770 329 770 329 765 309 c 0,107,108
 763 299 763 299 760.5 290 c 128,-1,109
 758 281 758 281 755 271 c 0,110,111
 747 242 747 242 736 215 c 128,-1,112
 725 188 725 188 711 163 c 0,113,114
 697 137 697 137 679 114 c 128,-1,115
 661 91 661 91 641 72 c 0,116,117
 599 33 599 33 543 10 c 0,118,119
 515 -1 515 -1 483 -7 c 128,-1,120
 451 -13 451 -13 415 -13 c 0,121,122
 375 -13 375 -13 328 1 c 0,123,124
 305 8 305 8 282 18 c 128,-1,125
 259 28 259 28 238 41 c 0,126,127
 195 66 195 66 155 99 c 128,-1,128
 115 132 115 132 84 170 c 0,129,130
 68 189 68 189 56 209 c 0,131,0
 49 219 49 219 44 229 c 128,-1,1
EndSplineSet
Validated: 1
EndChar

StartChar: K
Encoding: 75 75 46
Width: 1331
GlyphClass: 2
Flags: W
LayerCount: 2
Fore
SplineSet
80 122 m 1,0,-1
 131 287 l 1,1,-1
 200 623 l 2,2,3
 200 625 200 625 200.5 628 c 128,-1,4
 201 631 201 631 201.5 635.5 c 128,-1,5
 202 640 202 640 203 646 c 128,-1,6
 204 652 204 652 205 659 c 0,7,8
 208 688 208 688 212 729.5 c 128,-1,9
 216 771 216 771 221 819.5 c 128,-1,10
 226 868 226 868 230.5 915.5 c 128,-1,11
 235 963 235 963 239 1003.5 c 128,-1,12
 243 1044 243 1044 245 1070 c 0,13,14
 245 1073 245 1073 245.5 1077.5 c 128,-1,15
 246 1082 246 1082 246 1087 c 0,16,17
 246 1090 246 1090 246.5 1094 c 128,-1,18
 247 1098 247 1098 247 1102.5 c 128,-1,19
 247 1107 247 1107 247 1111 c 0,20,21
 247 1125 247 1125 248 1141 c 128,-1,22
 249 1157 249 1157 249 1174 c 0,23,24
 250 1209 250 1209 251.5 1248.5 c 128,-1,25
 253 1288 253 1288 254 1323 c 128,-1,26
 255 1358 255 1358 256 1386 c 0,27,28
 256 1400 256 1400 256 1410.5 c 128,-1,29
 256 1421 256 1421 256 1428 c 2,30,-1
 256 1429 l 1,31,-1
 256 1430 l 2,32,33
 264 1462 264 1462 285 1483 c 0,34,35
 296 1494 296 1494 310.5 1500 c 128,-1,36
 325 1506 325 1506 343 1506 c 0,37,38
 348 1506 348 1506 352.5 1505.5 c 128,-1,39
 357 1505 357 1505 361 1505 c 0,40,41
 369 1504 369 1504 377 1502 c 2,42,-1
 391 1496 l 2,43,44
 411 1486 411 1486 423 1470 c 0,45,46
 426 1466 426 1466 429 1461.5 c 128,-1,47
 432 1457 432 1457 434 1452 c 128,-1,48
 436 1447 436 1447 437.5 1442 c 128,-1,49
 439 1437 439 1437 440 1432 c 0,50,51
 440 1430 440 1430 440.5 1427.5 c 128,-1,52
 441 1425 441 1425 441.5 1423 c 128,-1,53
 442 1421 442 1421 442.5 1419 c 128,-1,54
 443 1417 443 1417 443 1415 c 128,-1,55
 443 1413 443 1413 443 1410 c 0,56,57
 444 1399 444 1399 444 1388 c 0,58,59
 444 1345 444 1345 442.5 1290 c 128,-1,60
 441 1235 441 1235 439.5 1182.5 c 128,-1,61
 438 1130 438 1130 436 1086 c 0,62,63
 435 1063 435 1063 434 1046 c 1,64,65
 583 1166 583 1166 741 1269 c 0,66,67
 908 1378 908 1378 1082 1475 c 0,68,69
 1086 1478 1086 1478 1089 1480.5 c 128,-1,70
 1092 1483 1092 1483 1095.5 1485 c 128,-1,71
 1099 1487 1099 1487 1102 1488.5 c 128,-1,72
 1105 1490 1105 1490 1108 1490.5 c 128,-1,73
 1111 1491 1111 1491 1114 1492 c 0,74,75
 1127 1494 1127 1494 1148 1494 c 0,76,77
 1168 1494 1168 1494 1184.5 1488 c 128,-1,78
 1201 1482 1201 1482 1214 1470 c 0,79,80
 1223 1462 1223 1462 1228.5 1452 c 128,-1,81
 1234 1442 1234 1442 1237 1430 c 128,-1,82
 1240 1418 1240 1418 1240 1405 c 0,83,84
 1240 1404 1240 1404 1240 1402.5 c 128,-1,85
 1240 1401 1240 1401 1240 1399 c 0,86,87
 1240 1396 1240 1396 1239.5 1393 c 128,-1,88
 1239 1390 1239 1390 1238.5 1387 c 128,-1,89
 1238 1384 1238 1384 1237 1380.5 c 128,-1,90
 1236 1377 1236 1377 1235 1374 c 0,91,92
 1235 1372 1235 1372 1234.5 1370.5 c 128,-1,93
 1234 1369 1234 1369 1233 1367 c 0,94,95
 1231 1360 1231 1360 1227 1353.5 c 128,-1,96
 1223 1347 1223 1347 1218 1342 c 128,-1,97
 1213 1337 1213 1337 1207 1333 c 2,98,-1
 798 1079 l 1,99,-1
 523 874 l 1,100,-1
 522 874 l 1,101,-1
 522 873 l 2,102,103
 516 870 516 870 516 868 c 0,104,105
 518 862 518 862 538 847 c 0,106,107
 562 829 562 829 596 807 c 0,108,109
 630 785 630 785 636 780 c 0,110,111
 704 728 704 728 771.5 668 c 128,-1,112
 839 608 839 608 903 541 c 0,113,114
 924 518 924 518 944 495 c 128,-1,115
 964 472 964 472 981.5 448 c 128,-1,116
 999 424 999 424 1015 400 c 0,117,118
 1063 327 1063 327 1092 248 c 0,119,120
 1107 209 1107 209 1114 169 c 128,-1,121
 1121 129 1121 129 1121 89 c 0,122,123
 1121 69 1121 69 1114 53 c 0,124,125
 1112 48 1112 48 1108.5 42.5 c 128,-1,126
 1105 37 1105 37 1101 33 c 128,-1,127
 1097 29 1097 29 1092 25 c 0,128,129
 1078 14 1078 14 1062 8 c 0,130,131
 1054 5 1054 5 1045.5 3.5 c 128,-1,132
 1037 2 1037 2 1028 2 c 128,-1,133
 1019 2 1019 2 1009.5 9.5 c 128,-1,134
 1000 17 1000 17 988 32 c 0,135,136
 977 45 977 45 964 63 c 0,137,138
 957 72 957 72 950 82 c 128,-1,139
 943 92 943 92 935 103 c 0,140,141
 904 147 904 147 866 204.5 c 128,-1,142
 828 262 828 262 784 324.5 c 128,-1,143
 740 387 740 387 692 449.5 c 128,-1,144
 644 512 644 512 594 565 c 0,145,146
 582 578 582 578 569.5 591 c 128,-1,147
 557 604 557 604 544.5 615.5 c 128,-1,148
 532 627 532 627 519.5 638 c 128,-1,149
 507 649 507 649 494 659 c 0,150,151
 472 677 472 677 450 691 c 128,-1,152
 428 705 428 705 406 714 c 1,153,-1
 404 709 l 2,154,155
 402 696 402 696 398 673 c 0,156,157
 394 648 394 648 389 617 c 128,-1,158
 384 586 384 586 378 552 c 128,-1,159
 372 518 372 518 367 488 c 0,160,161
 366 480 366 480 364.5 473 c 128,-1,162
 363 466 363 466 362 459 c 0,163,164
 361 456 361 456 360.5 452.5 c 128,-1,165
 360 449 360 449 359.5 445.5 c 128,-1,166
 359 442 359 442 358.5 439 c 128,-1,167
 358 436 358 436 357 433 c 0,168,169
 352 409 352 409 350 397 c 0,170,-1
 350 397 l 2,171,172
 346 381 346 381 342 346 c 0,173,174
 337 311 337 311 329.5 268.5 c 128,-1,175
 322 226 322 226 310 181 c 0,176,177
 298 135 298 135 281 97 c 0,178,179
 263 59 263 59 236 34 c 0,180,181
 222 21 222 21 205 15 c 0,182,183
 197 12 197 12 188 10 c 128,-1,184
 179 8 179 8 170 8 c 0,185,186
 165 8 165 8 160 8.5 c 128,-1,187
 155 9 155 9 150 10 c 0,188,189
 141 12 141 12 132.5 15 c 128,-1,190
 124 18 124 18 117 24 c 0,191,192
 113 27 113 27 109.5 29.5 c 128,-1,193
 106 32 106 32 103 36 c 0,194,195
 80 63 80 63 80 103 c 2,196,-1
 80 120 l 1,197,-1
 80 122 l 1,0,-1
EndSplineSet
Validated: 1
EndChar

StartChar: L
Encoding: 76 76 47
Width: 1134
GlyphClass: 2
Flags: W
LayerCount: 2
Fore
SplineSet
636 15 m 2,0,1
 565 15 565 15 522 16 c 2,2,-1
 479 16 l 2,3,4
 469 17 469 17 453 17 c 2,5,-1
 417 17 l 1,6,7
 394 16 394 16 347 16 c 0,8,9
 301 16 301 16 119 3 c 1,10,-1
 103 3 l 2,11,12
 62 3 62 3 50 23 c 0,13,14
 39 42 39 42 39 78 c 128,-1,15
 39 114 39 114 48 152 c 0,16,17
 63 216 63 216 86 279 c 0,18,19
 103 325 103 325 121 384 c 0,20,21
 133 423 133 423 155 507 c 0,22,23
 225 775 225 775 234 960 c 2,24,-1
 256 1407 l 2,25,26
 260 1468 260 1468 310 1492 c 0,27,28
 327 1500 327 1500 345 1500 c 128,-1,29
 363 1500 363 1500 375 1496 c 0,30,31
 445 1473 445 1473 445 1423 c 2,32,-1
 445 1270 l 1,33,-1
 410 835 l 2,34,35
 384 519 384 519 264 198 c 1,36,37
 359 212 359 212 452 212 c 2,38,-1
 485 212 l 1,39,-1
 650 210 l 2,40,41
 676 210 676 210 721 211 c 1,42,-1
 759 211 l 1,43,44
 788 210 788 210 831 209 c 0,45,46
 1131 202 1131 202 1131 89 c 0,47,48
 1131 16 1131 16 1048 16 c 2,49,-1
 636 15 l 2,0,1
EndSplineSet
Validated: 1
EndChar

StartChar: M
Encoding: 77 77 48
Width: 1766
GlyphClass: 2
Flags: W
LayerCount: 2
Fore
SplineSet
1479 299 m 1,0,1
 1479 2 1479 2 1353 2 c 0,2,3
 1315 2 1315 2 1302 12 c 0,4,5
 1282 29 1282 29 1280.5 29.5 c 128,-1,6
 1279 30 1279 30 1277.5 32 c 128,-1,7
 1276 34 1276 34 1269 41.5 c 128,-1,8
 1262 49 1262 49 1262 64 c 2,9,-1
 1262 128 l 1,10,-1
 1297 427 l 1,11,12
 1302 485 1302 485 1304.5 557.5 c 128,-1,13
 1307 630 1307 630 1309 676 c 128,-1,14
 1311 722 1311 722 1313.5 782.5 c 128,-1,15
 1316 843 1316 843 1317.5 897.5 c 128,-1,16
 1319 952 1319 952 1320 988 c 1,17,-1
 1320 1197 l 1,18,-1
 959 786 l 1,19,20
 944 771 944 771 942 768 c 0,21,22
 906 725 906 725 853 725 c 0,23,24
 829 725 829 725 816.5 731.5 c 128,-1,25
 804 738 804 738 803 738.5 c 128,-1,26
 802 739 802 739 800.5 739.5 c 128,-1,27
 799 740 799 740 796 742 c 0,28,29
 788 747 788 747 785 752.5 c 128,-1,30
 782 758 782 758 780 761 c 128,-1,31
 778 764 778 764 773.5 771.5 c 128,-1,32
 769 779 769 779 759 794.5 c 128,-1,33
 749 810 749 810 733.5 835.5 c 128,-1,34
 718 861 718 861 700.5 889.5 c 128,-1,35
 683 918 683 918 667 943 c 128,-1,36
 651 968 651 968 639 988 c 2,37,-1
 621 1017 l 2,38,39
 610 1036 610 1036 575 1082.5 c 128,-1,40
 540 1129 540 1129 530 1142 c 0,41,42
 516 1162 516 1162 513 1165 c 128,-1,43
 510 1168 510 1168 510 1169 c 2,44,-1
 454 608 l 1,45,-1
 454 607 l 1,46,47
 453 605 453 605 452 601 c 0,48,49
 451 591 451 591 449 580 c 128,-1,50
 447 569 447 569 442.5 544 c 128,-1,51
 438 519 438 519 432.5 489.5 c 128,-1,52
 427 460 427 460 421 432 c 128,-1,53
 415 404 415 404 411 385 c 128,-1,54
 407 366 407 366 405 356 c 0,55,56
 401 333 401 333 399 327 c 128,-1,57
 397 321 397 321 396.5 317 c 128,-1,58
 396 313 396 313 394.5 307 c 128,-1,59
 393 301 393 301 391 288 c 0,60,61
 349 26 349 26 234 26 c 2,62,-1
 227 26 l 1,63,-1
 196 31 l 2,64,65
 194 32 194 32 192.5 33 c 128,-1,66
 191 34 191 34 189 34.5 c 128,-1,67
 187 35 187 35 185.5 36 c 128,-1,68
 184 37 184 37 182 38 c 128,-1,69
 180 39 180 39 178.5 40 c 128,-1,70
 177 41 177 41 175.5 42 c 128,-1,71
 174 43 174 43 172 44 c 0,72,73
 143 64 143 64 143 116 c 2,74,-1
 143 140 l 1,75,76
 181 217 181 217 209.5 354.5 c 128,-1,77
 238 492 238 492 262.5 628.5 c 128,-1,78
 287 765 287 765 305 983 c 128,-1,79
 323 1201 323 1201 323 1412 c 2,80,-1
 323 1458 l 1,81,82
 335 1510 335 1510 386 1531 c 0,83,84
 398 1536 398 1536 432 1536 c 0,85,86
 462 1536 462 1536 500 1491 c 1,87,-1
 501 1491 l 1,88,-1
 803 1086 l 1,89,-1
 804 1085 l 1,90,-1
 874 978 l 1,91,-1
 1339 1510 l 1,92,93
 1363 1534 1363 1534 1377 1540.5 c 128,-1,94
 1391 1547 1391 1547 1413 1547 c 0,95,96
 1436 1547 1436 1547 1448 1543 c 0,97,98
 1464 1538 1464 1538 1466 1537 c 128,-1,99
 1468 1536 1468 1536 1470.5 1535 c 128,-1,100
 1473 1534 1473 1534 1475 1532.5 c 128,-1,101
 1477 1531 1477 1531 1481 1529 c 0,102,103
 1494 1523 1494 1523 1498 1516 c 128,-1,104
 1502 1509 1502 1509 1504.5 1506 c 128,-1,105
 1507 1503 1507 1503 1508.5 1499 c 128,-1,106
 1510 1495 1510 1495 1512 1491 c 0,107,108
 1514 1484 1514 1484 1514 1473 c 2,109,-1
 1514 1183 l 1,110,-1
 1480 316 l 1,111,-1
 1479 299 l 1,0,1
EndSplineSet
Validated: 1
EndChar

StartChar: N
Encoding: 78 78 49
Width: 1340
GlyphClass: 2
Flags: W
LayerCount: 2
Fore
SplineSet
1264 1440 m 2,0,1
 1264 1420 l 1,2,-1
 1095.84960938 144 l 2,3,4
 1094.84960938 140 1094.84960938 140 1093.84960938 131 c 0,5,6
 1088.84960938 86 1088.84960938 86 1078.34960938 66 c 128,-1,7
 1067.84960938 46 1067.84960938 46 1066.84960938 44 c 0,8,9
 1066.84960938 44 1066.84960938 44 1063.84960938 40 c 0,10,11
 1059.84960938 34 1059.84960938 34 1057.84960938 31 c 0,12,13
 1039.84960938 -3 1039.84960938 -3 995.849609375 -3 c 0,14,15
 955.849609375 -3 955.849609375 -3 941.349609375 4.5 c 128,-1,16
 926.849609375 12 926.849609375 12 923.849609375 14 c 128,-1,17
 920.849609375 16 920.849609375 16 917.849609375 18 c 0,18,19
 901.849609375 29 901.849609375 29 893.849609375 49 c 1,20,-1
 611.849609375 688 l 1,21,-1
 374.849609375 1131 l 1,22,-1
 321.849609375 593 l 1,23,-1
 320.849609375 592 l 1,24,25
 319.849609375 581 319.849609375 581 316.849609375 566.5 c 128,-1,26
 313.849609375 552 313.849609375 552 310.349609375 533 c 128,-1,27
 306.849609375 514 306.849609375 514 304.349609375 501 c 128,-1,28
 301.849609375 488 301.849609375 488 300.349609375 478 c 128,-1,29
 298.849609375 468 298.849609375 468 297.849609375 463 c 0,30,31
 295.849609375 453 295.849609375 453 294.349609375 444.5 c 128,-1,32
 292.849609375 436 292.849609375 436 291.349609375 429 c 128,-1,33
 289.849609375 422 289.849609375 422 287.849609375 410.5 c 128,-1,34
 285.849609375 399 285.849609375 399 282.849609375 386 c 128,-1,35
 279.849609375 373 279.849609375 373 277.349609375 362.5 c 128,-1,36
 274.849609375 352 274.849609375 352 273.349609375 344.5 c 128,-1,37
 271.849609375 337 271.849609375 337 269.849609375 330 c 0,38,39
 263.849609375 303 263.849609375 303 257.849609375 265 c 128,-1,40
 251.849609375 227 251.849609375 227 248.849609375 216 c 128,-1,41
 245.849609375 205 245.849609375 205 245.349609375 202 c 128,-1,42
 244.849609375 199 244.849609375 199 243.849609375 196 c 128,-1,43
 242.849609375 193 242.849609375 193 242.349609375 190 c 128,-1,44
 241.849609375 187 241.849609375 187 240.849609375 182.5 c 128,-1,45
 239.849609375 178 239.849609375 178 238.349609375 173.5 c 128,-1,46
 236.849609375 169 236.849609375 169 235.849609375 165.5 c 128,-1,47
 234.849609375 162 234.849609375 162 233.849609375 159.5 c 128,-1,48
 232.849609375 157 232.849609375 157 232.349609375 154.5 c 128,-1,49
 231.849609375 152 231.849609375 152 231.349609375 150 c 128,-1,50
 230.849609375 148 230.849609375 148 229.849609375 146 c 0,51,52
 227.849609375 142 227.849609375 142 227.849609375 142 c 0,53,54
 221.849609375 114 221.849609375 114 201.849609375 78 c 0,55,56
 159.849609375 3 159.849609375 3 108.849609375 3 c 0,57,58
 9.849609375 3 9.849609375 3 9.849609375 93 c 2,59,-1
 9.849609375 118 l 1,60,61
 14.849609375 128 14.849609375 128 22.849609375 152.5 c 128,-1,62
 30.849609375 177 30.849609375 177 32.349609375 180.5 c 128,-1,63
 33.849609375 184 33.849609375 184 34.849609375 188 c 128,-1,64
 35.849609375 192 35.849609375 192 36.849609375 195.5 c 128,-1,65
 37.849609375 199 37.849609375 199 39.349609375 202.5 c 128,-1,66
 40.849609375 206 40.849609375 206 41.349609375 209 c 128,-1,67
 41.849609375 212 41.849609375 212 50.349609375 241 c 128,-1,68
 58.849609375 270 58.849609375 270 69.849609375 312 c 0,69,70
 87.849609375 383 87.849609375 383 92.349609375 408 c 128,-1,71
 96.849609375 433 96.849609375 433 99.849609375 445.5 c 128,-1,72
 102.849609375 458 102.849609375 458 104.849609375 470 c 2,73,-1
 109.849609375 493 l 2,74,75
 111.849609375 505 111.849609375 505 121.849609375 567 c 0,76,77
 189.849609375 966 189.849609375 966 189.849609375 1399 c 2,78,-1
 189.849609375 1445 l 1,79,80
 196.849609375 1477 196.849609375 1477 216.849609375 1494.5 c 128,-1,81
 236.849609375 1512 236.849609375 1512 247.349609375 1515.5 c 128,-1,82
 257.849609375 1519 257.849609375 1519 263.849609375 1520 c 0,83,84
 273.849609375 1523 273.849609375 1523 292.849609375 1523 c 128,-1,85
 311.849609375 1523 311.849609375 1523 321.349609375 1517.5 c 128,-1,86
 330.849609375 1512 330.849609375 1512 334.349609375 1509.5 c 128,-1,87
 337.849609375 1507 337.849609375 1507 340.849609375 1505 c 128,-1,88
 343.849609375 1503 343.849609375 1503 346.849609375 1500 c 0,89,90
 374.849609375 1477 374.849609375 1477 380.849609375 1467 c 128,-1,91
 386.849609375 1457 386.849609375 1457 388.349609375 1455 c 128,-1,92
 389.849609375 1453 389.849609375 1453 391.349609375 1450.5 c 128,-1,93
 392.849609375 1448 392.849609375 1448 396.349609375 1443 c 128,-1,94
 399.849609375 1438 399.849609375 1438 405.849609375 1430 c 0,95,96
 437.849609375 1379 437.849609375 1379 451.849609375 1359 c 128,-1,97
 465.849609375 1339 465.849609375 1339 473.349609375 1327.5 c 128,-1,98
 480.849609375 1316 480.849609375 1316 490.349609375 1302 c 128,-1,99
 499.849609375 1288 499.849609375 1288 510.349609375 1273 c 128,-1,100
 520.849609375 1258 520.849609375 1258 529.849609375 1243.5 c 128,-1,101
 538.849609375 1229 538.849609375 1229 541.349609375 1225 c 128,-1,102
 543.849609375 1221 543.849609375 1221 544.924804688 1219.5 c 128,-1,103
 546 1218 546 1218 547 1216 c 2,104,-1
 853 629 l 1,105,-1
 853 628 l 1,106,107
 854 626 854 626 857 618 c 0,108,109
 861 609 861 609 864 602 c 0,110,111
 869 592 869 592 877 572 c 0,112,113
 885 553 885 553 903 515 c 0,114,115
 941 437 941 437 947 417 c 1,116,-1
 1076 1444 l 2,117,118
 1087 1534 1087 1534 1173 1534 c 0,119,120
 1231 1534 1231 1534 1254 1488 c 0,121,122
 1264 1468 1264 1468 1264 1440 c 2,0,1
EndSplineSet
Validated: 1
EndChar

StartChar: O
Encoding: 79 79 50
Width: 1543
GlyphClass: 2
Flags: W
LayerCount: 2
Fore
SplineSet
269 212 m 0,0,1
 189 319 189 319 152 462 c 128,-1,2
 115 605 115 605 115 767 c 0,3,4
 115 813 115 813 121 859 c 0,5,6
 124 882 124 882 129 905 c 128,-1,7
 134 928 134 928 140 951 c 0,8,9
 153 997 153 997 171 1041.5 c 128,-1,10
 189 1086 189 1086 212 1128 c 0,11,12
 258 1212 258 1212 322 1286 c 0,13,14
 387 1360 387 1360 469 1413 c 0,15,16
 496 1431 496 1431 525 1446.5 c 128,-1,17
 554 1462 554 1462 584 1474.5 c 128,-1,18
 614 1487 614 1487 645 1498 c 0,19,20
 669 1506 669 1506 693 1511.5 c 128,-1,21
 717 1517 717 1517 741 1521 c 0,22,23
 790 1529 790 1529 842 1529 c 0,24,25
 859 1529 859 1529 875 1528 c 128,-1,26
 891 1527 891 1527 907 1525 c 128,-1,27
 923 1523 923 1523 939 1519 c 0,28,29
 947 1517 947 1517 954.5 1515.5 c 128,-1,30
 962 1514 962 1514 969 1512 c 0,31,32
 984 1508 984 1508 999 1502 c 0,33,34
 1002 1501 1002 1501 1005 1500 c 128,-1,35
 1008 1499 1008 1499 1010.5 1498 c 128,-1,36
 1013 1497 1013 1497 1016 1496 c 128,-1,37
 1019 1495 1019 1495 1022 1493.5 c 128,-1,38
 1025 1492 1025 1492 1028 1491 c 0,39,40
 1112 1453 1112 1453 1180 1390 c 0,41,42
 1246 1327 1246 1327 1295 1244 c 0,43,44
 1303 1230 1303 1230 1311 1216 c 0,45,46
 1315 1209 1315 1209 1318.5 1202 c 128,-1,47
 1322 1195 1322 1195 1326 1188 c 0,48,49
 1333 1174 1333 1174 1340 1159 c 0,50,51
 1342 1154 1342 1154 1344.5 1149.5 c 128,-1,52
 1347 1145 1347 1145 1349 1140 c 128,-1,53
 1351 1135 1351 1135 1353 1130 c 0,54,55
 1359 1115 1359 1115 1365 1100.5 c 128,-1,56
 1371 1086 1371 1086 1377 1071 c 0,57,58
 1410 981 1410 981 1426 888 c 0,59,60
 1434 842 1434 842 1438.5 798.5 c 128,-1,61
 1443 755 1443 755 1443 713 c 0,62,63
 1443 637 1443 637 1425 557 c 0,64,65
 1420 537 1420 537 1414.5 517.5 c 128,-1,66
 1409 498 1409 498 1403 478 c 0,67,68
 1390 439 1390 439 1373 401 c 0,69,70
 1339 325 1339 325 1290 255 c 128,-1,71
 1241 185 1241 185 1177 129 c 128,-1,72
 1113 73 1113 73 1036 34 c 128,-1,73
 959 -5 959 -5 871 -19 c 2,74,-1
 870 -19 l 1,75,-1
 779 -19 l 2,76,77
 602 -19 602 -19 476 43 c 0,78,79
 413 74 413 74 360 116 c 0,80,81
 309 159 309 159 269 212 c 0,0,1
346 962 m 128,-1,83
 333 929 333 929 324 894 c 0,84,85
 306 826 306 826 306 761 c 0,86,87
 306 639 306 639 331 531 c 0,88,89
 356 424 356 424 412 344 c 0,90,91
 440 304 440 304 476.5 272.5 c 128,-1,92
 513 241 513 241 558 218 c 128,-1,93
 603 195 603 195 658 183.5 c 128,-1,94
 713 172 713 172 779 172 c 0,95,96
 796 172 796 172 813 173.5 c 128,-1,97
 830 175 830 175 847 178 c 0,98,99
 880 184 880 184 911 195 c 0,100,101
 974 219 974 219 1026.5 259.5 c 128,-1,102
 1079 300 1079 300 1121 353 c 0,103,104
 1142 380 1142 380 1160 408.5 c 128,-1,105
 1178 437 1178 437 1192 467 c 0,106,107
 1221 527 1221 527 1237 590 c 0,108,109
 1245 621 1245 621 1248.5 651 c 128,-1,110
 1252 681 1252 681 1252 711 c 0,111,112
 1252 725 1252 725 1251.5 739.5 c 128,-1,113
 1251 754 1251 754 1249.5 769.5 c 128,-1,114
 1248 785 1248 785 1246 801.5 c 128,-1,115
 1244 818 1244 818 1241 835 c 0,116,117
 1230 903 1230 903 1208.5 972 c 128,-1,118
 1187 1041 1187 1041 1152 1107 c 0,119,120
 1118 1172 1118 1172 1072 1222 c 0,121,122
 1049 1247 1049 1247 1023 1267 c 0,123,124
 1014 1274 1014 1274 1005 1280 c 128,-1,125
 996 1286 996 1286 986.5 1291.5 c 128,-1,126
 977 1297 977 1297 967 1302 c 0,127,128
 909 1332 909 1332 838 1332 c 0,129,130
 801 1332 801 1332 765.5 1326 c 128,-1,131
 730 1320 730 1320 696 1308 c 0,132,133
 679 1302 679 1302 662 1295.5 c 128,-1,134
 645 1289 645 1289 629 1280.5 c 128,-1,135
 613 1272 613 1272 598 1263 c 128,-1,136
 583 1254 583 1254 568 1243 c 0,137,138
 548 1229 548 1229 529.5 1214 c 128,-1,139
 511 1199 511 1199 493.5 1182 c 128,-1,140
 476 1165 476 1165 460 1146 c 0,141,142
 448 1132 448 1132 436.5 1117.5 c 128,-1,143
 425 1103 425 1103 414.5 1088.5 c 128,-1,144
 404 1074 404 1074 394.5 1058.5 c 128,-1,145
 385 1043 385 1043 377 1027 c 0,146,82
 359 995 359 995 346 962 c 128,-1,83
EndSplineSet
Validated: 1
EndChar

StartChar: P
Encoding: 80 80 51
Width: 1319
GlyphClass: 2
Flags: W
LayerCount: 2
Fore
SplineSet
197 116 m 1,0,-1
 197 117 l 1,1,-1
 197 118 l 1,2,-1
 197 119 l 1,3,-1
 266 375 l 2,4,5
 297 486 297 486 313 602 c 0,6,7
 330 719 330 719 338 838 c 128,-1,8
 346 957 346 957 348 1076 c 0,9,10
 349 1189 349 1189 349 1300 c 1,11,-1
 345 1300 l 2,12,13
 337 1300 337 1300 328.5 1299.5 c 128,-1,14
 320 1299 320 1299 312 1298 c 128,-1,15
 304 1297 304 1297 296 1295.5 c 128,-1,16
 288 1294 288 1294 281 1292 c 0,17,18
 249 1284 249 1284 218 1275 c 0,19,20
 187 1265 187 1265 158 1257 c 0,21,22
 127 1249 127 1249 93 1249 c 0,23,24
 51 1249 51 1249 27 1271 c 0,25,26
 3 1293 3 1293 3 1336 c 0,27,28
 3 1381 3 1381 43 1410 c 0,29,30
 80 1438 80 1438 138 1457 c 0,31,32
 145 1459 145 1459 152.5 1461 c 128,-1,33
 160 1463 160 1463 167.5 1465 c 128,-1,34
 175 1467 175 1467 183 1469 c 128,-1,35
 191 1471 191 1471 199 1473 c 0,36,37
 231 1480 231 1480 266 1485 c 0,38,39
 337 1496 337 1496 405.5 1501 c 128,-1,40
 474 1506 474 1506 532 1507 c 0,41,42
 561 1508 561 1508 582 1508 c 0,43,44
 593 1508 593 1508 602.5 1508 c 128,-1,45
 612 1508 612 1508 620 1508 c 0,46,47
 686 1508 686 1508 764 1502 c 0,48,49
 842 1496 842 1496 919 1482 c 0,50,51
 958 1474 958 1474 996 1464 c 0,52,53
 1015 1459 1015 1459 1033 1453 c 128,-1,54
 1051 1447 1051 1447 1069 1440 c 0,55,56
 1073 1439 1073 1439 1076.5 1437.5 c 128,-1,57
 1080 1436 1080 1436 1083.5 1434.5 c 128,-1,58
 1087 1433 1087 1433 1090 1431.5 c 128,-1,59
 1093 1430 1093 1430 1096.5 1428.5 c 128,-1,60
 1100 1427 1100 1427 1104 1425 c 0,61,62
 1108 1423 1108 1423 1112 1421 c 128,-1,63
 1116 1419 1116 1419 1120 1417 c 128,-1,64
 1124 1415 1124 1415 1128 1413 c 128,-1,65
 1132 1411 1132 1411 1136 1409 c 0,66,67
 1152 1400 1152 1400 1167 1390 c 0,68,69
 1174 1385 1174 1385 1181 1379.5 c 128,-1,70
 1188 1374 1188 1374 1195 1369 c 0,71,72
 1251 1325 1251 1325 1284 1261 c 0,73,74
 1317 1197 1317 1197 1317 1111 c 0,75,76
 1317 1088 1317 1088 1314 1066.5 c 128,-1,77
 1311 1045 1311 1045 1305.5 1025 c 128,-1,78
 1300 1005 1300 1005 1291.5 987 c 128,-1,79
 1283 969 1283 969 1272 953 c 0,80,81
 1265 942 1265 942 1256.5 932.5 c 128,-1,82
 1248 923 1248 923 1239 913 c 0,83,84
 1221 894 1221 894 1201 878.5 c 128,-1,85
 1181 863 1181 863 1158 849 c 0,86,87
 1124 829 1124 829 1085 815 c 0,88,89
 1066 808 1066 808 1046 801.5 c 128,-1,90
 1026 795 1026 795 1005 790 c 0,91,92
 998 788 998 788 991 786.5 c 128,-1,93
 984 785 984 785 977 783.5 c 128,-1,94
 970 782 970 782 963 781 c 128,-1,95
 956 780 956 780 949.5 778.5 c 128,-1,96
 943 777 943 777 936 776 c 128,-1,97
 929 775 929 775 922 774 c 0,98,99
 902 771 902 771 882 769 c 128,-1,100
 862 767 862 767 842 766 c 2,101,-1
 518 749 l 1,102,-1
 449 313 l 2,103,104
 448 308 448 308 446.5 301.5 c 128,-1,105
 445 295 445 295 444 287 c 128,-1,106
 443 279 443 279 441 269 c 0,107,108
 437 240 437 240 430 206 c 128,-1,109
 423 172 423 172 412 138 c 0,110,111
 401 102 401 102 384 73 c 0,112,113
 367 43 367 43 344 24 c 0,114,115
 319 4 319 4 287 4 c 0,116,117
 266 4 266 4 249 10 c 0,118,119
 241 13 241 13 233.5 18 c 128,-1,120
 226 23 226 23 220 29 c 128,-1,121
 214 35 214 35 210 42.5 c 128,-1,122
 206 50 206 50 203 59 c 0,123,124
 197 76 197 76 197 96 c 2,125,-1
 197 116 l 1,0,-1
822 1312 m 0,126,127
 764 1318 764 1318 712 1319 c 0,128,129
 659 1320 659 1320 622 1320 c 0,130,131
 621 1320 621 1320 620 1320 c 128,-1,132
 619 1320 619 1320 618 1320 c 2,133,-1
 614 1320 l 2,134,135
 612 1320 612 1320 608 1320 c 0,136,137
 607 1320 607 1320 605.5 1320 c 128,-1,138
 604 1320 604 1320 602 1320 c 2,139,-1
 577 1319 l 2,140,141
 564 1319 564 1319 555 1318 c 2,142,-1
 550 1317 l 1,143,-1
 548 1313 l 1,144,145
 547 1290 547 1290 546 1270 c 0,146,147
 546 1259 546 1259 545.5 1248.5 c 128,-1,148
 545 1238 545 1238 545 1228 c 0,149,150
 544 1207 544 1207 543 1187 c 0,151,152
 542 1161 542 1161 541 1133 c 0,153,154
 541 1124 541 1124 540.5 1114.5 c 128,-1,155
 540 1105 540 1105 539.5 1096 c 128,-1,156
 539 1087 539 1087 539 1078 c 0,157,158
 538 1052 538 1052 537 1028 c 0,159,160
 537 1020 537 1020 537 1012.5 c 128,-1,161
 537 1005 537 1005 537 998.5 c 128,-1,162
 537 992 537 992 537 986 c 2,163,-1
 537 936 l 1,164,165
 552 936 552 936 570.5 935.5 c 128,-1,166
 589 935 589 935 613 935 c 2,167,-1
 647 935 l 1,168,-1
 676 935 l 2,169,170
 706 935 706 935 739 936 c 0,171,172
 807 938 807 938 878 947 c 0,173,174
 913 952 913 952 945.5 959.5 c 128,-1,175
 978 967 978 967 1007 977 c 0,176,177
 1064 997 1064 997 1099 1029 c 0,178,179
 1107 1037 1107 1037 1113.5 1045.5 c 128,-1,180
 1120 1054 1120 1054 1124.5 1064 c 128,-1,181
 1129 1074 1129 1074 1131 1085 c 128,-1,182
 1133 1096 1133 1096 1133 1108 c 0,183,184
 1133 1134 1133 1134 1126.5 1156 c 128,-1,185
 1120 1178 1120 1178 1107 1196 c 0,186,187
 1103 1202 1103 1202 1098 1207.5 c 128,-1,188
 1093 1213 1093 1213 1087.5 1218.5 c 128,-1,189
 1082 1224 1082 1224 1076 1229 c 0,190,191
 1074 1231 1074 1231 1072 1232.5 c 128,-1,192
 1070 1234 1070 1234 1068 1235.5 c 128,-1,193
 1066 1237 1066 1237 1064 1239 c 0,194,195
 1058 1244 1058 1244 1051 1248 c 0,196,197
 1048 1250 1048 1250 1044.5 1252 c 128,-1,198
 1041 1254 1041 1254 1037 1256 c 0,199,200
 1015 1268 1015 1268 989.5 1277 c 128,-1,201
 964 1286 964 1286 936 1293 c 0,202,203
 917 1297 917 1297 898 1301 c 0,204,205
 888 1303 888 1303 878.5 1304.5 c 128,-1,206
 869 1306 869 1306 859.5 1307.5 c 128,-1,207
 850 1309 850 1309 841 1310 c 128,-1,208
 832 1311 832 1311 822 1312 c 0,126,127
EndSplineSet
Validated: 1
EndChar

StartChar: Q
Encoding: 81 81 52
Width: 1539
GlyphClass: 2
Flags: W
LayerCount: 2
Fore
SplineSet
1172.5 9.5 m 128,-1,1
 1157 23 1157 23 1142 36 c 0,2,3
 1135 42 1135 42 1128.5 48 c 128,-1,4
 1122 54 1122 54 1116 60 c 1,5,6
 1099 52 1099 52 1084.5 46 c 128,-1,7
 1070 40 1070 40 1055 34 c 0,8,9
 1040 28 1040 28 1024 23.5 c 128,-1,10
 1008 19 1008 19 993 15 c 0,11,12
 972 10 972 10 950 6.5 c 128,-1,13
 928 3 928 3 904.5 1 c 128,-1,14
 881 -1 881 -1 857 -1 c 0,15,16
 745 -1 745 -1 648 27 c 0,17,18
 599 41 599 41 554 60.5 c 128,-1,19
 509 80 509 80 469 105 c 0,20,21
 388 155 388 155 325 225 c 0,22,23
 294 260 294 260 268 299 c 128,-1,24
 242 338 242 338 221 381 c 0,25,26
 178 467 178 467 156 565 c 0,27,28
 150 589 150 589 146 614 c 128,-1,29
 142 639 142 639 139.5 664.5 c 128,-1,30
 137 690 137 690 135.5 716 c 128,-1,31
 134 742 134 742 134 768 c 0,32,33
 134 799 134 799 136.5 829 c 128,-1,34
 139 859 139 859 144 890 c 0,35,36
 147 905 147 905 150 920 c 128,-1,37
 153 935 153 935 157 950.5 c 128,-1,38
 161 966 161 966 165 981 c 128,-1,39
 169 996 169 996 174 1010.5 c 128,-1,40
 179 1025 179 1025 184.5 1039.5 c 128,-1,41
 190 1054 190 1054 196 1068.5 c 128,-1,42
 202 1083 202 1083 208.5 1097 c 128,-1,43
 215 1111 215 1111 222 1125 c 0,44,45
 231 1142 231 1142 240 1157.5 c 128,-1,46
 249 1173 249 1173 259 1189 c 128,-1,47
 269 1205 269 1205 279.5 1220 c 128,-1,48
 290 1235 290 1235 301.5 1249.5 c 128,-1,49
 313 1264 313 1264 325 1279 c 0,50,51
 386 1350 386 1350 463 1402 c 0,52,53
 482 1415 482 1415 502 1426.5 c 128,-1,54
 522 1438 522 1438 543 1448.5 c 128,-1,55
 564 1459 564 1459 585.5 1468 c 128,-1,56
 607 1477 607 1477 629 1484 c 0,57,58
 719 1514 719 1514 819 1514 c 0,59,60
 918 1514 918 1514 1002 1477 c 0,61,62
 1044 1459 1044 1459 1081.5 1434.5 c 128,-1,63
 1119 1410 1119 1410 1152 1379 c 0,64,65
 1219 1318 1219 1318 1271 1237 c 0,66,67
 1322 1156 1322 1156 1357 1068 c 0,68,69
 1368 1039 1368 1039 1378 1009 c 128,-1,70
 1388 979 1388 979 1395.5 949 c 128,-1,71
 1403 919 1403 919 1409 889 c 0,72,73
 1427 798 1427 798 1427 716 c 0,74,75
 1427 574 1427 574 1386 441 c 0,76,77
 1366 375 1366 375 1334 312 c 0,78,79
 1303 250 1303 250 1262 194 c 1,80,-1
 1262 186 l 2,81,82
 1262 178 1262 178 1276 162 c 0,83,84
 1292 144 1292 144 1317 124 c 0,85,86
 1343 103 1343 103 1374 83 c 0,87,88
 1389 73 1389 73 1404 63.5 c 128,-1,89
 1419 54 1419 54 1434 46 c 0,90,91
 1444 41 1444 41 1453 36 c 0,92,93
 1456 34 1456 34 1459 32.5 c 128,-1,94
 1462 31 1462 31 1465 29.5 c 128,-1,95
 1468 28 1468 28 1471 27 c 0,96,97
 1475 25 1475 25 1479 23 c 128,-1,98
 1483 21 1483 21 1487 20 c 0,99,100
 1490 19 1490 19 1493 17.5 c 128,-1,101
 1496 16 1496 16 1498.5 15 c 128,-1,102
 1501 14 1501 14 1503 13.5 c 128,-1,103
 1505 13 1505 13 1507 12 c 0,104,105
 1515 10 1515 10 1520 10 c 2,106,-1
 1635 10 l 1,107,-1
 1637 10 l 1,108,-1
 1639 10 l 1,109,-1
 1640 9 l 1,110,-1
 1641 8 l 2,111,112
 1647 3 1647 3 1652.5 -1.5 c 128,-1,113
 1658 -6 1658 -6 1662 -9 c 0,114,115
 1665 -11 1665 -11 1667.5 -13 c 128,-1,116
 1670 -15 1670 -15 1672 -17 c 0,117,118
 1676 -21 1676 -21 1680 -26 c 0,119,120
 1688 -35 1688 -35 1692 -47 c 0,121,122
 1697 -59 1697 -59 1697 -77 c 0,123,124
 1697 -93 1697 -93 1694 -107 c 0,125,126
 1691 -121 1691 -121 1684 -131 c 0,127,128
 1678 -141 1678 -141 1669 -149 c 0,129,130
 1665 -153 1665 -153 1660 -156.5 c 128,-1,131
 1655 -160 1655 -160 1650 -162 c 0,132,133
 1640 -167 1640 -167 1628.5 -170.5 c 128,-1,134
 1617 -174 1617 -174 1604 -176 c 0,135,136
 1579 -179 1579 -179 1554 -179 c 0,137,138
 1543 -179 1543 -179 1532.5 -178.5 c 128,-1,139
 1522 -178 1522 -178 1511.5 -176.5 c 128,-1,140
 1501 -175 1501 -175 1490 -173 c 0,141,142
 1458 -167 1458 -167 1428 -156 c 0,143,144
 1366 -133 1366 -133 1310 -97 c 0,145,146
 1254 -61 1254 -61 1204 -18 c 0,147,0
 1188 -4 1188 -4 1172.5 9.5 c 128,-1,1
358 963.5 m 128,-1,149
 346 931 346 931 338 897 c 0,150,151
 332 875 332 875 328.5 853 c 128,-1,152
 325 831 325 831 323 809 c 128,-1,153
 321 787 321 787 321 765 c 0,154,155
 321 725 321 725 325 686 c 128,-1,156
 329 647 329 647 337 610 c 128,-1,157
 345 573 345 573 357 538 c 0,158,159
 375 485 375 485 402 439 c 0,160,161
 411 424 411 424 421 409 c 128,-1,162
 431 394 431 394 442 380.5 c 128,-1,163
 453 367 453 367 465 354 c 0,164,165
 535 276 535 276 636.5 230.5 c 128,-1,166
 738 185 738 185 866 185 c 0,167,168
 882 185 882 185 898 186.5 c 128,-1,169
 914 188 914 188 931 191 c 0,170,171
 959 196 959 196 984 210 c 1,172,173
 983 230 983 230 971 249 c 2,174,-1
 966 255 l 2,175,176
 964 258 964 258 961.5 261.5 c 128,-1,177
 959 265 959 265 956.5 268.5 c 128,-1,178
 954 272 954 272 951 275 c 0,179,180
 950 276 950 276 949.5 277 c 128,-1,181
 949 278 949 278 948 279.5 c 128,-1,182
 947 281 947 281 946 282 c 0,183,184
 943 285 943 285 940 288 c 0,185,186
 939 290 939 290 937 292 c 128,-1,187
 935 294 935 294 934 295 c 0,188,189
 923 307 923 307 911 320 c 128,-1,190
 899 333 899 333 885 346 c 0,191,192
 878 353 878 353 872 360 c 128,-1,193
 866 367 866 367 859 374 c 0,194,195
 847 388 847 388 836 403 c 0,196,197
 830 411 830 411 824.5 418.5 c 128,-1,198
 819 426 819 426 814 433 c 0,199,200
 804 449 804 449 797 466 c 0,201,202
 793 475 793 475 790 483.5 c 128,-1,203
 787 492 787 492 785 501 c 0,204,205
 781 520 781 520 781 540 c 0,206,207
 781 560 781 560 787.5 576.5 c 128,-1,208
 794 593 794 593 807 605 c 128,-1,209
 820 617 820 617 836 623 c 128,-1,210
 852 629 852 629 872 629 c 0,211,212
 890 629 890 629 906 624 c 0,213,214
 911 622 911 622 916.5 620.5 c 128,-1,215
 922 619 922 619 927 616.5 c 128,-1,216
 932 614 932 614 936 611 c 0,217,218
 945 605 945 605 954 597.5 c 128,-1,219
 963 590 963 590 970.5 582 c 128,-1,220
 978 574 978 574 986 565 c 0,221,222
 997 551 997 551 1006.5 535.5 c 128,-1,223
 1016 520 1016 520 1025 503 c 0,224,225
 1043 469 1043 469 1061 436 c 0,226,227
 1078 404 1078 404 1096 376 c 0,228,229
 1111 353 1111 353 1130 336 c 0,230,231
 1133 338 1133 338 1135.5 341 c 128,-1,232
 1138 344 1138 344 1141 346.5 c 128,-1,233
 1144 349 1144 349 1146 351 c 0,234,235
 1150 356 1150 356 1155 361.5 c 128,-1,236
 1160 367 1160 367 1164 373 c 0,237,238
 1169 380 1169 380 1173 387.5 c 128,-1,239
 1177 395 1177 395 1181 402 c 0,240,241
 1189 418 1189 418 1194 436 c 0,242,243
 1195 440 1195 440 1196.5 443 c 128,-1,244
 1198 446 1198 446 1199 450 c 128,-1,245
 1200 454 1200 454 1201.5 457.5 c 128,-1,246
 1203 461 1203 461 1204 464.5 c 128,-1,247
 1205 468 1205 468 1206 472 c 128,-1,248
 1207 476 1207 476 1208 479.5 c 128,-1,249
 1209 483 1209 483 1210 487 c 128,-1,250
 1211 491 1211 491 1211.5 495 c 128,-1,251
 1212 499 1212 499 1213 503 c 128,-1,252
 1214 507 1214 507 1215 511 c 0,253,254
 1223 551 1223 551 1228 589 c 0,255,256
 1231 608 1231 608 1232.5 626 c 128,-1,257
 1234 644 1234 644 1234.5 661 c 128,-1,258
 1235 678 1235 678 1235.5 692.5 c 128,-1,259
 1236 707 1236 707 1236 719 c 2,260,-1
 1236 738 l 2,261,262
 1236 747 1236 747 1235 756 c 0,263,264
 1235 759 1235 759 1234.5 762.5 c 128,-1,265
 1234 766 1234 766 1233.5 769.5 c 128,-1,266
 1233 773 1233 773 1233 776 c 0,267,268
 1232 786 1232 786 1230.5 796.5 c 128,-1,269
 1229 807 1229 807 1227.5 817.5 c 128,-1,270
 1226 828 1226 828 1224 840 c 0,271,272
 1218 873 1218 873 1209 906.5 c 128,-1,273
 1200 940 1200 940 1188 974 c 0,274,275
 1164 1042 1164 1042 1128 1106 c 0,276,277
 1124 1114 1124 1114 1119 1121.5 c 128,-1,278
 1114 1129 1114 1129 1109 1137 c 0,279,280
 1099 1152 1099 1152 1089 1166 c 128,-1,281
 1079 1180 1079 1180 1068.5 1193 c 128,-1,282
 1058 1206 1058 1206 1046 1219 c 0,283,284
 1023 1243 1023 1243 997.5 1262.5 c 128,-1,285
 972 1282 972 1282 943 1297 c 0,286,287
 887 1327 887 1327 821 1327 c 0,288,289
 803 1327 803 1327 785.5 1325.5 c 128,-1,290
 768 1324 768 1324 750.5 1321 c 128,-1,291
 733 1318 733 1318 716 1314 c 0,292,293
 708 1312 708 1312 699.5 1309.5 c 128,-1,294
 691 1307 691 1307 683 1304 c 0,295,296
 650 1292 650 1292 619.5 1276 c 128,-1,297
 589 1260 589 1260 562 1240 c 0,298,299
 506 1200 506 1200 461 1145.5 c 128,-1,300
 416 1091 416 1091 385 1028 c 0,301,148
 370 996 370 996 358 963.5 c 128,-1,149
EndSplineSet
Validated: 1025
EndChar

StartChar: R
Encoding: 82 82 53
Width: 1360
GlyphClass: 2
Flags: W
LayerCount: 2
Fore
SplineSet
196 -8 m 0,0,1
 106 -8 106 -8 106 88 c 0,2,3
 106 147 106 147 184 296 c 0,4,5
 217 359 217 359 256.5 533 c 128,-1,6
 296 707 296 707 322 885.5 c 128,-1,7
 348 1064 348 1064 348 1300 c 1,8,9
 328 1300 328 1300 306 1297 c 0,10,11
 292 1295 292 1295 285 1293 c 0,12,13
 278 1290 278 1290 271 1290 c 0,14,15
 241 1286 241 1286 236 1285 c 0,16,17
 222 1279 222 1279 209 1275 c 0,18,19
 164 1262 164 1262 152 1260 c 1,20,-1
 134 1260 l 2,21,22
 92 1260 92 1260 76 1277 c 0,23,24
 42 1312 42 1312 42 1352 c 0,25,26
 42 1510 42 1510 598 1511 c 0,27,28
 1068 1511 1068 1511 1238 1374 c 0,29,30
 1264 1353 1264 1353 1270.5 1342 c 128,-1,31
 1277 1331 1277 1331 1279 1329 c 128,-1,32
 1281 1327 1281 1327 1282.5 1325 c 128,-1,33
 1284 1323 1284 1323 1285.5 1320.5 c 128,-1,34
 1287 1318 1287 1318 1288.5 1316 c 128,-1,35
 1290 1314 1290 1314 1291 1311.5 c 0,36,37
 1292 1308 1292 1308 1298 1298 c 0,38,39
 1318 1266 1318 1266 1318 1227.5 c 128,-1,40
 1318 1189 1318 1189 1314 1168 c 0,41,42
 1273 957 1273 957 746 820 c 1,43,-1
 714 812 l 2,44,45
 699 808 699 808 687 805 c 1,46,47
 707 790 707 790 735 767 c 128,-1,48
 763 744 763 744 791 722 c 0,49,50
 1114 462 1114 462 1205 212 c 0,51,52
 1232 138 1232 138 1232 81 c 128,-1,53
 1232 24 1232 24 1210.5 5.5 c 128,-1,54
 1189 -13 1189 -13 1172.5 -19 c 128,-1,55
 1156 -25 1156 -25 1138.5 -25 c 0,56,57
 1121 -26 1121 -26 1091 12 c 0,58,59
 1056 56 1056 56 921 258 c 0,60,61
 756 502 756 502 704 550 c 1,62,-1
 703 550 l 1,63,64
 695 558 695 558 675 573.5 c 128,-1,65
 655 589 655 589 627 611 c 2,66,-1
 570 654 l 2,67,68
 556 665 556 665 545 673 c 128,-1,69
 534 681 534 681 529.5 684.5 c 128,-1,70
 525 688 525 688 523 689.5 c 128,-1,71
 521 691 521 691 519 693 c 128,-1,72
 517 695 517 695 515 696.5 c 128,-1,73
 513 698 513 698 508 702.5 c 128,-1,74
 503 707 503 707 494 708 c 1,75,76
 417 275 417 275 275 32 c 1,77,-1
 275 31 l 1,78,79
 240 -8 240 -8 196 -8 c 0,0,1
532 1005 m 128,-1,81
 531 995 531 995 531 986 c 2,82,-1
 531 958 l 1,83,84
 537 960 537 960 546 962 c 0,85,86
 573 969 573 969 616 981.5 c 128,-1,87
 659 994 659 994 714 1011 c 128,-1,88
 769 1028 769 1028 826.5 1048 c 128,-1,89
 884 1068 884 1068 939 1090 c 0,90,91
 957 1097 957 1097 974 1104 c 128,-1,92
 991 1111 991 1111 1006.5 1118.5 c 128,-1,93
 1022 1126 1022 1126 1036 1133 c 0,94,95
 1078 1154 1078 1154 1103 1175 c 0,96,97
 1114 1184 1114 1184 1119.5 1192.5 c 128,-1,98
 1125 1201 1125 1201 1125 1208 c 128,-1,99
 1125 1215 1125 1215 1119 1222 c 0,100,101
 1117 1224 1117 1224 1114.5 1226 c 128,-1,102
 1112 1228 1112 1228 1109.5 1230 c 128,-1,103
 1107 1232 1107 1232 1103.5 1234 c 128,-1,104
 1100 1236 1100 1236 1096 1238 c 0,105,106
 1079 1246 1079 1246 1058 1254 c 0,107,108
 1055 1255 1055 1255 1051.5 1256 c 128,-1,109
 1048 1257 1048 1257 1045 1258 c 128,-1,110
 1042 1259 1042 1259 1038.5 1260 c 128,-1,111
 1035 1261 1035 1261 1031.5 1262 c 128,-1,112
 1028 1263 1028 1263 1024.5 1264 c 128,-1,113
 1021 1265 1021 1265 1017 1265.5 c 128,-1,114
 1013 1266 1013 1266 1010 1267 c 0,115,116
 997 1270 997 1270 982.5 1273 c 128,-1,117
 968 1276 968 1276 954 1279 c 0,118,119
 925 1284 925 1284 893 1289 c 0,120,121
 830 1298 830 1298 773 1304 c 0,122,123
 744 1307 744 1307 719 1308.5 c 128,-1,124
 694 1310 694 1310 673 1311.5 c 128,-1,125
 652 1313 652 1313 639 1313 c 0,126,127
 635 1313 635 1313 631.5 1313.5 c 128,-1,128
 628 1314 628 1314 625.5 1314 c 128,-1,129
 623 1314 623 1314 621 1314 c 0,130,131
 617 1314 617 1314 612 1314 c 128,-1,132
 607 1314 607 1314 601 1314 c 2,133,-1
 576 1313 l 2,134,135
 573 1313 573 1313 571 1312 c 0,136,137
 570 1312 570 1312 568 1312 c 128,-1,138
 566 1312 566 1312 565 1312 c 0,139,140
 562 1312 562 1312 559.5 1312 c 128,-1,141
 557 1312 557 1312 555 1312 c 2,142,-1
 551 1311 l 1,143,-1
 549 1307 l 1,144,145
 548 1285 548 1285 547 1264 c 128,-1,146
 546 1243 546 1243 544.5 1222.5 c 128,-1,147
 543 1202 543 1202 542 1182 c 0,148,149
 542 1178 542 1178 541.5 1173.5 c 128,-1,150
 541 1169 541 1169 541 1164.5 c 128,-1,151
 541 1160 541 1160 540.5 1156 c 128,-1,152
 540 1152 540 1152 540 1147.5 c 128,-1,153
 540 1143 540 1143 539 1138 c 0,154,155
 539 1136 539 1136 539 1133.5 c 128,-1,156
 539 1131 539 1131 539 1129 c 0,157,158
 538 1101 538 1101 536.5 1075 c 128,-1,159
 535 1049 535 1049 533 1026 c 0,160,80
 533 1015 533 1015 532 1005 c 128,-1,81
EndSplineSet
Validated: 1
EndChar

StartChar: S
Encoding: 83 83 54
Width: 1310
GlyphClass: 2
Flags: W
LayerCount: 2
Fore
SplineSet
101 168 m 0,0,1
 90 181 90 181 81 194 c 0,2,3
 53 237 53 237 53 291 c 0,4,5
 53 330 53 330 77 358 c 0,6,7
 102 386 102 386 145 386 c 0,8,9
 169 386 169 386 194 371 c 0,10,11
 217 357 217 357 245 335 c 0,12,13
 272 314 272 314 304 290 c 128,-1,14
 336 266 336 266 374.5 246 c 128,-1,15
 413 226 413 226 460 213 c 0,16,17
 506 199 506 199 562 199 c 0,18,19
 576 199 576 199 591.5 200 c 128,-1,20
 607 201 607 201 623.5 202.5 c 128,-1,21
 640 204 640 204 658 206 c 0,22,23
 712 213 712 213 769.5 227.5 c 128,-1,24
 827 242 827 242 881 264 c 0,25,26
 908 275 908 275 932 288.5 c 128,-1,27
 956 302 956 302 977 319 c 0,28,29
 1019 351 1019 351 1044 392 c 0,30,31
 1056 412 1056 412 1062.5 435 c 128,-1,32
 1069 458 1069 458 1069 484 c 0,33,34
 1069 519 1069 519 1052 547 c 0,35,36
 1034 577 1034 577 1006 600 c 0,37,38
 992 612 992 612 976 621.5 c 128,-1,39
 960 631 960 631 942.5 639 c 128,-1,40
 925 647 925 647 908 653.5 c 128,-1,41
 891 660 891 660 874 664 c 2,42,-1
 421 779 l 2,43,44
 413 781 413 781 404.5 783.5 c 128,-1,45
 396 786 396 786 387.5 789 c 128,-1,46
 379 792 379 792 370.5 794.5 c 128,-1,47
 362 797 362 797 353.5 800 c 128,-1,48
 345 803 345 803 337 806.5 c 128,-1,49
 329 810 329 810 320 813 c 0,50,51
 313 816 313 816 306 819.5 c 128,-1,52
 299 823 299 823 292 826.5 c 128,-1,53
 285 830 285 830 278.5 833.5 c 128,-1,54
 272 837 272 837 265.5 841 c 128,-1,55
 259 845 259 845 252.5 849 c 128,-1,56
 246 853 246 853 240 857 c 128,-1,57
 234 861 234 861 228 866 c 0,58,59
 186 897 186 897 155 939 c 128,-1,60
 124 981 124 981 112 1035 c 0,61,-1
 112 1036 l 1,62,-1
 112 1037 l 1,63,-1
 112 1037 l 1,64,-1
 112 1097 l 2,65,66
 112 1184 112 1184 140 1256 c 0,67,68
 154 1292 154 1292 173 1323.5 c 128,-1,69
 192 1355 192 1355 217.5 1382 c 128,-1,70
 243 1409 243 1409 273.5 1431 c 128,-1,71
 304 1453 304 1453 340 1470 c 128,-1,72
 376 1487 376 1487 417 1498 c 0,73,74
 430 1502 430 1502 444 1505 c 128,-1,75
 458 1508 458 1508 472.5 1510 c 128,-1,76
 487 1512 487 1512 501 1514 c 0,77,-1
 502 1514 l 2,78,79
 505 1514 505 1514 510 1514 c 128,-1,80
 515 1514 515 1514 522.5 1514.5 c 128,-1,81
 530 1515 530 1515 538 1515 c 128,-1,82
 546 1515 546 1515 554 1515 c 0,83,84
 571 1515 571 1515 586 1516 c 0,85,86
 594 1516 594 1516 599 1517 c 0,87,88
 602 1517 602 1517 604 1517 c 128,-1,89
 606 1517 606 1517 608 1517 c 0,90,91
 634 1517 634 1517 683 1517 c 0,92,93
 733 1516 733 1516 794 1511.5 c 128,-1,94
 855 1507 855 1507 917 1498 c 0,95,96
 980 1489 980 1489 1032 1471 c 0,97,98
 1035 1470 1035 1470 1038.5 1469 c 128,-1,99
 1042 1468 1042 1468 1045 1467 c 128,-1,100
 1048 1466 1048 1466 1051 1464.5 c 128,-1,101
 1054 1463 1054 1463 1057 1462 c 0,102,103
 1069 1457 1069 1457 1079.5 1451.5 c 128,-1,104
 1090 1446 1090 1446 1099.5 1440 c 128,-1,105
 1109 1434 1109 1434 1117 1427 c 0,106,107
 1135 1413 1135 1413 1144 1394 c 0,108,109
 1149 1385 1149 1385 1151 1375.5 c 128,-1,110
 1153 1366 1153 1366 1153 1355 c 0,111,112
 1153 1345 1153 1345 1151.5 1336 c 128,-1,113
 1150 1327 1150 1327 1147 1319 c 0,114,115
 1145 1315 1145 1315 1143.5 1311 c 128,-1,116
 1142 1307 1142 1307 1139 1303 c 0,117,118
 1134 1295 1134 1295 1129 1288 c 0,119,120
 1117 1274 1117 1274 1099 1267 c 0,121,122
 1093 1265 1093 1265 1087 1263.5 c 128,-1,123
 1081 1262 1081 1262 1074.5 1261 c 128,-1,124
 1068 1260 1068 1260 1061 1260 c 2,125,-1
 1049 1260 l 1,126,-1
 1048 1260 l 1,127,-1
 1047 1260 l 2,128,129
 937 1284 937 1284 828 1304 c 0,130,131
 810 1307 810 1307 792 1310 c 128,-1,132
 774 1313 774 1313 755.5 1315 c 128,-1,133
 737 1317 737 1317 719 1319 c 0,134,135
 691 1321 691 1321 663.5 1322.5 c 128,-1,136
 636 1324 636 1324 608 1324 c 0,137,138
 597 1324 597 1324 586.5 1323.5 c 128,-1,139
 576 1323 576 1323 566 1322.5 c 128,-1,140
 556 1322 556 1322 546 1321 c 128,-1,141
 536 1320 536 1320 526 1319 c 0,142,143
 506 1317 506 1317 488 1313 c 0,144,145
 474 1310 474 1310 461 1306 c 0,146,147
 458 1305 458 1305 454.5 1304 c 128,-1,148
 451 1303 451 1303 448 1302 c 128,-1,149
 445 1301 445 1301 442 1300 c 128,-1,150
 439 1299 439 1299 436 1298 c 128,-1,151
 433 1297 433 1297 430 1295.5 c 128,-1,152
 427 1294 427 1294 424 1293 c 128,-1,153
 421 1292 421 1292 418 1290.5 c 128,-1,154
 415 1289 415 1289 413 1287 c 0,155,156
 402 1281 402 1281 391 1275 c 0,157,158
 350 1248 350 1248 326 1204 c 0,159,160
 314 1182 314 1182 308 1154 c 128,-1,161
 302 1126 302 1126 302 1092 c 0,162,163
 302 1066 302 1066 315 1047 c 0,164,165
 316 1046 316 1046 316.5 1044.5 c 128,-1,166
 317 1043 317 1043 318 1042 c 128,-1,167
 319 1041 319 1041 319 1040 c 0,168,169
 321 1037 321 1037 324 1034 c 128,-1,170
 327 1031 327 1031 330 1028 c 128,-1,171
 333 1025 333 1025 336 1022 c 128,-1,172
 339 1019 339 1019 342 1016.5 c 128,-1,173
 345 1014 345 1014 348 1011 c 0,174,175
 355 1006 355 1006 362.5 1001.5 c 128,-1,176
 370 997 370 997 378 993 c 0,177,178
 382 991 382 991 386 989 c 128,-1,179
 390 987 390 987 394 985 c 0,180,181
 420 974 420 974 444 969 c 2,182,-1
 879 859 l 2,183,184
 897 855 897 855 914.5 849.5 c 128,-1,185
 932 844 932 844 950 837 c 0,186,187
 985 825 985 825 1020 809 c 0,188,189
 1088 777 1088 777 1140 732 c 0,190,191
 1158 717 1158 717 1173 699 c 0,192,193
 1181 690 1181 690 1188 681 c 128,-1,194
 1195 672 1195 672 1202 663 c 0,195,196
 1215 644 1215 644 1226 623 c 0,197,198
 1259 560 1259 560 1259 481 c 0,199,200
 1259 453 1259 453 1255.5 427 c 128,-1,201
 1252 401 1252 401 1244.5 377 c 128,-1,202
 1237 353 1237 353 1227 330 c 0,203,204
 1211 296 1211 296 1189 266 c 128,-1,205
 1167 236 1167 236 1141 209 c 0,206,207
 1128 196 1128 196 1113 183.5 c 128,-1,208
 1098 171 1098 171 1083 159 c 0,209,210
 1052 136 1052 136 1017 117 c 0,211,212
 945 79 945 79 867 53 c 0,213,214
 828 40 828 40 788 31 c 128,-1,215
 748 22 748 22 708.5 15.5 c 128,-1,216
 669 9 669 9 631.5 6 c 128,-1,217
 594 3 594 3 559 3 c 0,218,219
 521 3 521 3 469 9.5 c 128,-1,220
 417 16 417 16 361 30 c 0,221,222
 353 32 353 32 345 35 c 0,223,224
 341 36 341 36 336.5 37 c 128,-1,225
 332 38 332 38 328 39 c 0,226,227
 320 41 320 41 312 43.5 c 128,-1,228
 304 46 304 46 296 49 c 0,229,230
 293 50 293 50 290.5 51 c 128,-1,231
 288 52 288 52 285.5 53 c 128,-1,232
 283 54 283 54 281 55 c 0,233,234
 273 58 273 58 265 61 c 128,-1,235
 257 64 257 64 250 67 c 0,236,237
 195 89 195 89 152 121 c 0,238,239
 138 132 138 132 125 143 c 0,240,241
 119 149 119 149 112.5 155.5 c 128,-1,242
 106 162 106 162 101 168 c 0,0,1
EndSplineSet
Validated: 1
EndChar

StartChar: T
Encoding: 84 84 55
Width: 1274
GlyphClass: 2
Flags: W
LayerCount: 2
Fore
SplineSet
1307 1373 m 1,0,-1
 1306.06445312 1365 l 1,1,2
 1306.06445312 1354 1306.06445312 1354 1302.56445312 1349 c 128,-1,3
 1299.06445312 1344 1299.06445312 1344 1298.56445312 1342 c 128,-1,4
 1298.06445312 1340 1298.06445312 1340 1297.06445312 1337.5 c 128,-1,5
 1296.06445312 1335 1296.06445312 1335 1294.06445312 1333 c 128,-1,6
 1292.06445312 1331 1292.06445312 1331 1290.06445312 1327 c 0,7,8
 1272.06445312 1290 1272.06445312 1290 1215.06445312 1290 c 0,9,10
 1203.06445312 1290 1203.06445312 1290 1191.56445312 1290.5 c 128,-1,11
 1180.06445312 1291 1180.06445312 1291 1168.56445312 1291.5 c 128,-1,12
 1157.06445312 1292 1157.06445312 1292 1145.56445312 1292.5 c 128,-1,13
 1134.06445312 1293 1134.06445312 1293 1122.56445312 1294 c 128,-1,14
 1111.06445312 1295 1111.06445312 1295 1100.06445312 1296 c 0,15,16
 1011.06445312 1308 1011.06445312 1308 934.064453125 1308 c 2,17,-1
 822.064453125 1308 l 1,18,-1
 787.064453125 828 l 2,19,20
 785.064453125 822 785.064453125 822 783.064453125 806 c 0,21,22
 777.064453125 760 777.064453125 760 774.064453125 741 c 0,23,24
 767.064453125 700 767.064453125 700 764.064453125 677 c 0,25,26
 754.064453125 618 754.064453125 618 752.064453125 607 c 0,27,28
 748.064453125 579 748.064453125 579 741.064453125 544 c 0,29,30
 735.064453125 514 735.064453125 514 732.564453125 501 c 128,-1,31
 730.064453125 488 730.064453125 488 721.564453125 456.5 c 128,-1,32
 713.064453125 425 713.064453125 425 703.564453125 388 c 128,-1,33
 694.064453125 351 694.064453125 351 684.564453125 316.5 c 128,-1,34
 675.064453125 282 675.064453125 282 670.564453125 265 c 128,-1,35
 666.064453125 248 666.064453125 248 660.064453125 223 c 128,-1,36
 654.064453125 198 654.064453125 198 648.564453125 180 c 128,-1,37
 643.064453125 162 643.064453125 162 640.564453125 154.5 c 128,-1,38
 638.064453125 147 638.064453125 147 635.064453125 139.5 c 128,-1,39
 632.064453125 132 632.064453125 132 626.564453125 119 c 128,-1,40
 621.064453125 106 621.064453125 106 619.564453125 102.5 c 128,-1,41
 618.064453125 99 618.064453125 99 618.064453125 98 c 0,42,43
 615.064453125 92 615.064453125 92 615.064453125 92 c 0,44,45
 612.064453125 89 612.064453125 89 610.064453125 84 c 1,46,-1
 599.064453125 65 l 2,47,48
 596.064453125 61 596.064453125 61 586.064453125 46 c 0,49,50
 553.064453125 1 553.064453125 1 500.064453125 1 c 0,51,52
 495.064453125 1 495.064453125 1 488.064453125 2 c 128,-1,53
 481.064453125 3 481.064453125 3 477.064453125 3.5 c 128,-1,54
 473.064453125 4 473.064453125 4 469.564453125 5.5 c 128,-1,55
 466.064453125 7 466.064453125 7 456.064453125 11 c 128,-1,56
 446.064453125 15 446.064453125 15 435.564453125 24.5 c 128,-1,57
 425.064453125 34 425.064453125 34 419.564453125 41 c 128,-1,58
 414.064453125 48 414.064453125 48 410.064453125 56 c 0,59,60
 402.064453125 72 402.064453125 72 402.064453125 90 c 0,61,62
 402.064453125 142 402.064453125 142 429.564453125 205 c 128,-1,63
 457.064453125 268 457.064453125 268 472.064453125 301.5 c 128,-1,64
 487.064453125 335 487.064453125 335 493.064453125 362 c 0,65,66
 620.064453125 832 620.064453125 832 620.064453125 1308 c 2,67,-1
 620.064453125 1310 l 1,68,-1
 205.064453125 1321 l 1,69,70
 154.064453125 1321 154.064453125 1321 134.064453125 1385 c 0,71,72
 130.064453125 1398 130.064453125 1398 130.064453125 1414 c 0,73,74
 130.064453125 1428 130.064453125 1428 134.064453125 1444 c 1,75,-1
 145.064453125 1468 l 1,76,77
 163.064453125 1504 163.064453125 1504 199.064453125 1504 c 2,78,-1
 977.064453125 1504 l 1,79,-1
 1023.06445312 1505 l 2,80,81
 1056.06445312 1505 1056.06445312 1505 1090.06445312 1505 c 0,82,83
 1308.06445312 1505 1308.06445312 1505 1308.06445312 1386 c 2,84,-1
 1308 1380 l 1,85,-1
 1307 1373 l 1,0,-1
EndSplineSet
Validated: 1
EndChar

StartChar: U
Encoding: 85 85 56
Width: 1340
GlyphClass: 2
Flags: W
LayerCount: 2
Fore
SplineSet
1043 1071 m 1,0,-1
 1038 1423 l 2,1,2
 1038 1484 1038 1484 1096 1509 c 0,3,4
 1122 1520 1122 1520 1137 1520 c 0,5,6
 1237 1520 1237 1520 1248 1435 c 1,7,8
 1259 1205 1259 1205 1259 1082 c 0,9,10
 1259 970 1259 970 1252 881 c 0,11,12
 1247 814 1247 814 1240 766 c 0,13,14
 1186 380 1186 380 1028 179 c 1,15,16
 866 -18 866 -18 610 -26 c 1,17,-1
 586 -26 l 2,18,19
 218 -26 218 -26 122 328 c 0,20,21
 78 491 78 491 78 703 c 2,22,-1
 78 737 l 1,23,24
 81 902 81 902 94 1066 c 0,25,26
 110 1265 110 1265 110 1337 c 2,27,-1
 110 1448 l 1,28,-1
 110 1449 l 1,29,-1
 110 1450 l 1,30,-1
 110 1451 l 1,31,-1
 110 1452 l 1,32,-1
 111 1454 l 1,33,34
 123 1501 123 1501 188 1516 c 0,35,36
 205 1520 205 1520 213 1520 c 0,37,38
 301 1520 301 1520 313 1462 c 0,39,40
 314 1457 314 1457 315 1449 c 1,41,-1
 290 1024 l 1,42,43
 291 1005 291 1005 291 986 c 2,44,-1
 280 642 l 2,45,-1
 280 631 l 0,46,47
 278 597 278 597 278 565 c 0,48,49
 278 248 278 248 495 183 c 0,50,51
 542 169 542 169 614 169 c 0,52,53
 881 169 881 169 999 574 c 0,54,55
 1040 715 1040 715 1043 869 c 1,56,-1
 1043 1071 l 1,0,-1
EndSplineSet
Validated: 1
EndChar

StartChar: V
Encoding: 86 86 57
Width: 1383
GlyphClass: 2
Flags: W
LayerCount: 2
Fore
SplineSet
109 1433 m 1,0,-1
 109 1434 l 1,1,-1
 109 1435 l 1,2,-1
 109 1436 l 2,3,4
 119 1467 119 1467 142 1486 c 0,5,6
 154 1496 154 1496 168 1500.5 c 128,-1,7
 182 1505 182 1505 199 1505 c 0,8,9
 214 1505 214 1505 227.5 1500.5 c 128,-1,10
 241 1496 241 1496 254 1488 c 0,11,12
 258 1485 258 1485 262 1481.5 c 128,-1,13
 266 1478 266 1478 269 1474.5 c 128,-1,14
 272 1471 272 1471 275 1467 c 128,-1,15
 278 1463 278 1463 280.5 1459 c 128,-1,16
 283 1455 283 1455 285 1450.5 c 128,-1,17
 287 1446 287 1446 289 1441 c 2,18,-1
 289 1440 l 1,19,20
 302 1358 302 1358 315 1286.5 c 128,-1,21
 328 1215 328 1215 341 1152 c 0,22,23
 369 1026 369 1026 397.5 929 c 128,-1,24
 426 832 426 832 456 758 c 0,25,26
 461 746 461 746 465.5 734 c 128,-1,27
 470 722 470 722 475 710.5 c 128,-1,28
 480 699 480 699 484.5 688 c 128,-1,29
 489 677 489 677 494 666 c 128,-1,30
 499 655 499 655 503.5 645 c 128,-1,31
 508 635 508 635 513 625 c 0,32,33
 522 605 522 605 531.5 586.5 c 128,-1,34
 541 568 541 568 550 550.5 c 128,-1,35
 559 533 559 533 568 517 c 0,36,37
 595 468 595 468 620 421 c 0,38,39
 645 374 645 374 666 322 c 0,40,41
 672 308 672 308 678 292.5 c 128,-1,42
 684 277 684 277 689.5 261.5 c 128,-1,43
 695 246 695 246 699 229 c 1,44,-1
 956 663 l 2,45,46
 981 705 981 705 1002 749.5 c 128,-1,47
 1023 794 1023 794 1040 841 c 128,-1,48
 1057 888 1057 888 1070.5 936 c 128,-1,49
 1084 984 1084 984 1094 1032.5 c 128,-1,50
 1104 1081 1104 1081 1111.5 1130.5 c 128,-1,51
 1119 1180 1119 1180 1124 1230 c 0,52,53
 1133 1330 1133 1330 1135 1427 c 2,54,-1
 1135 1428 l 1,55,-1
 1135 1429 l 2,56,57
 1140 1447 1140 1447 1149 1461 c 128,-1,58
 1158 1475 1158 1475 1170 1485 c 0,59,60
 1195 1505 1195 1505 1231 1505 c 0,61,62
 1238 1505 1238 1505 1244.5 1504 c 128,-1,63
 1251 1503 1251 1503 1257 1501.5 c 128,-1,64
 1263 1500 1263 1500 1269 1497.5 c 128,-1,65
 1275 1495 1275 1495 1280 1491.5 c 128,-1,66
 1285 1488 1285 1488 1289.5 1483.5 c 128,-1,67
 1294 1479 1294 1479 1298 1474 c 0,68,69
 1304 1467 1304 1467 1308 1458.5 c 128,-1,70
 1312 1450 1312 1450 1315 1441.5 c 128,-1,71
 1318 1433 1318 1433 1319.5 1424 c 128,-1,72
 1321 1415 1321 1415 1321 1405 c 0,73,74
 1321 1323 1321 1323 1314 1230 c 0,75,76
 1311 1183 1311 1183 1305.5 1136 c 128,-1,77
 1300 1089 1300 1089 1291 1042 c 0,78,79
 1274 947 1274 947 1247 857 c 0,80,81
 1219 767 1219 767 1177 692 c 2,82,-1
 804 50 l 2,83,84
 797 38 797 38 787.5 29 c 128,-1,85
 778 20 778 20 766 13.5 c 128,-1,86
 754 7 754 7 741.5 3.5 c 128,-1,87
 729 0 729 0 716 0 c 0,88,89
 685 0 685 0 653 15 c 0,90,91
 622 29 622 29 595 51 c 128,-1,92
 568 73 568 73 547 99 c 0,93,94
 526 125 526 125 516 147 c 0,95,96
 477 244 477 244 431 340 c 0,97,98
 408 388 408 388 385 437 c 128,-1,99
 362 486 362 486 339 535 c 0,100,101
 294 633 294 633 253 731 c 0,102,103
 211 830 211 830 179 932 c 128,-1,104
 147 1034 147 1034 128 1139 c 0,105,106
 118 1192 118 1192 113.5 1246 c 128,-1,107
 109 1300 109 1300 109 1355 c 2,108,-1
 109 1433 l 1,0,-1
EndSplineSet
Validated: 1
EndChar

StartChar: W
Encoding: 87 87 58
Width: 1856
GlyphClass: 2
Flags: W
LayerCount: 2
Fore
SplineSet
233 1499 m 0,0,1
 245 1491 245 1491 248 1479 c 2,2,-1
 392 956 l 1,3,-1
 651 427 l 1,4,-1
 720 286 l 1,5,-1
 721 288 l 2,6,7
 731 313 731 313 739 335.5 c 128,-1,8
 747 358 747 358 754 378 c 128,-1,9
 761 398 761 398 767 418 c 128,-1,10
 773 438 773 438 779 458 c 0,11,12
 791 499 791 499 803 546 c 2,13,-1
 832 661 l 1,14,-1
 833 662 l 2,15,16
 840 683 840 683 848 703 c 0,17,18
 857 725 857 725 870 742 c 0,19,20
 872 745 872 745 874.5 748 c 128,-1,21
 877 751 877 751 879 754 c 0,22,23
 880 755 880 755 881.5 756.5 c 128,-1,24
 883 758 883 758 884 759 c 0,25,26
 887 761 887 761 890 763.5 c 128,-1,27
 893 766 893 766 896 768 c 128,-1,28
 899 770 899 770 902 772 c 0,29,30
 907 775 907 775 912.5 777 c 128,-1,31
 918 779 918 779 924.5 780.5 c 128,-1,32
 931 782 931 782 937.5 783 c 128,-1,33
 944 784 944 784 951 784 c 0,34,35
 955 784 955 784 959.5 783.5 c 128,-1,36
 964 783 964 783 968.5 782 c 128,-1,37
 973 781 973 781 977 780 c 128,-1,38
 981 779 981 779 985 777 c 0,39,40
 1001 770 1001 770 1016 758 c 0,41,42
 1044 734 1044 734 1067 693 c 0,43,44
 1070 688 1070 688 1072.5 683 c 128,-1,45
 1075 678 1075 678 1078 673 c 128,-1,46
 1081 668 1081 668 1083.5 662.5 c 128,-1,47
 1086 657 1086 657 1089 651 c 0,48,49
 1094 640 1094 640 1099 628.5 c 128,-1,50
 1104 617 1104 617 1109 604 c 0,51,52
 1128 555 1128 555 1147 504 c 128,-1,53
 1166 453 1166 453 1185 404 c 0,54,55
 1191 388 1191 388 1197 372 c 0,56,57
 1199 367 1199 367 1201 362.5 c 128,-1,58
 1203 358 1203 358 1205.5 353 c 128,-1,59
 1208 348 1208 348 1210 344 c 0,60,61
 1217 330 1217 330 1223 317 c 0,62,63
 1233 298 1233 298 1244 283 c 0,64,65
 1249 276 1249 276 1254.5 269.5 c 128,-1,66
 1260 263 1260 263 1266 257 c 0,67,68
 1277 247 1277 247 1288 242 c 128,-1,69
 1299 237 1299 237 1311 237 c 0,70,71
 1315 239 1315 239 1323 251 c 0,72,73
 1325 254 1325 254 1326.5 256.5 c 128,-1,74
 1328 259 1328 259 1329.5 262.5 c 128,-1,75
 1331 266 1331 266 1333 269 c 128,-1,76
 1335 272 1335 272 1337 276 c 128,-1,77
 1339 280 1339 280 1341 284 c 128,-1,78
 1343 288 1343 288 1345 292 c 0,79,80
 1357 317 1357 317 1367 340.5 c 128,-1,81
 1377 364 1377 364 1386.5 386.5 c 128,-1,82
 1396 409 1396 409 1397 411 c 0,83,84
 1437 500 1437 500 1465 592 c 0,85,86
 1474 622 1474 622 1481.5 653 c 128,-1,87
 1489 684 1489 684 1495.5 715 c 128,-1,88
 1502 746 1502 746 1507 778 c 0,89,90
 1522 873 1522 873 1522 975 c 0,91,92
 1522 1064 1522 1064 1519 1152 c 0,93,94
 1516 1240 1516 1240 1516 1328 c 2,95,-1
 1516 1337 l 2,96,97
 1516 1344 1516 1344 1517 1360 c 0,98,99
 1518 1375 1518 1375 1519 1393 c 0,100,101
 1520 1402 1520 1402 1520.5 1410 c 128,-1,102
 1521 1418 1521 1418 1521 1426 c 0,103,104
 1521 1433 1521 1433 1521.5 1438.5 c 128,-1,105
 1522 1444 1522 1444 1522 1446 c 2,106,-1
 1522 1448 l 2,107,108
 1525 1457 1525 1457 1528 1464 c 0,109,110
 1530 1468 1530 1468 1531.5 1471 c 128,-1,111
 1533 1474 1533 1474 1535 1477 c 0,112,113
 1539 1483 1539 1483 1545 1489 c 0,114,115
 1548 1492 1548 1492 1550.5 1494 c 128,-1,116
 1553 1496 1553 1496 1557 1498 c 0,117,118
 1569 1506 1569 1506 1583 1510 c 0,119,120
 1588 1511 1588 1511 1593 1512 c 128,-1,121
 1598 1513 1598 1513 1603 1513.5 c 128,-1,122
 1608 1514 1608 1514 1613 1514 c 0,123,124
 1631 1514 1631 1514 1645.5 1509 c 128,-1,125
 1660 1504 1660 1504 1671 1494 c 0,126,127
 1681 1485 1681 1485 1689 1472.5 c 128,-1,128
 1697 1460 1697 1460 1703 1446 c 2,129,-1
 1704 1444 l 1,130,-1
 1704 1442 l 2,131,132
 1706 1370 1706 1370 1707.5 1315 c 128,-1,133
 1709 1260 1709 1260 1709.5 1210.5 c 128,-1,134
 1710 1161 1710 1161 1710 1110 c 2,135,-1
 1710 995 l 1,136,-1
 1710 841 l 1,137,-1
 1710 840 l 2,138,139
 1707 803 1707 803 1701.5 766.5 c 128,-1,140
 1696 730 1696 730 1689 695 c 128,-1,141
 1682 660 1682 660 1674 625 c 0,142,143
 1648 522 1648 522 1608.5 424 c 128,-1,144
 1569 326 1569 326 1519.5 230.5 c 128,-1,145
 1470 135 1470 135 1412 39 c 2,146,-1
 1411 39 l 1,147,-1
 1411 38 l 2,148,149
 1408 34 1408 34 1404.5 31 c 128,-1,150
 1401 28 1401 28 1397.5 25 c 128,-1,151
 1394 22 1394 22 1390.5 19.5 c 128,-1,152
 1387 17 1387 17 1383 14.5 c 128,-1,153
 1379 12 1379 12 1376 10 c 0,154,155
 1366 5 1366 5 1355 2.5 c 128,-1,156
 1344 0 1344 0 1332 0 c 0,157,158
 1318 0 1318 0 1303 3 c 0,159,160
 1296 4 1296 4 1289 6.5 c 128,-1,161
 1282 9 1282 9 1276 11 c 0,162,163
 1262 17 1262 17 1248 26 c 0,164,165
 1228 38 1228 38 1209.5 54 c 128,-1,166
 1191 70 1191 70 1172 89 c 0,167,168
 1163 99 1163 99 1154 109 c 128,-1,169
 1145 119 1145 119 1136.5 130 c 128,-1,170
 1128 141 1128 141 1119.5 152.5 c 128,-1,171
 1111 164 1111 164 1103 176 c 0,172,173
 1071 224 1071 224 1043 272 c 128,-1,174
 1015 320 1015 320 993 364 c 0,175,176
 990 370 990 370 987 376 c 128,-1,177
 984 382 984 382 981 388 c 128,-1,178
 978 394 978 394 975 399.5 c 128,-1,179
 972 405 972 405 969.5 410.5 c 128,-1,180
 967 416 967 416 965 420 c 1,181,182
 961 403 961 403 955 381 c 0,183,184
 945 340 945 340 932 292 c 0,185,186
 918 244 918 244 898 192 c 0,187,188
 893 179 893 179 888 167 c 128,-1,189
 883 155 883 155 878 143 c 0,190,191
 867 120 867 120 854 99 c 0,192,193
 848 88 848 88 841 78.5 c 128,-1,194
 834 69 834 69 827 60.5 c 128,-1,195
 820 52 820 52 812 44 c 0,196,197
 809 41 809 41 807 38.5 c 128,-1,198
 805 36 805 36 802.5 33.5 c 128,-1,199
 800 31 800 31 797 29 c 0,200,201
 780 15 780 15 762 7.5 c 128,-1,202
 744 0 744 0 724 0 c 0,203,204
 712 0 712 0 701 2.5 c 128,-1,205
 690 5 690 5 680.5 9.5 c 128,-1,206
 671 14 671 14 664 22 c 0,207,208
 643 42 643 42 627 68 c 0,209,210
 623 75 623 75 618 84 c 128,-1,211
 613 93 613 93 607.5 103 c 128,-1,212
 602 113 602 113 595 125 c 0,213,214
 576 160 576 160 557 193.5 c 128,-1,215
 538 227 538 227 524 253 c 0,216,217
 519 262 519 262 516 268 c 0,218,219
 514 271 514 271 513 273 c 128,-1,220
 512 275 512 275 511 276 c 0,221,222
 509 279 509 279 508 281 c 2,223,-1
 207 915 l 1,224,-1
 207 916 l 2,225,226
 206 919 206 919 194 956 c 0,227,228
 188 975 188 975 182 998 c 128,-1,229
 176 1021 176 1021 168 1048 c 0,230,231
 153 1103 153 1103 135.5 1166 c 128,-1,232
 118 1229 118 1229 103.5 1284 c 128,-1,233
 89 1339 89 1339 79 1376 c 0,234,235
 78 1378 78 1378 78 1382 c 0,236,237
 76 1389 76 1389 75 1392 c 128,-1,238
 74 1395 74 1395 73 1399.5 c 128,-1,239
 72 1404 72 1404 71.5 1406.5 c 128,-1,240
 71 1409 71 1409 70 1411.5 c 128,-1,241
 69 1414 69 1414 69 1415.5 c 128,-1,242
 69 1417 69 1417 69 1418 c 0,243,244
 69 1428 69 1428 70.5 1437.5 c 128,-1,245
 72 1447 72 1447 76 1456 c 0,246,247
 83 1473 83 1473 97 1487 c 0,248,249
 125 1514 125 1514 166 1514 c 0,250,251
 169 1514 169 1514 172.5 1514 c 128,-1,252
 176 1514 176 1514 179.5 1513.5 c 128,-1,253
 183 1513 183 1513 187 1513 c 0,254,255
 199 1512 199 1512 211 1509 c 0,256,257
 212 1509 212 1509 214 1508 c 128,-1,258
 216 1507 216 1507 217 1506.5 c 128,-1,259
 218 1506 218 1506 219.5 1505.5 c 128,-1,260
 221 1505 221 1505 223 1505 c 0,261,262
 226 1504 226 1504 228.5 1502.5 c 128,-1,263
 231 1501 231 1501 233 1499 c 0,0,1
EndSplineSet
Validated: 1
EndChar

StartChar: X
Encoding: 88 88 59
Width: 1526
GlyphClass: 2
Flags: W
LayerCount: 2
Fore
SplineSet
112 27 m 0,0,1
 99 39 99 39 92.5 55.5 c 128,-1,2
 86 72 86 72 86 91 c 0,3,4
 86 120 86 120 92 150 c 128,-1,5
 98 180 98 180 111 211 c 0,6,7
 123 242 123 242 139 273 c 128,-1,8
 155 304 155 304 175 336 c 0,9,10
 188 357 188 357 202 377.5 c 128,-1,11
 216 398 216 398 232 419 c 128,-1,12
 248 440 248 440 264 460 c 0,13,14
 314 521 314 521 365.5 577 c 128,-1,15
 417 633 417 633 465 680 c 0,16,17
 486 701 486 701 505.5 720 c 128,-1,18
 525 739 525 739 541 755 c 1,19,20
 510 796 510 796 467 841 c 0,21,22
 420 890 420 890 368.5 944 c 128,-1,23
 317 998 317 998 267 1055 c 0,24,25
 242 1084 242 1084 219 1113 c 128,-1,26
 196 1142 196 1142 176 1172 c 128,-1,27
 156 1202 156 1202 140 1232.5 c 128,-1,28
 124 1263 124 1263 111 1293 c 0,29,30
 86 1355 86 1355 86 1417 c 0,31,32
 86 1426 86 1426 87 1435 c 0,33,34
 87 1438 87 1438 88 1441 c 128,-1,35
 89 1444 89 1444 90 1447 c 128,-1,36
 91 1450 91 1450 92 1453 c 0,37,38
 95 1461 95 1461 99.5 1468.5 c 128,-1,39
 104 1476 104 1476 109 1483 c 0,40,41
 117 1492 117 1492 127.5 1498.5 c 128,-1,42
 138 1505 138 1505 150.5 1508 c 128,-1,43
 163 1511 163 1511 178 1511 c 0,44,45
 181 1511 181 1511 184.5 1511 c 128,-1,46
 188 1511 188 1511 191 1510.5 c 128,-1,47
 194 1510 194 1510 197 1509.5 c 128,-1,48
 200 1509 200 1509 202 1509 c 0,49,50
 213 1507 213 1507 223 1502 c 0,51,52
 227 1500 227 1500 231.5 1497 c 128,-1,53
 236 1494 236 1494 240 1490.5 c 128,-1,54
 244 1487 244 1487 248.5 1482.5 c 128,-1,55
 253 1478 253 1478 257 1472 c 0,56,-1
 258 1472 l 1,57,-1
 258 1471 l 1,58,-1
 259 1470 l 1,59,60
 299 1387 299 1387 345 1307 c 0,61,62
 392 1227 392 1227 446 1151 c 128,-1,63
 500 1075 500 1075 561 1005 c 0,64,65
 619 939 619 939 686 880 c 1,66,67
 693 886 693 886 701 893 c 128,-1,68
 709 900 709 900 720 909 c 0,69,70
 748 932 748 932 782.5 961.5 c 128,-1,71
 817 991 817 991 855 1023.5 c 128,-1,72
 893 1056 893 1056 927 1085 c 128,-1,73
 961 1114 961 1114 987.5 1137.5 c 128,-1,74
 1014 1161 1014 1161 1027 1173 c 0,75,76
 1033 1178 1033 1178 1040 1185.5 c 128,-1,77
 1047 1193 1047 1193 1055 1202 c 0,78,79
 1059 1206 1059 1206 1062.5 1210.5 c 128,-1,80
 1066 1215 1066 1215 1070 1221 c 0,81,82
 1094 1252 1094 1252 1122 1289 c 0,83,84
 1149 1326 1149 1326 1179 1365 c 0,85,86
 1194 1385 1194 1385 1209 1403 c 0,87,88
 1224 1421 1224 1421 1239 1436.5 c 128,-1,89
 1254 1452 1254 1452 1269.5 1465.5 c 128,-1,90
 1285 1479 1285 1479 1300 1489 c 0,91,92
 1305 1493 1305 1493 1310.5 1496 c 128,-1,93
 1316 1499 1316 1499 1321 1501 c 0,94,95
 1332 1506 1332 1506 1342 1509 c 0,96,97
 1347 1510 1347 1510 1352.5 1510.5 c 128,-1,98
 1358 1511 1358 1511 1363 1511 c 0,99,100
 1366 1511 1366 1511 1368.5 1511 c 128,-1,101
 1371 1511 1371 1511 1373.5 1510.5 c 128,-1,102
 1376 1510 1376 1510 1378 1510 c 128,-1,103
 1380 1510 1380 1510 1382.5 1509.5 c 128,-1,104
 1385 1509 1385 1509 1388 1508 c 0,105,106
 1400 1505 1400 1505 1410.5 1500 c 128,-1,107
 1421 1495 1421 1495 1430 1487 c 0,108,109
 1444 1475 1444 1475 1452 1458 c 0,110,111
 1456 1450 1456 1450 1457.5 1440 c 128,-1,112
 1459 1430 1459 1430 1459 1420 c 0,113,114
 1459 1401 1459 1401 1453.5 1381 c 128,-1,115
 1448 1361 1448 1361 1437 1339 c 0,116,117
 1416 1297 1416 1297 1382 1255 c 0,118,119
 1366 1234 1366 1234 1347.5 1213.5 c 128,-1,120
 1329 1193 1329 1193 1309 1172.5 c 128,-1,121
 1289 1152 1289 1152 1269.5 1133 c 128,-1,122
 1250 1114 1250 1114 1230 1096 c 0,123,124
 1217 1084 1217 1084 1205 1073 c 128,-1,125
 1193 1062 1193 1062 1181 1052 c 128,-1,126
 1169 1042 1169 1042 1158 1033 c 0,127,128
 1126 1006 1126 1006 1107 990 c 0,129,130
 1105 988 1105 988 1101.5 984.5 c 128,-1,131
 1098 981 1098 981 1093 977 c 128,-1,132
 1088 973 1088 973 1081 967 c 0,133,134
 1062 951 1062 951 1036 928.5 c 128,-1,135
 1010 906 1010 906 980.5 881.5 c 128,-1,136
 951 857 951 857 925 835 c 128,-1,137
 899 813 899 813 880 796.5 c 128,-1,138
 861 780 861 780 855 775 c 0,139,-1
 854 775 l 1,140,-1
 853 774 l 1,141,-1
 852 774 l 1,142,-1
 852 773 l 1,143,-1
 849 771 l 2,144,145
 848 770 848 770 847 769 c 128,-1,146
 846 768 846 768 844.5 767 c 128,-1,147
 843 766 843 766 842 765 c 2,148,-1
 835 757 l 2,149,150
 838 754 838 754 839.5 752.5 c 128,-1,151
 841 751 841 751 844 748 c 0,152,153
 850 742 850 742 857 735.5 c 128,-1,154
 864 729 864 729 872 722 c 128,-1,155
 880 715 880 715 889 708 c 0,156,157
 927 676 927 676 974.5 637 c 128,-1,158
 1022 598 1022 598 1077 553 c 0,159,160
 1104 530 1104 530 1131.5 507 c 128,-1,161
 1159 484 1159 484 1186 460 c 0,162,163
 1240 412 1240 412 1288.5 364 c 128,-1,164
 1337 316 1337 316 1375 269 c 0,165,166
 1385 257 1385 257 1393.5 245.5 c 128,-1,167
 1402 234 1402 234 1409.5 223 c 128,-1,168
 1417 212 1417 212 1423.5 201 c 128,-1,169
 1430 190 1430 190 1436 179 c 0,170,171
 1448 157 1448 157 1453.5 136.5 c 128,-1,172
 1459 116 1459 116 1459 97 c 0,173,174
 1458 53 1458 53 1432 28 c 0,175,176
 1419 16 1419 16 1401.5 9.5 c 128,-1,177
 1384 3 1384 3 1363 3 c 0,178,179
 1360 3 1360 3 1356.5 3 c 128,-1,180
 1353 3 1353 3 1350 3.5 c 128,-1,181
 1347 4 1347 4 1344 4 c 0,182,183
 1335 5 1335 5 1326 9 c 0,184,185
 1322 10 1322 10 1318 12 c 128,-1,186
 1314 14 1314 14 1310 16 c 0,187,188
 1307 17 1307 17 1304.5 19 c 128,-1,189
 1302 21 1302 21 1299.5 23 c 128,-1,190
 1297 25 1297 25 1295 27 c 0,191,192
 1281 38 1281 38 1269 51.5 c 128,-1,193
 1257 65 1257 65 1246 81 c 0,194,195
 1225 112 1225 112 1205 146 c 0,196,197
 1199 157 1199 157 1192.5 166.5 c 128,-1,198
 1186 176 1186 176 1179 184.5 c 128,-1,199
 1172 193 1172 193 1165 200 c 0,200,201
 1102 264 1102 264 1045 318 c 128,-1,202
 988 372 988 372 930.5 424 c 128,-1,203
 873 476 873 476 812 527 c 0,204,205
 782 552 782 552 750 580 c 0,206,207
 719 606 719 606 687 633 c 1,208,209
 681 627 681 627 675.5 621.5 c 128,-1,210
 670 616 670 616 664 610 c 0,211,212
 651 597 651 597 639 583.5 c 128,-1,213
 627 570 627 570 614.5 557 c 128,-1,214
 602 544 602 544 591 530 c 0,215,216
 585 523 585 523 579 516.5 c 128,-1,217
 573 510 573 510 567 503 c 0,218,219
 507 434 507 434 452.5 361.5 c 128,-1,220
 398 289 398 289 351 212 c 0,221,222
 304 135 304 135 265 50 c 2,223,-1
 264 49 l 2,224,225
 248 22 248 22 226 12 c 0,226,227
 204 3 204 3 175 3 c 0,228,229
 166 3 166 3 157.5 4.5 c 128,-1,230
 149 6 149 6 141 9 c 0,231,232
 139 10 139 10 137.5 10.5 c 128,-1,233
 136 11 136 11 134.5 12 c 128,-1,234
 133 13 133 13 131.5 13.5 c 128,-1,235
 130 14 130 14 128.5 15 c 128,-1,236
 127 16 127 16 126 17 c 0,237,238
 122 19 122 19 118.5 21.5 c 128,-1,239
 115 24 115 24 112 27 c 0,0,1
EndSplineSet
Validated: 1
EndChar

StartChar: Y
Encoding: 89 89 60
Width: 1317
GlyphClass: 2
Flags: W
LayerCount: 2
Fore
SplineSet
912 1103 m 0,0,1
 942 1147 942 1147 967 1193 c 0,2,-1
 971 1204 l 2,3,4
 972 1207 972 1207 973.5 1210 c 128,-1,5
 975 1213 975 1213 976 1216 c 0,6,7
 978 1222 978 1222 981 1229.5 c 128,-1,8
 984 1237 984 1237 986 1245 c 0,9,10
 991 1261 991 1261 996.5 1277.5 c 128,-1,11
 1002 1294 1002 1294 1007 1312 c 0,12,13
 1018 1348 1018 1348 1031 1383 c 0,14,15
 1032 1387 1032 1387 1033.5 1390 c 128,-1,16
 1035 1393 1035 1393 1037 1397 c 0,17,18
 1040 1404 1040 1404 1043 1410.5 c 128,-1,19
 1046 1417 1046 1417 1049 1423.5 c 128,-1,20
 1052 1430 1052 1430 1055.5 1436 c 128,-1,21
 1059 1442 1059 1442 1062 1448 c 0,22,23
 1071 1463 1071 1463 1081.5 1475.5 c 128,-1,24
 1092 1488 1092 1488 1105 1498 c 0,25,26
 1108 1500 1108 1500 1111 1502 c 128,-1,27
 1114 1504 1114 1504 1117 1506 c 128,-1,28
 1120 1508 1120 1508 1124 1510 c 0,29,30
 1134 1515 1134 1515 1145 1517 c 0,31,32
 1150 1518 1150 1518 1156 1518.5 c 128,-1,33
 1162 1519 1162 1519 1168 1519 c 0,34,35
 1178 1519 1178 1519 1186.5 1518 c 128,-1,36
 1195 1517 1195 1517 1203.5 1514.5 c 128,-1,37
 1212 1512 1212 1512 1220 1508.5 c 128,-1,38
 1228 1505 1228 1505 1235 1501 c 0,39,40
 1251 1491 1251 1491 1259 1474 c 0,41,42
 1267 1458 1267 1458 1267 1436 c 0,43,44
 1267 1419 1267 1419 1265 1400.5 c 128,-1,45
 1263 1382 1263 1382 1259.5 1363.5 c 128,-1,46
 1256 1345 1256 1345 1250 1325 c 0,47,48
 1233 1267 1233 1267 1206 1210 c 0,49,50
 1180 1153 1180 1153 1149 1102 c 0,51,52
 1141 1089 1141 1089 1133 1077 c 128,-1,53
 1125 1065 1125 1065 1118 1054 c 0,54,55
 1113 1046 1113 1046 1108 1039 c 128,-1,56
 1103 1032 1103 1032 1098 1025 c 128,-1,57
 1093 1018 1093 1018 1089 1012 c 2,58,-1
 861 714 l 1,59,-1
 858 709 l 1,60,-1
 858 666 l 2,61,62
 858 566 858 566 867 460 c 0,63,64
 876 353 876 353 876 252 c 0,65,66
 876 237 876 237 878 214 c 0,67,68
 880 190 880 190 880 163 c 0,69,70
 880 150 880 150 879 137 c 0,71,72
 879 133 879 133 878.5 128.5 c 128,-1,73
 878 124 878 124 878 119.5 c 128,-1,74
 878 115 878 115 877 110 c 0,75,76
 876 103 876 103 875 96.5 c 128,-1,77
 874 90 874 90 872 83 c 0,78,79
 871 81 871 81 871 79.5 c 128,-1,80
 871 78 871 78 870 76 c 128,-1,81
 869 74 869 74 868.5 72.5 c 128,-1,82
 868 71 868 71 867.5 69 c 128,-1,83
 867 67 867 67 866 65.5 c 128,-1,84
 865 64 865 64 864.5 62.5 c 128,-1,85
 864 61 864 61 863 59 c 0,86,87
 851 35 851 35 829 19 c 0,88,89
 806 3 806 3 771 3 c 0,90,91
 760 3 760 3 749.5 4.5 c 128,-1,92
 739 6 739 6 729 9 c 128,-1,93
 719 12 719 12 709 17 c 0,94,95
 677 32 677 32 667 71 c 2,96,-1
 667 72 l 1,97,-1
 667 73 l 1,98,-1
 667 74 l 2,99,100
 670 135 670 135 670 197 c 2,101,-1
 670 219 l 2,102,103
 670 293 670 293 666 366.5 c 128,-1,104
 662 440 662 440 656 514 c 0,105,106
 650 587 650 587 643 656 c 1,107,-1
 639 675 l 2,108,109
 638 677 l 0,110,111
 638 678 638 678 637 679 c 2,112,-1
 635 680 l 2,113,114
 634 681 l 2,115,-1
 633 682 l 1,116,-1
 631 683 l 1,117,-1
 340 938 l 2,118,119
 335 942 335 942 330.5 946 c 128,-1,120
 326 950 326 950 321 954.5 c 128,-1,121
 316 959 316 959 311.5 964 c 128,-1,122
 307 969 307 969 302.5 973.5 c 128,-1,123
 298 978 298 978 293.5 983 c 128,-1,124
 289 988 289 988 284 993 c 128,-1,125
 279 998 279 998 274.5 1003.5 c 128,-1,126
 270 1009 270 1009 265.5 1014.5 c 128,-1,127
 261 1020 261 1020 256.5 1025.5 c 128,-1,128
 252 1031 252 1031 247 1036 c 0,129,130
 235 1050 235 1050 224 1065.5 c 128,-1,131
 213 1081 213 1081 202.5 1096.5 c 128,-1,132
 192 1112 192 1112 181.5 1127.5 c 128,-1,133
 171 1143 171 1143 161.5 1159.5 c 128,-1,134
 152 1176 152 1176 143.5 1193 c 128,-1,135
 135 1210 135 1210 127 1226 c 0,136,137
 111 1260 111 1260 99 1294 c 0,138,139
 95 1306 95 1306 91 1317 c 128,-1,140
 87 1328 87 1328 84.5 1339.5 c 128,-1,141
 82 1351 82 1351 79 1362 c 0,142,143
 73 1396 73 1396 73 1428 c 0,144,145
 73 1438 73 1438 74.5 1447 c 128,-1,146
 76 1456 76 1456 79.5 1464.5 c 128,-1,147
 83 1473 83 1473 89 1480 c 0,148,149
 92 1483 92 1483 94.5 1486 c 128,-1,150
 97 1489 97 1489 101 1492 c 0,151,152
 128 1513 128 1513 170 1513 c 0,153,154
 204 1513 204 1513 231 1489 c 0,155,156
 234 1486 234 1486 237 1483 c 128,-1,157
 240 1480 240 1480 243 1477 c 128,-1,158
 246 1474 246 1474 248.5 1470.5 c 128,-1,159
 251 1467 251 1467 254 1464 c 0,160,161
 265 1450 265 1450 276 1433 c 0,162,163
 296 1400 296 1400 313 1361 c 0,164,165
 330 1322 330 1322 345 1285 c 0,166,167
 361 1248 361 1248 375 1215 c 0,168,169
 388 1184 388 1184 401 1168 c 0,170,171
 473 1080 473 1080 558 997 c 0,172,173
 597 959 597 959 638 924.5 c 128,-1,174
 679 890 679 890 723 859 c 1,175,176
 726 863 726 863 728.5 865.5 c 128,-1,177
 731 868 731 868 732.5 870.5 c 128,-1,178
 734 873 734 873 737 876 c 0,179,180
 748 889 748 889 758.5 902 c 128,-1,181
 769 915 769 915 781 929 c 0,182,183
 816 971 816 971 849 1014.5 c 128,-1,184
 882 1058 882 1058 912 1103 c 0,0,1
EndSplineSet
Validated: 1
EndChar

StartChar: Z
Encoding: 90 90 61
Width: 1512
GlyphClass: 2
Flags: W
LayerCount: 2
Fore
SplineSet
1376 221 m 1,0,1
 1448 200 1448 200 1448 126 c 0,2,3
 1448 88 1448 88 1417 57 c 0,4,5
 1415 55 1415 55 1413 54 c 128,-1,6
 1411 53 1411 53 1409 52 c 0,7,8
 1396 42 1396 42 1383 38 c 1,9,-1
 1352 38 l 2,10,11
 1231 38 1231 38 1140 30 c 0,12,13
 1019 21 1019 21 988 18 c 0,14,15
 812 1 812 1 616 1 c 0,16,17
 450 1 450 1 302 18 c 0,18,19
 241 25 241 25 184 34 c 0,20,21
 124 44 124 44 98 66.5 c 128,-1,22
 72 89 72 89 72 114.5 c 128,-1,23
 72 140 72 140 73 151 c 128,-1,24
 74 162 74 162 76.5 173.5 c 128,-1,25
 79 185 79 185 82 196 c 0,26,27
 142 391 142 391 437 698 c 0,28,29
 462 724 462 724 478 740 c 0,30,31
 494 755 494 755 500 761 c 128,-1,32
 506 767 506 767 512 772 c 128,-1,33
 518 777 518 777 523.5 782.5 c 128,-1,34
 529 788 529 788 536.5 794.5 c 128,-1,35
 544 801 544 801 553.5 809.5 c 128,-1,36
 563 818 563 818 571 825 c 2,37,-1
 1019 1192 l 1,38,-1
 1126 1296 l 1,39,-1
 850 1291 l 1,40,41
 760 1291 760 1291 670 1296 c 1,42,-1
 314 1320 l 2,43,44
 240 1325 240 1325 168 1325 c 2,45,-1
 139 1325 l 1,46,47
 72 1345 72 1345 72 1416 c 128,-1,48
 72 1487 72 1487 138 1508 c 1,49,-1
 269 1508 l 2,50,51
 343 1508 343 1508 418 1503 c 0,52,53
 778 1479 778 1479 929 1479 c 4,54,55
 1081 1479 1081 1479 1332 1514 c 1,56,-1
 1354 1514 l 2,57,58
 1418 1514 1418 1514 1441 1462 c 0,59,60
 1448 1446 1448 1446 1448 1426 c 0,61,62
 1448 1330 1448 1330 1270 1158 c 0,63,64
 1176 1067 1176 1067 1080 989 c 0,65,66
 592 593 592 593 484 485 c 0,67,68
 312 313 312 313 308 212 c 1,69,70
 384 191 384 191 527 191 c 2,71,-1
 563 191 l 1,72,73
 608 192 608 192 667.5 192 c 128,-1,74
 727 192 727 192 801.5 196 c 128,-1,75
 876 200 876 200 950 206 c 0,76,77
 1137 221 1137 221 1249 221 c 2,78,-1
 1376 221 l 1,0,1
EndSplineSet
Validated: 1
EndChar

StartChar: bracketleft
Encoding: 91 91 62
Width: 868
GlyphClass: 2
Flags: W
LayerCount: 2
Fore
SplineSet
120 -192 m 1,0,-1
 187 449 l 1,1,-1
 245 1483 l 2,2,3
 246 1494 246 1494 253 1504 c 128,-1,4
 260 1514 260 1514 269.5 1521 c 128,-1,5
 279 1528 279 1528 290 1532 c 128,-1,6
 301 1536 301 1536 311 1536 c 2,7,-1
 736 1536 l 2,8,9
 751 1536 751 1536 761.5 1529.5 c 128,-1,10
 772 1523 772 1523 779.5 1512.5 c 128,-1,11
 787 1502 787 1502 790.5 1489 c 128,-1,12
 794 1476 794 1476 794 1464 c 0,13,14
 794 1455 794 1455 792 1443.5 c 128,-1,15
 790 1432 790 1432 785 1421 c 128,-1,16
 780 1410 780 1410 771 1402.5 c 128,-1,17
 762 1395 762 1395 749 1395 c 2,18,-1
 383 1395 l 1,19,-1
 337 521 l 1,20,-1
 277 -134 l 1,21,-1
 669 -134 l 2,22,23
 698 -134 698 -134 713 -158 c 128,-1,24
 728 -182 728 -182 728 -209 c 0,25,26
 728 -234 728 -234 717.5 -247.5 c 128,-1,27
 707 -261 707 -261 682 -271 c 1,28,29
 622 -274 622 -274 576 -275 c 128,-1,30
 530 -276 530 -276 488 -277 c 128,-1,31
 446 -278 446 -278 403 -278 c 128,-1,32
 360 -278 360 -278 306 -278 c 2,33,-1
 172 -278 l 2,34,35
 158 -278 158 -278 148.5 -271.5 c 128,-1,36
 139 -265 139 -265 132.5 -254.5 c 128,-1,37
 126 -244 126 -244 123 -232 c 128,-1,38
 120 -220 120 -220 120 -209 c 2,39,-1
 120 -192 l 1,0,-1
EndSplineSet
Validated: 1
EndChar

StartChar: backslash
Encoding: 92 92 63
Width: 963
GlyphClass: 2
Flags: W
LayerCount: 2
Fore
SplineSet
887 1 m 0,0,1
 887 -39 887 -39 860.5 -65.5 c 128,-1,2
 834 -92 834 -92 794 -92 c 0,3,4
 757 -92 757 -92 735.5 -73 c 128,-1,5
 714 -54 714 -54 700.5 -25.5 c 128,-1,6
 687 3 687 3 677.5 35.5 c 128,-1,7
 668 68 668 68 655 94 c 1,8,-1
 377 729 l 1,9,10
 355 770 355 770 329 823.5 c 128,-1,11
 303 877 303 877 276.5 937.5 c 128,-1,12
 250 998 250 998 225 1062 c 128,-1,13
 200 1126 200 1126 180.5 1189.5 c 128,-1,14
 161 1253 161 1253 149.5 1312.5 c 128,-1,15
 138 1372 138 1372 138 1422 c 0,16,17
 138 1444 138 1444 146.5 1460.5 c 128,-1,18
 155 1477 155 1477 169.5 1488.5 c 128,-1,19
 184 1500 184 1500 202.5 1505.5 c 128,-1,20
 221 1511 221 1511 241 1511 c 0,21,22
 303 1511 303 1511 324 1451 c 1,23,24
 337 1400 337 1400 358.5 1327.5 c 128,-1,25
 380 1255 380 1255 406 1177 c 128,-1,26
 432 1099 432 1099 460.5 1024.5 c 128,-1,27
 489 950 489 950 516 895 c 1,28,-1
 827 186 l 1,29,30
 837 166 837 166 847.5 143 c 128,-1,31
 858 120 858 120 867 96 c 128,-1,32
 876 72 876 72 881.5 47.5 c 128,-1,33
 887 23 887 23 887 1 c 0,0,1
EndSplineSet
Validated: 1
EndChar

StartChar: bracketright
Encoding: 93 93 64
Width: 854
GlyphClass: 2
Flags: W
LayerCount: 2
Fore
SplineSet
707 -209 m 2,0,1
 707 -220 707 -220 704 -232 c 128,-1,2
 701 -244 701 -244 694.5 -254.5 c 128,-1,3
 688 -265 688 -265 678 -271.5 c 128,-1,4
 668 -278 668 -278 655 -278 c 2,5,-1
 521 -278 l 2,6,7
 467 -278 467 -278 424 -278 c 128,-1,8
 381 -278 381 -278 339 -277 c 128,-1,9
 297 -276 297 -276 251 -275 c 128,-1,10
 205 -274 205 -274 145 -271 c 1,11,12
 120 -261 120 -261 109.5 -247.5 c 128,-1,13
 99 -234 99 -234 99 -209 c 0,14,15
 99 -182 99 -182 114 -158 c 128,-1,16
 129 -134 129 -134 158 -134 c 2,17,-1
 550 -134 l 1,18,-1
 512 521 l 1,19,-1
 505 1395 l 1,20,-1
 146 1395 l 2,21,22
 132 1395 132 1395 123.5 1402.5 c 128,-1,23
 115 1410 115 1410 110 1421 c 128,-1,24
 105 1432 105 1432 103 1443.5 c 128,-1,25
 101 1455 101 1455 101 1464 c 0,26,27
 101 1476 101 1476 104.5 1489 c 128,-1,28
 108 1502 108 1502 115.5 1512.5 c 128,-1,29
 123 1523 123 1523 133.5 1529.5 c 128,-1,30
 144 1536 144 1536 159 1536 c 2,31,-1
 577 1536 l 2,32,33
 587 1536 587 1536 598 1532 c 128,-1,34
 609 1528 609 1528 618.5 1521 c 128,-1,35
 628 1514 628 1514 634.5 1504 c 128,-1,36
 641 1494 641 1494 643 1483 c 1,37,-1
 662 449 l 1,38,-1
 707 -192 l 1,39,-1
 707 -209 l 2,0,1
EndSplineSet
Validated: 1
EndChar

StartChar: asciicircum
Encoding: 94 94 65
Width: 1030
GlyphClass: 2
Flags: W
LayerCount: 2
Fore
SplineSet
954 1010 m 0,0,1
 954.173913043 1009.56521739 954.173913043 1009.56521739 954.173913043 1008.7221172 c 0,2,3
 954.173913043 999.869565217 954.173913043 999.869565217 935 946 c 0,4,5
 918.980769231 899.826923077 918.980769231 899.826923077 876.323224852 899.826923077 c 0,6,7
 873.711538462 899.826923077 873.711538462 899.826923077 871 900 c 0,8,9
 817 903 817 903 789 919 c 0,10,-1
 730 965 l 0,11,-1
 675 1012 l 0,12,13
 601 1079 601 1079 601 1080 c 0,14,15
 596 1095 596 1095 553 1130 c 0,16,-1
 504 1184 l 1,17,-1
 417 1107 l 0,18,19
 321 1025 l 0,20,21
 245 959 245 959 210 919 c 0,22,23
 174 878 174 878 143 878 c 0,24,25
 116 878 116 878 116 878 c 0,26,27
 99 877 99 877 81 889 c 0,28,29
 27 925 27 925 27 989 c 0,30,31
 27 1018 27 1018 65 1052 c 0,32,33
 102 1085 102 1085 138 1118 c 0,34,-1
 229 1201 l 0,35,-1
 332 1307 l 0,36,37
 353 1341 353 1341 406 1413 c 0,38,39
 449 1471 449 1471 454 1476 c 0,40,41
 454 1476 454 1476 496 1486 c 0,42,43
 510 1489 510 1489 529 1474 c 0,44,45
 546 1461 546 1461 565 1437 c 0,46,47
 600 1393 600 1393 603 1389 c 0,48,49
 641 1335 641 1335 652 1319 c 0,50,51
 710 1237 710 1237 740 1214 c 2,52,-1
 884 1098 l 1,53,54
 935 1050 935 1050 954 1010 c 0,0,1
EndSplineSet
Validated: 1
EndChar

StartChar: grave
Encoding: 96 96 67
Width: 730
GlyphClass: 2
Flags: W
LayerCount: 2
Fore
SplineSet
58 1411 m 1,0,1
 56.8481530117 1418.55099692 56.8481530117 1418.55099692 56.8481530117 1425.71707973 c 0,2,3
 56.8481530117 1474.5877687 56.8481530117 1474.5877687 110.418945312 1505.55664062 c 0,4,5
 131.479094428 1517.73135435 131.479094428 1517.73135435 151.592055646 1517.73135435 c 0,6,7
 188.380469425 1517.73135435 188.380469425 1517.73135435 222 1477 c 0,8,9
 273 1414 273 1414 286 1400 c 0,10,11
 439 1235 439 1235 633 1191 c 0,12,13
 642 1189 642 1189 647 1180 c 0,14,15
 655 1165 655 1165 647 1136 c 0,16,17
 639 1108 639 1108 597 1084 c 0,18,19
 576.473684211 1072.15789474 576.473684211 1072.15789474 544.728531856 1072.15789474 c 0,20,21
 536.263157895 1072.15789474 536.263157895 1072.15789474 527 1073 c 0,22,23
 378 1087 378 1087 276 1160 c 0,24,25
 149 1251 149 1251 87 1360 c 2,26,-1
 58 1411 l 1,0,1
EndSplineSet
Validated: 1
EndChar

StartChar: a
Encoding: 97 97 68
Width: 1149
GlyphClass: 2
Flags: W
LayerCount: 2
Fore
SplineSet
824.499023438 819 m 17,0,1
 803.499023438 826 803.499023438 826 715.499023438 826 c 0,2,3
 263.499023438 826 263.499023438 826 262.499023438 480 c 0,4,5
 262.499023438 356 262.499023438 356 290.499023438 298.5 c 128,-1,6
 318.499023438 241 318.499023438 241 371.499023438 200 c 128,-1,7
 424.499023438 159 424.499023438 159 483.499023438 159 c 0,8,9
 597.499023438 159 597.499023438 159 699.999023438 247 c 128,-1,10
 802.499023438 335 802.499023438 335 820.499023438 442 c 1,11,-1
 824.499023438 819 l 17,0,1
824.499023438 517 m 1050,12,-1
89.4990234375 292 m 128,-1,14
 68.4990234375 383 68.4990234375 383 68.4990234375 505.5 c 128,-1,15
 68.4990234375 628 68.4990234375 628 116.499023438 732 c 0,16,17
 209.499023438 935 209.499023438 935 455.499023438 1000 c 0,18,19
 574.637695312 1031.5078125 574.637695312 1031.5078125 691.836914062 1031.5078125 c 0,20,21
 693.66796875 1031.5078125 693.66796875 1031.5078125 695.499023438 1031.5 c 0,22,23
 712.499023438 1031.42871094 712.499023438 1031.42871094 727.4375 1031.42871094 c 0,24,25
 817.0703125 1031.42871094 817.0703125 1031.42871094 832.499023438 1034 c 0,26,27
 836.356445312 1034.64257812 836.356445312 1034.64257812 841.040039062 1034.64257812 c 0,28,29
 858.212890625 1034.64257812 858.212890625 1034.64257812 886.499023438 1026 c 2,30,-1
 920.499023438 1016 l 2,31,32
 948.499023438 1008 948.499023438 1008 976.999023438 985.5 c 128,-1,33
 1005.49902344 963 1005.49902344 963 1005.49902344 941 c 2,34,-1
 1016.49902344 434 l 2,35,36
 1017.49902344 377 1017.49902344 377 1042.49902344 294 c 0,37,38
 1087.49902344 141 1087.49902344 141 1087.49902344 91.5 c 128,-1,39
 1087.49902344 42 1087.49902344 42 1061.49902344 11.5 c 0,40,41
 1035.49902344 -18 1035.49902344 -18 992.499023438 -18 c 0,42,43
 915.499023438 -18 915.499023438 -18 889.499023438 50 c 0,44,45
 868.499023438 102 868.499023438 102 856.499023438 148 c 1,46,47
 765.499023438 71 765.499023438 71 705.499023438 39 c 0,48,49
 586.499023438 -23 586.499023438 -23 473.499023438 -23 c 128,-1,50
 360.499023438 -23 360.499023438 -23 282.999023438 19 c 128,-1,51
 205.499023438 61 205.499023438 61 157.999023438 131 c 128,-1,13
 110.499023438 201 110.499023438 201 89.4990234375 292 c 128,-1,14
EndSplineSet
Validated: 1
EndChar

StartChar: b
Encoding: 98 98 69
Width: 1176
GlyphClass: 2
Flags: W
LayerCount: 2
Fore
SplineSet
52.521484375 86 m 1,0,-1
 116.521484375 438 l 2,1,2
 117.521484375 449 117.521484375 449 122.021484375 491 c 128,-1,3
 126.521484375 533 126.521484375 533 132.021484375 594 c 128,-1,4
 137.521484375 655 137.521484375 655 144.021484375 727.5 c 128,-1,5
 150.521484375 800 150.521484375 800 156.521484375 870.5 c 128,-1,6
 162.521484375 941 162.521484375 941 167.021484375 1003 c 128,-1,7
 171.521484375 1065 171.521484375 1065 174.521484375 1105 c 0,8,9
 175.521484375 1123 175.521484375 1123 176.521484375 1160 c 128,-1,10
 177.521484375 1197 177.521484375 1197 179.021484375 1244 c 128,-1,11
 180.521484375 1291 180.521484375 1291 182.021484375 1342.5 c 128,-1,12
 183.521484375 1394 183.521484375 1394 184.521484375 1441 c 128,-1,13
 185.521484375 1488 185.521484375 1488 186.521484375 1524.5 c 128,-1,14
 187.521484375 1561 187.521484375 1561 187.521484375 1579 c 1,15,16
 196.521484375 1613 196.521484375 1613 220.521484375 1634.5 c 128,-1,17
 244.521484375 1656 244.521484375 1656 280.521484375 1656 c 0,18,19
 309.521484375 1656 309.521484375 1656 333.021484375 1638.5 c 128,-1,20
 356.521484375 1621 356.521484375 1621 366.521484375 1592 c 1,21,-1
 366.521484375 1397 l 2,22,23
 366.521484375 1322 366.521484375 1322 363.521484375 1261.5 c 128,-1,24
 360.521484375 1201 360.521484375 1201 357.021484375 1143.5 c 128,-1,25
 353.521484375 1086 353.521484375 1086 350.521484375 1025.5 c 128,-1,26
 347.521484375 965 347.521484375 965 347.521484375 890 c 1,27,-1
 642.521484375 913 l 1,28,29
 709.521484375 913 709.521484375 913 774.521484375 890 c 128,-1,30
 839.521484375 867 839.521484375 867 897.521484375 826 c 128,-1,31
 955.521484375 785 955.521484375 785 1004.02148438 730 c 128,-1,32
 1052.52148438 675 1052.52148438 675 1087.52148438 611 c 128,-1,33
 1122.52148438 547 1122.52148438 547 1142.52148438 476.5 c 128,-1,34
 1162.52148438 406 1162.52148438 406 1162.52148438 336 c 0,35,36
 1162.52148438 255 1162.52148438 255 1137.02148438 191 c 128,-1,37
 1111.52148438 127 1111.52148438 127 1065.02148438 82.5 c 128,-1,38
 1018.52148438 38 1018.52148438 38 953.021484375 14 c 128,-1,39
 887.521484375 -10 887.521484375 -10 806.521484375 -10 c 0,40,41
 660.521484375 -10 660.521484375 -10 525.021484375 16.5 c 128,-1,42
 389.521484375 43 389.521484375 43 264.521484375 108 c 1,43,44
 253.521484375 83 253.521484375 83 247.521484375 60.5 c 128,-1,45
 241.521484375 38 241.521484375 38 231.021484375 20.5 c 128,-1,46
 220.521484375 3 220.521484375 3 201.521484375 -7 c 128,-1,47
 182.521484375 -17 182.521484375 -17 145.521484375 -17 c 0,48,49
 107.521484375 -17 107.521484375 -17 80.021484375 7 c 128,-1,50
 52.521484375 31 52.521484375 31 52.521484375 73 c 2,51,-1
 52.521484375 86 l 1,0,-1
302.521484375 336 m 2,52,53
 302.521484375 311 302.521484375 311 332.521484375 289.5 c 128,-1,54
 362.521484375 268 362.521484375 268 410.021484375 250 c 128,-1,55
 457.521484375 232 457.521484375 232 515.021484375 218 c 128,-1,56
 572.521484375 204 572.521484375 204 628.021484375 194.5 c 128,-1,57
 683.521484375 185 683.521484375 185 729.521484375 180 c 128,-1,58
 775.521484375 175 775.521484375 175 799.521484375 175 c 0,59,60
 886.521484375 175 886.521484375 175 928.021484375 212.5 c 128,-1,61
 969.521484375 250 969.521484375 250 969.521484375 339 c 0,62,63
 969.521484375 429 969.521484375 429 927.521484375 501 c 128,-1,64
 885.521484375 573 885.521484375 573 820.521484375 623 c 128,-1,65
 755.521484375 673 755.521484375 673 677.521484375 700 c 128,-1,66
 599.521484375 727 599.521484375 727 527.521484375 727 c 0,67,68
 498.521484375 727 498.521484375 727 476.021484375 723 c 128,-1,69
 453.521484375 719 453.521484375 719 431.521484375 714 c 128,-1,70
 409.521484375 709 409.521484375 709 385.021484375 702.5 c 128,-1,71
 360.521484375 696 360.521484375 696 328.521484375 692 c 1,72,73
 327.521484375 685 327.521484375 685 325.521484375 659.5 c 128,-1,74
 323.521484375 634 323.521484375 634 321.021484375 599 c 128,-1,75
 318.521484375 564 318.521484375 564 315.521484375 525 c 128,-1,76
 312.521484375 486 312.521484375 486 310.021484375 451 c 128,-1,77
 307.521484375 416 307.521484375 416 305.521484375 390.5 c 128,-1,78
 303.521484375 365 303.521484375 365 302.521484375 358 c 1,79,-1
 302.521484375 336 l 2,52,53
EndSplineSet
Validated: 1
EndChar

StartChar: c
Encoding: 99 99 70
Width: 1065
GlyphClass: 2
Flags: W
LayerCount: 2
Fore
SplineSet
202 156 m 0,0,1
 82.1805326842 316 82.1805326842 316 81.57421875 547 c 0,2,3
 81.5715066028 548.034379719 81.5715066028 548.034379719 81.5715066028 549.06670705 c 0,4,5
 81.5715066028 766.599845773 81.5715066028 766.599845773 202 893 c 0,6,7
 319 1017 319 1017 540 1017 c 0,8,9
 741 1017 741 1017 969 932 c 1,10,11
 1033 899 1033 899 1034 831 c 0,12,13
 1034.03030303 829.757575758 1034.03030303 829.757575758 1034.03030303 828.527089073 c 0,14,15
 1034.03030303 789.151515152 1034.03030303 789.151515152 1003 762 c 0,16,17
 971 734 971 734 924 734 c 0,18,19
 878 734 878 734 818 753 c 0,20,21
 651 806 651 806 535 806 c 0,22,23
 290.983870968 806 290.983870968 806 290.983870968 557.064190947 c 0,24,25
 290.983870968 555.040322581 290.983870968 555.040322581 291 553 c 0,26,27
 293 314 293 314 442 227 c 0,28,29
 497 195 497 195 557 195 c 0,30,31
 619 195 619 195 682 217 c 128,-1,32
 745 239 745 239 758 248 c 0,33,34
 764 252 764 252 834 286 c 0,35,36
 898 317 898 317 938 317 c 0,37,38
 980 317 980 317 1011 294 c 0,39,40
 1041 272 1041 272 1042 232 c 0,41,42
 1042.04166667 230.5 1042.04166667 230.5 1042.04166667 229.005208333 c 0,43,44
 1042.04166667 194.625 1042.04166667 194.625 1020 163 c 0,45,46
 949 60 949 60 746 12 c 0,47,48
 645 -12 645 -12 550 -12 c 0,49,50
 456 -12 456 -12 356 36 c 128,-1,51
 256 84 256 84 202 156 c 0,0,1
EndSplineSet
Validated: 1
EndChar

StartChar: d
Encoding: 100 100 71
Width: 1100
GlyphClass: 2
Flags: W
LayerCount: 2
Fore
SplineSet
748 54 m 4,0,1
 720 54 720 54 691.5 48 c 132,-1,2
 663 42 663 42 634.5 35.5 c 132,-1,3
 606 29 606 29 577 23 c 132,-1,4
 548 17 548 17 519 17 c 4,5,6
 410 17 410 17 322 54 c 132,-1,7
 234 91 234 91 172.5 157 c 132,-1,8
 111 223 111 223 78 313 c 132,-1,9
 45 403 45 403 45 509 c 4,10,11
 45 612 45 612 81 693 c 132,-1,12
 117 774 117 774 180.5 830 c 132,-1,13
 244 886 244 886 331 915.5 c 132,-1,14
 418 945 418 945 519 945 c 4,15,16
 562 945 562 945 604.5 935.5 c 132,-1,17
 647 926 647 926 689.5 914 c 132,-1,18
 732 902 732 902 773.5 892.5 c 132,-1,19
 815 883 815 883 856 883 c 6,20,-1
 862 883 l 5,21,-1
 887 1527 l 6,22,23
 887 1542 887 1542 896 1553.5 c 132,-1,24
 905 1565 905 1565 918 1573 c 132,-1,25
 931 1581 931 1581 946 1585 c 132,-1,26
 961 1589 961 1589 974 1589 c 4,27,28
 986 1589 986 1589 1001 1584 c 132,-1,29
 1016 1579 1016 1579 1029.5 1570 c 132,-1,30
 1043 1561 1043 1561 1052 1548.5 c 132,-1,31
 1061 1536 1061 1536 1061 1521 c 6,32,-1
 1061 1273 l 5,33,-1
 1023 617 l 6,34,35
 1022 610 1022 610 1019 583.5 c 132,-1,36
 1016 557 1016 557 1011 520 c 132,-1,37
 1006 483 1006 483 1000 438.5 c 132,-1,38
 994 394 994 394 988 351 c 132,-1,39
 982 308 982 308 977 270.5 c 132,-1,40
 972 233 972 233 968 209 c 4,41,42
 967 200 967 200 962 175 c 132,-1,43
 957 150 957 150 951 122 c 132,-1,44
 945 94 945 94 939 69.5 c 132,-1,45
 933 45 933 45 931 36 c 4,46,47
 921 3 921 3 896 -11.5 c 132,-1,48
 871 -26 871 -26 841 -26 c 4,49,50
 822 -26 822 -26 807.5 -13.5 c 132,-1,51
 793 -1 793 -1 781.5 14 c 132,-1,52
 770 29 770 29 762 41.5 c 132,-1,53
 754 54 754 54 748 54 c 4,0,1
224 506 m 260,54,55
 224 437 224 437 244.5 381.5 c 132,-1,56
 265 326 265 326 303 286 c 132,-1,57
 341 246 341 246 395.5 224.5 c 132,-1,58
 450 203 450 203 519 203 c 4,59,60
 537 203 537 203 564 205 c 132,-1,61
 591 207 591 207 621 211.5 c 132,-1,62
 651 216 651 216 681.5 224 c 132,-1,63
 712 232 712 232 737.5 244 c 132,-1,64
 763 256 763 256 780 273.5 c 132,-1,65
 797 291 797 291 800 314 c 6,66,-1
 844 654 l 5,67,-1
 844 660 l 6,68,69
 844 682 844 682 824.5 697.5 c 132,-1,70
 805 713 805 713 774.5 724 c 132,-1,71
 744 735 744 735 706.5 742 c 132,-1,72
 669 749 669 749 633.5 752.5 c 132,-1,73
 598 756 598 756 569 757.5 c 132,-1,74
 540 759 540 759 525 759 c 4,75,76
 462 759 462 759 407.5 745.5 c 132,-1,77
 353 732 353 732 312 702 c 132,-1,78
 271 672 271 672 247.5 623.5 c 132,-1,79
 224 575 224 575 224 506 c 260,54,55
EndSplineSet
Validated: 1
EndChar

StartChar: e
Encoding: 101 101 72
Width: 1051
GlyphClass: 2
Flags: W
LayerCount: 2
Fore
SplineSet
84 520 m 128,-1,1
 84 623 84 623 128 711.5 c 128,-1,2
 172 800 172 800 247 865 c 128,-1,3
 322 930 322 930 421 968 c 0,4,5
 517 1005 517 1005 627 1005 c 0,6,7
 702 1005 702 1005 776 988 c 0,8,9
 848 972 848 972 909 930 c 0,10,11
 968 890 968 890 1005 825 c 0,12,13
 1041 762 1041 762 1041 666 c 0,14,15
 1041 619 1041 619 1023 582 c 128,-1,16
 1005 545 1005 545 975 517 c 128,-1,17
 945 489 945 489 906 470 c 0,18,19
 862 448 862 448 824 437 c 0,20,21
 781 424 781 424 737 417 c 128,-1,22
 693 410 693 410 654 408 c 2,23,-1
 294 388 l 1,24,-1
 294 384 l 2,25,26
 294 334 294 334 318 298 c 128,-1,27
 342 262 342 262 379 238 c 128,-1,28
 416 214 416 214 460 202 c 0,29,30
 500 191 500 191 545 191 c 0,31,32
 595 191 595 191 639 209 c 0,33,34
 678 225 678 225 723 248 c 0,35,36
 778 276 778 276 805 288 c 0,37,38
 846 306 846 306 888 306 c 0,39,40
 929 306 929 306 958 282 c 128,-1,41
 987 258 987 258 987 215 c 0,42,43
 987 174 987 174 963 142 c 0,44,45
 938 109 938 109 899 84 c 0,46,47
 856 57 856 57 811 40 c 0,48,49
 764 23 764 23 712 10 c 0,50,51
 670 -0 670 -0 618 -6 c 0,52,53
 564 -12 564 -12 542 -12 c 0,54,55
 427 -12 427 -12 341 32 c 0,56,57
 254 77 254 77 198 148 c 0,58,59
 141 220 141 220 113 318 c 0,60,0
 84 417 84 417 84 520 c 128,-1,1
629 809 m 0,61,62
 596 809 596 809 557.5 802.5 c 128,-1,63
 519 796 519 796 481 784 c 0,64,65
 443 771 443 771 407 752 c 0,66,67
 368 732 368 732 344 710 c 0,68,69
 318 687 318 687 301 656 c 128,-1,70
 284 625 284 625 284 591 c 1,71,72
 299 591 299 591 347 592 c 0,73,74
 370 592 370 592 457 598 c 0,75,76
 519 601 519 601 587 606 c 0,77,78
 639 610 639 610 713 620 c 0,79,80
 763 627 763 627 807 640 c 0,81,82
 844 651 844 651 844 666 c 0,83,84
 844 709 844 709 821 737 c 0,85,86
 799 764 799 764 764 781 c 0,87,88
 732 797 732 797 693 803 c 0,89,90
 656 809 656 809 629 809 c 0,61,62
EndSplineSet
Validated: 1
EndChar

StartChar: f
Encoding: 102 102 73
Width: 663
GlyphClass: 2
Flags: W
LayerCount: 2
Fore
SplineSet
77 96 m 1,0,1
 116 234 116 234 139 377.5 c 128,-1,2
 162 521 162 521 176 665 c 0,3,4
 176 667 176 667 177.5 672.5 c 128,-1,5
 179 678 179 678 179 680 c 0,6,7
 179 692 179 692 166.5 701.5 c 128,-1,8
 154 711 154 711 139.5 722 c 128,-1,9
 125 733 125 733 112.5 747.5 c 128,-1,10
 100 762 100 762 100 784 c 0,11,12
 100 824 100 824 125 845.5 c 128,-1,13
 150 867 150 867 188 869 c 1,14,-1
 199 1339 l 2,15,16
 200 1389 200 1389 223 1431 c 128,-1,17
 246 1473 246 1473 282.5 1503 c 128,-1,18
 319 1533 319 1533 365 1549.5 c 128,-1,19
 411 1566 411 1566 458 1566 c 0,20,21
 508 1566 508 1566 563 1547.5 c 128,-1,22
 618 1529 618 1529 663.5 1496 c 128,-1,23
 709 1463 709 1463 739 1416.5 c 128,-1,24
 769 1370 769 1370 769 1313 c 0,25,26
 769 1276 769 1276 748 1255.5 c 128,-1,27
 727 1235 727 1235 690 1235 c 0,28,29
 664 1235 664 1235 645.5 1246.5 c 128,-1,30
 627 1258 627 1258 612 1275.5 c 128,-1,31
 597 1293 597 1293 583.5 1313.5 c 128,-1,32
 570 1334 570 1334 553.5 1351.5 c 128,-1,33
 537 1369 537 1369 515.5 1380.5 c 128,-1,34
 494 1392 494 1392 464 1392 c 0,35,36
 422 1392 422 1392 396 1373.5 c 128,-1,37
 370 1355 370 1355 368 1310 c 0,38,39
 368 1294 368 1294 367.5 1261.5 c 128,-1,40
 367 1229 367 1229 366.5 1188 c 128,-1,41
 366 1147 366 1147 365 1101.5 c 128,-1,42
 364 1056 364 1056 363.5 1015 c 128,-1,43
 363 974 363 974 362.5 941 c 128,-1,44
 362 908 362 908 362 892 c 2,45,-1
 362 866 l 1,46,-1
 511 866 l 2,47,48
 522 866 522 866 531.5 857 c 128,-1,49
 541 848 541 848 548 835 c 128,-1,50
 555 822 555 822 559 808 c 128,-1,51
 563 794 563 794 563 784 c 0,52,53
 563 772 563 772 559 757 c 128,-1,54
 555 742 555 742 547 728.5 c 128,-1,55
 539 715 539 715 526.5 706 c 128,-1,56
 514 697 514 697 498 697 c 2,57,-1
 350 697 l 1,58,59
 349 683 349 683 345.5 654 c 128,-1,60
 342 625 342 625 337.5 588 c 128,-1,61
 333 551 333 551 328 510 c 128,-1,62
 323 469 323 469 318.5 432 c 128,-1,63
 314 395 314 395 310 365.5 c 128,-1,64
 306 336 306 336 304 322 c 0,65,66
 302 310 302 310 299 281.5 c 128,-1,67
 296 253 296 253 290.5 217.5 c 128,-1,68
 285 182 285 182 276 144 c 128,-1,69
 267 106 267 106 251.5 74.5 c 128,-1,70
 236 43 236 43 214 23 c 128,-1,71
 192 3 192 3 161 3 c 0,72,73
 126 3 126 3 101.5 25 c 128,-1,74
 77 47 77 47 77 84 c 2,75,-1
 77 96 l 1,0,1
EndSplineSet
Validated: 1
EndChar

